<svg fill="none" height="251" viewBox="0 0 750 251" width="750" xmlns="http://www.w3.org/2000/svg" xmlns:xlink="http://www.w3.org/1999/xlink"><linearGradient id="a"><stop offset="0" stop-color="#ff686b"/><stop offset="1" stop-color="#fb3464"/></linearGradient><linearGradient id="b" gradientUnits="userSpaceOnUse" x1="422.159" x2="422.159" xlink:href="#a" y1="79.1177" y2="164.118"/><linearGradient id="c" gradientUnits="userSpaceOnUse" x1="194.58" x2="194.58" xlink:href="#a" y1="93.9746" y2="156.125"/><path d="m0 0h750v251h-750z" fill="#fff2f2"/><path d="m249.847 102.806c.896.042 2.07.085 3.52.128 1.451.042 2.88.064 4.288.064 2.006 0 3.926-.022 5.76-.064 1.835-.043 3.136-.064 3.904-.064 4.48 0 7.851.938 10.112 2.816 2.262 1.877 3.392 4.288 3.392 7.232 0 1.493-.32 2.965-.96 4.416-.597 1.408-1.621 2.709-3.072 3.904-1.408 1.152-3.306 2.09-5.696 2.816v.128c3.371.426 5.995 1.237 7.872 2.432 1.92 1.152 3.264 2.517 4.032 4.096.768 1.578 1.152 3.242 1.152 4.992 0 2.432-.618 4.586-1.856 6.464-1.194 1.834-2.944 3.285-5.248 4.352-2.304 1.066-5.056 1.6-8.256 1.6-.938 0-2.346-.022-4.224-.064-1.877-.086-4.138-.128-6.784-.128-1.493 0-2.965.021-4.416.064-1.45 0-2.624.042-3.52.128v-1.28c1.451-.086 2.539-.256 3.264-.512.768-.256 1.28-.768 1.536-1.536s.384-1.92.384-3.456v-31.744c0-1.579-.128-2.731-.384-3.456-.256-.768-.768-1.28-1.536-1.536-.725-.299-1.813-.47-3.264-.512zm15.872 1.28c-1.962 0-3.242.362-3.84 1.088-.597.725-.896 2.197-.896 4.416v31.744c0 1.493.128 2.624.384 3.392s.726 1.28 1.408 1.536c.683.256 1.686.384 3.008.384 4.182 0 7.211-.96 9.088-2.88 1.92-1.963 2.88-4.736 2.88-8.32 0-3.286-.896-5.824-2.688-7.616-1.749-1.792-4.65-2.688-8.704-2.688h-6.592s0-.171 0-.512c0-.384 0-.576 0-.576h5.504c2.518 0 4.459-.47 5.824-1.408 1.366-.982 2.304-2.262 2.816-3.84.512-1.622.768-3.35.768-5.184 0-3.158-.704-5.526-2.112-7.104-1.365-1.622-3.648-2.432-6.848-2.432zm38.851 10.176c2.731 0 5.184.597 7.36 1.792 2.176 1.194 3.904 3.072 5.184 5.632 1.323 2.56 1.984 5.888 1.984 9.984s-.661 7.424-1.984 9.984c-1.28 2.517-3.008 4.373-5.184 5.568-2.176 1.194-4.629 1.792-7.36 1.792-2.688 0-5.141-.598-7.36-1.792-2.176-1.195-3.925-3.051-5.248-5.568-1.28-2.56-1.92-5.888-1.92-9.984s.64-7.424 1.92-9.984c1.323-2.56 3.072-4.438 5.248-5.632 2.219-1.195 4.672-1.792 7.36-1.792zm0 1.28c-2.432 0-4.437 1.258-6.016 3.776-1.536 2.517-2.304 6.634-2.304 12.352 0 5.717.768 9.834 2.304 12.352 1.579 2.474 3.584 3.712 6.016 3.712s4.416-1.238 5.952-3.712c1.579-2.518 2.368-6.635 2.368-12.352 0-5.718-.789-9.835-2.368-12.352-1.536-2.518-3.52-3.776-5.952-3.776zm35.063-1.28c2.73 0 5.184.597 7.36 1.792 2.176 1.194 3.904 3.072 5.184 5.632 1.322 2.56 1.984 5.888 1.984 9.984s-.662 7.424-1.984 9.984c-1.28 2.517-3.008 4.373-5.184 5.568-2.176 1.194-4.63 1.792-7.36 1.792-2.688 0-5.142-.598-7.36-1.792-2.176-1.195-3.926-3.051-5.248-5.568-1.28-2.56-1.92-5.888-1.92-9.984s.64-7.424 1.92-9.984c1.322-2.56 3.072-4.438 5.248-5.632 2.218-1.195 4.672-1.792 7.36-1.792zm0 1.28c-2.432 0-4.438 1.258-6.016 3.776-1.536 2.517-2.304 6.634-2.304 12.352 0 5.717.768 9.834 2.304 12.352 1.578 2.474 3.584 3.712 6.016 3.712s4.416-1.238 5.952-3.712c1.578-2.518 2.368-6.635 2.368-12.352 0-5.718-.79-9.835-2.368-12.352-1.536-2.518-3.52-3.776-5.952-3.776zm28.805-17.6003v44.2243c0 1.792.32 3.008.96 3.648s1.728.96 3.264.96v1.344c-.682-.043-1.706-.086-3.072-.128-1.322-.086-2.666-.128-4.032-.128-1.45 0-2.922.042-4.416.128-1.493.042-2.602.085-3.328.128v-1.344c1.75 0 2.987-.32 3.712-.96.768-.64 1.152-1.856 1.152-3.648v-36.544c0-1.92-.341-3.328-1.024-4.224-.682-.939-1.962-1.4083-3.84-1.4083v-1.344c1.366.128 2.688.192 3.968.192 1.238 0 2.411-.064 3.52-.192 1.152-.1707 2.198-.4054 3.136-.704zm20.352 17.2163v1.28c-1.066.085-2.069.384-3.008.896-.938.469-1.856 1.173-2.752 2.112l-9.024 9.472.896-1.792 11.904 16.32c.726.981 1.408 1.749 2.048 2.304.683.554 1.494.896 2.432 1.024v1.344c-.469-.043-1.216-.086-2.24-.128-.981-.086-1.962-.128-2.944-.128-1.322 0-2.666.042-4.032.128-1.365.042-2.389.085-3.072.128v-1.344c.854 0 1.451-.214 1.792-.64.342-.427.278-.939-.192-1.536l-7.36-10.752c-.81-1.152-1.557-1.899-2.24-2.24-.64-.342-1.578-.534-2.816-.576v-1.28c1.366-.171 2.475-.448 3.328-.832.854-.427 1.664-1.046 2.432-1.856l4.736-4.928c1.366-1.408 2.048-2.518 2.048-3.328 0-.854-.448-1.451-1.344-1.792-.853-.384-1.984-.576-3.392-.576v-1.28c1.11.042 2.347.106 3.712.192 1.408.042 2.582.064 3.52.064h2.112c.683-.043 1.323-.086 1.92-.128.598-.043 1.11-.086 1.536-.128zm37.556-12.352c-.171 1.621-.299 3.2-.384 4.736-.043 1.493-.064 2.645-.064 3.456 0 1.024.021 1.984.064 2.88.042.896.085 1.685.128 2.368h-1.472c-.299-2.987-.704-5.334-1.216-7.04-.512-1.75-1.408-3.008-2.688-3.776s-3.264-1.152-5.952-1.152h-4.032c-1.451 0-2.56.128-3.328.384-.726.213-1.216.704-1.472 1.472-.256.725-.384 1.877-.384 3.456v31.744c0 1.536.149 2.688.448 3.456.341.768.981 1.28 1.92 1.536.938.256 2.304.426 4.096.512v1.28c-1.11-.086-2.518-.128-4.224-.128-1.707-.043-3.435-.064-5.184-.064-1.664 0-3.222.021-4.672.064-1.451 0-2.624.042-3.52.128v-1.28c1.45-.086 2.538-.256 3.264-.512.768-.256 1.28-.768 1.536-1.536s.384-1.92.384-3.456v-31.744c0-1.579-.128-2.731-.384-3.456-.256-.768-.768-1.28-1.536-1.536-.726-.299-1.814-.47-3.264-.512v-1.28c1.578.042 3.242.085 4.992.128 1.749 0 3.477.021 5.184.064h4.736 3.648 6.656c2.517-.043 4.757-.107 6.72-.192zm-9.92 22.528v.64.64h-12.8s0-.214 0-.64c0-.427 0-.64 0-.64zm1.216-8.448c-.171 2.432-.256 4.288-.256 5.568.042 1.28.064 2.453.064 3.52 0 1.066.021 2.24.064 3.52.042 1.28.149 3.136.32 5.568h-1.472c-.171-1.366-.384-2.688-.64-3.968-.214-1.323-.726-2.39-1.536-3.2-.768-.854-2.091-1.28-3.968-1.28v-1.28c1.408 0 2.474-.278 3.2-.832.768-.598 1.322-1.344 1.664-2.24.341-.896.576-1.814.704-2.752.128-.982.256-1.856.384-2.624zm19.669-17.7283c1.11 0 2.07.4053 2.88 1.2163.811.81 1.216 1.77 1.216 2.88 0 1.109-.405 2.069-1.216 2.88-.81.81-1.77 1.216-2.88 1.216-1.109 0-2.069-.406-2.88-1.216-.81-.811-1.216-1.771-1.216-2.88 0-1.11.406-2.07 1.216-2.88.811-.811 1.771-1.2163 2.88-1.2163zm3.328 15.2963v27.712c0 1.792.363 3.008 1.088 3.648.768.64 2.027.96 3.776.96v1.344c-.725-.043-1.834-.086-3.328-.128-1.45-.086-2.922-.128-4.416-.128-1.45 0-2.922.042-4.416.128-1.493.042-2.602.085-3.328.128v-1.344c1.75 0 2.987-.32 3.712-.96.768-.64 1.152-1.856 1.152-3.648v-20.032c0-1.92-.341-3.328-1.024-4.224-.682-.939-1.962-1.408-3.84-1.408v-1.344c1.366.128 2.688.192 3.968.192 1.238 0 2.411-.064 3.52-.192 1.152-.171 2.198-.406 3.136-.704zm29.63-.192c1.622 0 2.966.213 4.032.64 1.11.426 2.027 1.024 2.752 1.792.811.853 1.387 1.92 1.728 3.2.342 1.28.512 3.008.512 5.184v17.088c0 1.792.363 3.008 1.088 3.648.768.64 2.027.96 3.776.96v1.344c-.725-.043-1.834-.086-3.328-.128-1.493-.086-2.944-.128-4.352-.128s-2.794.042-4.16.128c-1.322.042-2.325.085-3.008.128v-1.344c1.536 0 2.624-.32 3.264-.96s.96-1.856.96-3.648v-18.496c0-1.323-.106-2.539-.32-3.648-.213-1.11-.704-2.006-1.472-2.688-.725-.683-1.856-1.024-3.392-1.024-1.792 0-3.37.512-4.736 1.536-1.322 1.024-2.368 2.432-3.136 4.224-.725 1.749-1.088 3.712-1.088 5.888v14.208c0 1.792.32 3.008.96 3.648s1.728.96 3.264.96v1.344c-.682-.043-1.706-.086-3.072-.128-1.322-.086-2.688-.128-4.096-.128s-2.858.042-4.352.128c-1.493.042-2.602.085-3.328.128v-1.344c1.75 0 2.987-.32 3.712-.96.768-.64 1.152-1.856 1.152-3.648v-20.032c0-1.92-.341-3.328-1.024-4.224-.682-.939-1.962-1.408-3.84-1.408v-1.344c1.366.128 2.688.192 3.968.192 1.238 0 2.411-.064 3.52-.192 1.152-.171 2.198-.406 3.136-.704v7.552c1.11-2.902 2.646-4.907 4.608-6.016 2.006-1.152 4.096-1.728 6.272-1.728zm45.804-16.3203v43.2003c0 1.92.341 3.349 1.024 4.288.725.896 2.005 1.344 3.84 1.344v1.344c-1.323-.128-2.646-.192-3.968-.192-1.238 0-2.432.064-3.584.192-1.11.128-2.134.362-3.072.704v-43.2c0-1.92-.342-3.328-1.024-4.224-.683-.939-1.963-1.4083-3.84-1.4083v-1.344c1.365.128 2.688.192 3.968.192 1.237 0 2.41-.064 3.52-.192 1.152-.1707 2.197-.4054 3.136-.704zm-13.44 16.3203c1.877 0 3.626.448 5.248 1.344 1.664.896 2.773 2.432 3.328 4.608l-.832.64c-.598-1.792-1.536-3.094-2.816-3.904-1.238-.811-2.71-1.216-4.416-1.216-2.518 0-4.63 1.301-6.336 3.904-1.664 2.602-2.475 6.613-2.432 12.032 0 3.456.32 6.336.96 8.64.682 2.261 1.664 3.968 2.944 5.12 1.322 1.109 2.922 1.664 4.8 1.664 1.792 0 3.413-.768 4.864-2.304 1.45-1.536 2.325-3.798 2.624-6.784l.768.896c-.342 3.242-1.387 5.738-3.136 7.488-1.707 1.749-4.032 2.624-6.976 2.624-2.646 0-4.971-.64-6.976-1.92-1.963-1.28-3.478-3.2-4.544-5.76-1.024-2.56-1.536-5.782-1.536-9.664 0-3.883.661-7.104 1.984-9.664 1.365-2.603 3.136-4.544 5.312-5.824 2.218-1.28 4.608-1.92 7.168-1.92zm37.059 0c3.755 0 6.678 1.152 8.768 3.456 2.134 2.261 3.2 5.802 3.2 10.624h-22.592l-.064-1.216h16.512c.086-2.091-.085-4.011-.512-5.76-.426-1.792-1.109-3.222-2.048-4.288-.896-1.067-2.069-1.6-3.52-1.6-1.962 0-3.712.981-5.248 2.944-1.493 1.962-2.389 5.077-2.688 9.344l.192.256c-.085.64-.149 1.344-.192 2.112-.042.768-.064 1.536-.064 2.304 0 2.901.47 5.397 1.408 7.488.939 2.09 2.155 3.69 3.648 4.8 1.536 1.066 3.115 1.6 4.736 1.6 1.28 0 2.496-.192 3.648-.576 1.152-.427 2.219-1.11 3.2-2.048.982-.939 1.835-2.198 2.56-3.776l1.28.512c-.469 1.408-1.237 2.773-2.304 4.096-1.066 1.322-2.41 2.41-4.032 3.264-1.621.81-3.498 1.216-5.632 1.216-3.072 0-5.717-.704-7.936-2.112-2.176-1.408-3.861-3.35-5.056-5.824-1.152-2.518-1.728-5.398-1.728-8.64 0-3.755.598-6.976 1.792-9.664 1.195-2.731 2.88-4.822 5.056-6.272 2.176-1.494 4.715-2.24 7.616-2.24zm36.727 0c1.152 0 2.155.234 3.008.704.896.469 1.579 1.088 2.048 1.856.512.725.768 1.557.768 2.496 0 1.066-.341 2.005-1.024 2.816-.64.81-1.514 1.216-2.624 1.216-.896 0-1.685-.278-2.368-.832-.682-.598-1.024-1.43-1.024-2.496 0-.811.214-1.494.64-2.048.47-.598.982-1.067 1.536-1.408-.298-.427-.746-.64-1.344-.64-1.322 0-2.538.405-3.648 1.216-1.109.768-2.048 1.77-2.816 3.008-.768 1.237-1.365 2.56-1.792 3.968-.426 1.365-.64 2.645-.64 3.84v13.568c0 2.09.598 3.498 1.792 4.224 1.238.682 2.902 1.024 4.992 1.024v1.344c-.981-.043-2.368-.086-4.16-.128-1.792-.086-3.69-.128-5.696-.128-1.45 0-2.901.042-4.352.128-1.408.042-2.474.085-3.2.128v-1.344c1.75 0 2.987-.32 3.712-.96.768-.64 1.152-1.856 1.152-3.648v-20.032c0-1.92-.341-3.328-1.024-4.224-.682-.939-1.962-1.408-3.84-1.408v-1.344c1.366.128 2.688.192 3.968.192 1.238 0 2.411-.064 3.52-.192 1.152-.171 2.198-.406 3.136-.704v8c.47-1.238 1.131-2.475 1.984-3.712.896-1.28 1.963-2.347 3.2-3.2 1.238-.854 2.603-1.28 4.096-1.28zm12.429 26.56c1.11 0 2.07.405 2.88 1.216.811.81 1.216 1.77 1.216 2.88 0 1.109-.405 2.069-1.216 2.88-.81.81-1.77 1.216-2.88 1.216-1.109 0-2.069-.406-2.88-1.216-.81-.811-1.216-1.771-1.216-2.88 0-1.11.406-2.07 1.216-2.88.811-.811 1.771-1.216 2.88-1.216z" fill="url(#b)"/><path d="m155.145 156.125c5.995-3.456 12.795-5.275 19.717-5.275 6.923 0 13.723 1.819 19.718 5.275 5.995-3.456 12.795-5.275 19.717-5.275s13.723 1.819 19.717 5.275m-78.869-56.8751c5.995-3.4559 12.795-5.2753 19.717-5.2753 6.923 0 13.723 1.8194 19.718 5.2753 5.995-3.4559 12.795-5.2753 19.717-5.2753s13.723 1.8194 19.717 5.2753m-78.869 0v56.8751zm39.435 0v56.8751zm39.434 0v56.8751z" fill="url(#c)"/><path d="m194.58 156.125c-5.995-3.456-12.795-5.275-19.718-5.275-6.922 0-13.722 1.819-19.717 5.275v-56.8751c5.995-3.4559 12.795-5.2753 19.717-5.2753 6.923 0 13.723 1.8194 19.718 5.2753m0 56.8751c5.995-3.456 12.795-5.275 19.717-5.275s13.723 1.819 19.717 5.275v-56.8751c-5.994-3.4559-12.795-5.2753-19.717-5.2753s-13.722 1.8194-19.717 5.2753m0 56.8751v-56.8751" stroke="#ff686b" stroke-linecap="round" stroke-linejoin="round" stroke-width="2"/></svg>