<svg width="786" height="815" viewBox="0 0 786 815" fill="none" xmlns="http://www.w3.org/2000/svg">
<g clip-path="url(#clip0_14_24741)">
<path opacity="0.8" d="M1126.1 111.237C1126.1 111.237 983.254 47.7144 824.5 27.0002C665.746 6.28611 626.046 30.9992 509.15 82.7845C447.967 109.884 378.076 99.3499 313.127 112.473C105.398 154.431 27.2415 417.3 113.751 566.801C188.642 696.264 320.422 763.526 521.122 779.062C721.822 794.597 862.603 812.693 1042.36 685.877C1222.11 559.062 1210.08 295.016 1126.1 111.237Z" fill="#FFE3E3"/>
<path d="M794.874 216.318C794.874 216.318 747.607 124.453 643.229 110.837C538.851 97.222 466.094 163.578 389.237 197.616C349.01 215.428 303.058 208.504 260.355 217.13C123.776 244.709 72.3895 417.492 129.268 515.759C178.508 600.855 265.151 645.066 397.108 655.278C529.065 665.489 621.626 677.383 739.813 594.028C858 510.672 850.089 337.115 794.874 216.318Z" fill="#FF686B"/>
<path opacity="0.8" d="M794.874 216.318C794.874 216.318 747.607 124.453 643.229 110.837C538.851 97.222 466.094 163.578 389.237 197.616C349.01 215.428 303.058 208.504 260.355 217.13C123.776 244.709 72.3895 417.492 129.268 515.759C178.508 600.855 265.151 645.066 397.108 655.278C529.065 665.489 621.626 677.383 739.813 594.028C858 510.672 850.089 337.115 794.874 216.318Z" fill="white"/>
</g>
<defs>
<clipPath id="clip0_14_24741">
<rect width="967" height="967" fill="white"/>
</clipPath>
</defs>
</svg>
