<svg width="750" height="251" viewBox="0 0 750 251" fill="none" xmlns="http://www.w3.org/2000/svg">
<rect width="750" height="251" fill="#FFF2F2"/>
<path d="M249.847 102.806C250.743 102.848 251.917 102.891 253.367 102.934C254.818 102.976 256.247 102.998 257.655 102.998C259.661 102.998 261.581 102.976 263.415 102.934C265.25 102.891 266.551 102.87 267.319 102.87C271.799 102.87 275.17 103.808 277.431 105.686C279.693 107.563 280.823 109.974 280.823 112.918C280.823 114.411 280.503 115.883 279.863 117.334C279.266 118.742 278.242 120.043 276.791 121.238C275.383 122.39 273.485 123.328 271.095 124.054V124.182C274.466 124.608 277.09 125.419 278.967 126.614C280.887 127.766 282.231 129.131 282.999 130.71C283.767 132.288 284.151 133.952 284.151 135.702C284.151 138.134 283.533 140.288 282.295 142.166C281.101 144 279.351 145.451 277.047 146.518C274.743 147.584 271.991 148.118 268.791 148.118C267.853 148.118 266.445 148.096 264.567 148.054C262.69 147.968 260.429 147.926 257.783 147.926C256.29 147.926 254.818 147.947 253.367 147.99C251.917 147.99 250.743 148.032 249.847 148.118V146.838C251.298 146.752 252.386 146.582 253.111 146.326C253.879 146.07 254.391 145.558 254.647 144.79C254.903 144.022 255.031 142.87 255.031 141.334V109.59C255.031 108.011 254.903 106.859 254.647 106.134C254.391 105.366 253.879 104.854 253.111 104.598C252.386 104.299 251.298 104.128 249.847 104.086V102.806ZM265.719 104.086C263.757 104.086 262.477 104.448 261.879 105.174C261.282 105.899 260.983 107.371 260.983 109.59V141.334C260.983 142.827 261.111 143.958 261.367 144.726C261.623 145.494 262.093 146.006 262.775 146.262C263.458 146.518 264.461 146.646 265.783 146.646C269.965 146.646 272.994 145.686 274.871 143.766C276.791 141.803 277.751 139.03 277.751 135.446C277.751 132.16 276.855 129.622 275.063 127.83C273.314 126.038 270.413 125.142 266.359 125.142H259.767C259.767 125.142 259.767 124.971 259.767 124.63C259.767 124.246 259.767 124.054 259.767 124.054H265.271C267.789 124.054 269.73 123.584 271.095 122.646C272.461 121.664 273.399 120.384 273.911 118.806C274.423 117.184 274.679 115.456 274.679 113.622C274.679 110.464 273.975 108.096 272.567 106.518C271.202 104.896 268.919 104.086 265.719 104.086ZM304.57 114.262C307.301 114.262 309.754 114.859 311.93 116.054C314.106 117.248 315.834 119.126 317.114 121.686C318.437 124.246 319.098 127.574 319.098 131.67C319.098 135.766 318.437 139.094 317.114 141.654C315.834 144.171 314.106 146.027 311.93 147.222C309.754 148.416 307.301 149.014 304.57 149.014C301.882 149.014 299.429 148.416 297.21 147.222C295.034 146.027 293.285 144.171 291.962 141.654C290.682 139.094 290.042 135.766 290.042 131.67C290.042 127.574 290.682 124.246 291.962 121.686C293.285 119.126 295.034 117.248 297.21 116.054C299.429 114.859 301.882 114.262 304.57 114.262ZM304.57 115.542C302.138 115.542 300.133 116.8 298.554 119.318C297.018 121.835 296.25 125.952 296.25 131.67C296.25 137.387 297.018 141.504 298.554 144.022C300.133 146.496 302.138 147.734 304.57 147.734C307.002 147.734 308.986 146.496 310.522 144.022C312.101 141.504 312.89 137.387 312.89 131.67C312.89 125.952 312.101 121.835 310.522 119.318C308.986 116.8 307.002 115.542 304.57 115.542ZM339.633 114.262C342.363 114.262 344.817 114.859 346.993 116.054C349.169 117.248 350.897 119.126 352.177 121.686C353.499 124.246 354.161 127.574 354.161 131.67C354.161 135.766 353.499 139.094 352.177 141.654C350.897 144.171 349.169 146.027 346.993 147.222C344.817 148.416 342.363 149.014 339.633 149.014C336.945 149.014 334.491 148.416 332.273 147.222C330.097 146.027 328.347 144.171 327.025 141.654C325.745 139.094 325.105 135.766 325.105 131.67C325.105 127.574 325.745 124.246 327.025 121.686C328.347 119.126 330.097 117.248 332.273 116.054C334.491 114.859 336.945 114.262 339.633 114.262ZM339.633 115.542C337.201 115.542 335.195 116.8 333.617 119.318C332.081 121.835 331.313 125.952 331.313 131.67C331.313 137.387 332.081 141.504 333.617 144.022C335.195 146.496 337.201 147.734 339.633 147.734C342.065 147.734 344.049 146.496 345.585 144.022C347.163 141.504 347.953 137.387 347.953 131.67C347.953 125.952 347.163 121.835 345.585 119.318C344.049 116.8 342.065 115.542 339.633 115.542ZM368.438 97.9417V142.166C368.438 143.958 368.758 145.174 369.398 145.814C370.038 146.454 371.126 146.774 372.662 146.774V148.118C371.98 148.075 370.956 148.032 369.59 147.99C368.268 147.904 366.924 147.862 365.558 147.862C364.108 147.862 362.636 147.904 361.142 147.99C359.649 148.032 358.54 148.075 357.814 148.118V146.774C359.564 146.774 360.801 146.454 361.526 145.814C362.294 145.174 362.678 143.958 362.678 142.166V105.622C362.678 103.702 362.337 102.294 361.654 101.398C360.972 100.459 359.692 99.9897 357.814 99.9897V98.6457C359.18 98.7737 360.502 98.8377 361.782 98.8377C363.02 98.8377 364.193 98.7737 365.302 98.6457C366.454 98.475 367.5 98.2403 368.438 97.9417ZM388.79 115.158V116.438C387.724 116.523 386.721 116.822 385.782 117.334C384.844 117.803 383.926 118.507 383.03 119.446L374.006 128.918L374.902 127.126L386.806 143.446C387.532 144.427 388.214 145.195 388.854 145.75C389.537 146.304 390.348 146.646 391.286 146.774V148.118C390.817 148.075 390.07 148.032 389.046 147.99C388.065 147.904 387.084 147.862 386.102 147.862C384.78 147.862 383.436 147.904 382.07 147.99C380.705 148.032 379.681 148.075 378.998 148.118V146.774C379.852 146.774 380.449 146.56 380.79 146.134C381.132 145.707 381.068 145.195 380.598 144.598L373.238 133.846C372.428 132.694 371.681 131.947 370.998 131.606C370.358 131.264 369.42 131.072 368.182 131.03V129.75C369.548 129.579 370.657 129.302 371.51 128.918C372.364 128.491 373.174 127.872 373.942 127.062L378.678 122.134C380.044 120.726 380.726 119.616 380.726 118.806C380.726 117.952 380.278 117.355 379.382 117.014C378.529 116.63 377.398 116.438 375.99 116.438V115.158C377.1 115.2 378.337 115.264 379.702 115.35C381.11 115.392 382.284 115.414 383.222 115.414C383.948 115.414 384.652 115.414 385.334 115.414C386.017 115.371 386.657 115.328 387.254 115.286C387.852 115.243 388.364 115.2 388.79 115.158ZM426.346 102.806C426.175 104.427 426.047 106.006 425.962 107.542C425.919 109.035 425.898 110.187 425.898 110.998C425.898 112.022 425.919 112.982 425.962 113.878C426.004 114.774 426.047 115.563 426.09 116.246H424.618C424.319 113.259 423.914 110.912 423.402 109.206C422.89 107.456 421.994 106.198 420.714 105.43C419.434 104.662 417.45 104.278 414.762 104.278H410.73C409.279 104.278 408.17 104.406 407.402 104.662C406.676 104.875 406.186 105.366 405.93 106.134C405.674 106.859 405.546 108.011 405.546 109.59V141.334C405.546 142.87 405.695 144.022 405.994 144.79C406.335 145.558 406.975 146.07 407.914 146.326C408.852 146.582 410.218 146.752 412.01 146.838V148.118C410.9 148.032 409.492 147.99 407.786 147.99C406.079 147.947 404.351 147.926 402.602 147.926C400.938 147.926 399.38 147.947 397.93 147.99C396.479 147.99 395.306 148.032 394.41 148.118V146.838C395.86 146.752 396.948 146.582 397.674 146.326C398.442 146.07 398.954 145.558 399.21 144.79C399.466 144.022 399.594 142.87 399.594 141.334V109.59C399.594 108.011 399.466 106.859 399.21 106.134C398.954 105.366 398.442 104.854 397.674 104.598C396.948 104.299 395.86 104.128 394.41 104.086V102.806C395.988 102.848 397.652 102.891 399.402 102.934C401.151 102.934 402.879 102.955 404.586 102.998C406.292 102.998 407.871 102.998 409.322 102.998C410.815 102.998 412.031 102.998 412.97 102.998C414.932 102.998 417.151 102.998 419.626 102.998C422.143 102.955 424.383 102.891 426.346 102.806ZM416.426 125.334C416.426 125.334 416.426 125.547 416.426 125.974C416.426 126.4 416.426 126.614 416.426 126.614H403.626C403.626 126.614 403.626 126.4 403.626 125.974C403.626 125.547 403.626 125.334 403.626 125.334H416.426ZM417.642 116.886C417.471 119.318 417.386 121.174 417.386 122.454C417.428 123.734 417.45 124.907 417.45 125.974C417.45 127.04 417.471 128.214 417.514 129.494C417.556 130.774 417.663 132.63 417.834 135.062H416.362C416.191 133.696 415.978 132.374 415.722 131.094C415.508 129.771 414.996 128.704 414.186 127.894C413.418 127.04 412.095 126.614 410.218 126.614V125.334C411.626 125.334 412.692 125.056 413.418 124.502C414.186 123.904 414.74 123.158 415.082 122.262C415.423 121.366 415.658 120.448 415.786 119.51C415.914 118.528 416.042 117.654 416.17 116.886H417.642ZM437.311 99.1577C438.421 99.1577 439.381 99.563 440.191 100.374C441.002 101.184 441.407 102.144 441.407 103.254C441.407 104.363 441.002 105.323 440.191 106.134C439.381 106.944 438.421 107.35 437.311 107.35C436.202 107.35 435.242 106.944 434.431 106.134C433.621 105.323 433.215 104.363 433.215 103.254C433.215 102.144 433.621 101.184 434.431 100.374C435.242 99.563 436.202 99.1577 437.311 99.1577ZM440.639 114.454V142.166C440.639 143.958 441.002 145.174 441.727 145.814C442.495 146.454 443.754 146.774 445.503 146.774V148.118C444.778 148.075 443.669 148.032 442.175 147.99C440.725 147.904 439.253 147.862 437.759 147.862C436.309 147.862 434.837 147.904 433.343 147.99C431.85 148.032 430.741 148.075 430.015 148.118V146.774C431.765 146.774 433.002 146.454 433.727 145.814C434.495 145.174 434.879 143.958 434.879 142.166V122.134C434.879 120.214 434.538 118.806 433.855 117.91C433.173 116.971 431.893 116.502 430.015 116.502V115.158C431.381 115.286 432.703 115.35 433.983 115.35C435.221 115.35 436.394 115.286 437.503 115.158C438.655 114.987 439.701 114.752 440.639 114.454ZM470.269 114.262C471.891 114.262 473.235 114.475 474.301 114.902C475.411 115.328 476.328 115.926 477.053 116.694C477.864 117.547 478.44 118.614 478.781 119.894C479.123 121.174 479.293 122.902 479.293 125.078V142.166C479.293 143.958 479.656 145.174 480.381 145.814C481.149 146.454 482.408 146.774 484.157 146.774V148.118C483.432 148.075 482.323 148.032 480.829 147.99C479.336 147.904 477.885 147.862 476.477 147.862C475.069 147.862 473.683 147.904 472.317 147.99C470.995 148.032 469.992 148.075 469.309 148.118V146.774C470.845 146.774 471.933 146.454 472.573 145.814C473.213 145.174 473.533 143.958 473.533 142.166V123.67C473.533 122.347 473.427 121.131 473.213 120.022C473 118.912 472.509 118.016 471.741 117.334C471.016 116.651 469.885 116.31 468.349 116.31C466.557 116.31 464.979 116.822 463.613 117.846C462.291 118.87 461.245 120.278 460.477 122.07C459.752 123.819 459.389 125.782 459.389 127.958V142.166C459.389 143.958 459.709 145.174 460.349 145.814C460.989 146.454 462.077 146.774 463.613 146.774V148.118C462.931 148.075 461.907 148.032 460.541 147.99C459.219 147.904 457.853 147.862 456.445 147.862C455.037 147.862 453.587 147.904 452.093 147.99C450.6 148.032 449.491 148.075 448.765 148.118V146.774C450.515 146.774 451.752 146.454 452.477 145.814C453.245 145.174 453.629 143.958 453.629 142.166V122.134C453.629 120.214 453.288 118.806 452.605 117.91C451.923 116.971 450.643 116.502 448.765 116.502V115.158C450.131 115.286 451.453 115.35 452.733 115.35C453.971 115.35 455.144 115.286 456.253 115.158C457.405 114.987 458.451 114.752 459.389 114.454V122.006C460.499 119.104 462.035 117.099 463.997 115.99C466.003 114.838 468.093 114.262 470.269 114.262ZM516.073 97.9417V141.142C516.073 143.062 516.414 144.491 517.097 145.43C517.822 146.326 519.102 146.774 520.937 146.774V148.118C519.614 147.99 518.291 147.926 516.969 147.926C515.731 147.926 514.537 147.99 513.385 148.118C512.275 148.246 511.251 148.48 510.313 148.822V105.622C510.313 103.702 509.971 102.294 509.289 101.398C508.606 100.459 507.326 99.9897 505.449 99.9897V98.6457C506.814 98.7737 508.137 98.8377 509.417 98.8377C510.654 98.8377 511.827 98.7737 512.937 98.6457C514.089 98.475 515.134 98.2403 516.073 97.9417ZM502.633 114.262C504.51 114.262 506.259 114.71 507.881 115.606C509.545 116.502 510.654 118.038 511.209 120.214L510.377 120.854C509.779 119.062 508.841 117.76 507.561 116.95C506.323 116.139 504.851 115.734 503.145 115.734C500.627 115.734 498.515 117.035 496.809 119.638C495.145 122.24 494.334 126.251 494.377 131.67C494.377 135.126 494.697 138.006 495.337 140.31C496.019 142.571 497.001 144.278 498.281 145.43C499.603 146.539 501.203 147.094 503.081 147.094C504.873 147.094 506.494 146.326 507.945 144.79C509.395 143.254 510.27 140.992 510.569 138.006L511.337 138.902C510.995 142.144 509.95 144.64 508.201 146.39C506.494 148.139 504.169 149.014 501.225 149.014C498.579 149.014 496.254 148.374 494.249 147.094C492.286 145.814 490.771 143.894 489.705 141.334C488.681 138.774 488.169 135.552 488.169 131.67C488.169 127.787 488.83 124.566 490.153 122.006C491.518 119.403 493.289 117.462 495.465 116.182C497.683 114.902 500.073 114.262 502.633 114.262ZM539.692 114.262C543.447 114.262 546.37 115.414 548.46 117.718C550.594 119.979 551.66 123.52 551.66 128.342H529.068L529.004 127.126H545.516C545.602 125.035 545.431 123.115 545.004 121.366C544.578 119.574 543.895 118.144 542.956 117.078C542.06 116.011 540.887 115.478 539.436 115.478C537.474 115.478 535.724 116.459 534.188 118.422C532.695 120.384 531.799 123.499 531.5 127.766L531.692 128.022C531.607 128.662 531.543 129.366 531.5 130.134C531.458 130.902 531.436 131.67 531.436 132.438C531.436 135.339 531.906 137.835 532.844 139.926C533.783 142.016 534.999 143.616 536.492 144.726C538.028 145.792 539.607 146.326 541.228 146.326C542.508 146.326 543.724 146.134 544.876 145.75C546.028 145.323 547.095 144.64 548.076 143.702C549.058 142.763 549.911 141.504 550.636 139.926L551.916 140.438C551.447 141.846 550.679 143.211 549.612 144.534C548.546 145.856 547.202 146.944 545.58 147.798C543.959 148.608 542.082 149.014 539.948 149.014C536.876 149.014 534.231 148.31 532.012 146.902C529.836 145.494 528.151 143.552 526.956 141.078C525.804 138.56 525.228 135.68 525.228 132.438C525.228 128.683 525.826 125.462 527.02 122.774C528.215 120.043 529.9 117.952 532.076 116.502C534.252 115.008 536.791 114.262 539.692 114.262ZM576.419 114.262C577.571 114.262 578.574 114.496 579.427 114.966C580.323 115.435 581.006 116.054 581.475 116.822C581.987 117.547 582.243 118.379 582.243 119.318C582.243 120.384 581.902 121.323 581.219 122.134C580.579 122.944 579.705 123.35 578.595 123.35C577.699 123.35 576.91 123.072 576.227 122.518C575.545 121.92 575.203 121.088 575.203 120.022C575.203 119.211 575.417 118.528 575.843 117.974C576.313 117.376 576.825 116.907 577.379 116.566C577.081 116.139 576.633 115.926 576.035 115.926C574.713 115.926 573.497 116.331 572.387 117.142C571.278 117.91 570.339 118.912 569.571 120.15C568.803 121.387 568.206 122.71 567.779 124.118C567.353 125.483 567.139 126.763 567.139 127.958V141.526C567.139 143.616 567.737 145.024 568.931 145.75C570.169 146.432 571.833 146.774 573.923 146.774V148.118C572.942 148.075 571.555 148.032 569.763 147.99C567.971 147.904 566.073 147.862 564.067 147.862C562.617 147.862 561.166 147.904 559.715 147.99C558.307 148.032 557.241 148.075 556.515 148.118V146.774C558.265 146.774 559.502 146.454 560.227 145.814C560.995 145.174 561.379 143.958 561.379 142.166V122.134C561.379 120.214 561.038 118.806 560.355 117.91C559.673 116.971 558.393 116.502 556.515 116.502V115.158C557.881 115.286 559.203 115.35 560.483 115.35C561.721 115.35 562.894 115.286 564.003 115.158C565.155 114.987 566.201 114.752 567.139 114.454V122.454C567.609 121.216 568.27 119.979 569.123 118.742C570.019 117.462 571.086 116.395 572.323 115.542C573.561 114.688 574.926 114.262 576.419 114.262ZM588.848 140.822C589.958 140.822 590.918 141.227 591.728 142.038C592.539 142.848 592.944 143.808 592.944 144.918C592.944 146.027 592.539 146.987 591.728 147.798C590.918 148.608 589.958 149.014 588.848 149.014C587.739 149.014 586.779 148.608 585.968 147.798C585.158 146.987 584.752 146.027 584.752 144.918C584.752 143.808 585.158 142.848 585.968 142.038C586.779 141.227 587.739 140.822 588.848 140.822Z" fill="url(#paint0_linear_85_452)"/>
<path d="M155.145 156.125C161.14 152.669 167.94 150.85 174.862 150.85C181.785 150.85 188.585 152.669 194.58 156.125C200.575 152.669 207.375 150.85 214.297 150.85C221.219 150.85 228.02 152.669 234.014 156.125M155.145 99.2499C161.14 95.794 167.94 93.9746 174.862 93.9746C181.785 93.9746 188.585 95.794 194.58 99.2499C200.575 95.794 207.375 93.9746 214.297 93.9746C221.219 93.9746 228.02 95.794 234.014 99.2499M155.145 99.2499V156.125ZM194.58 99.2499V156.125ZM234.014 99.2499V156.125Z" fill="url(#paint1_linear_85_452)"/>
<path d="M194.58 156.125C188.585 152.669 181.785 150.85 174.862 150.85C167.94 150.85 161.14 152.669 155.145 156.125V99.2499C161.14 95.794 167.94 93.9746 174.862 93.9746C181.785 93.9746 188.585 95.794 194.58 99.2499M194.58 156.125C200.575 152.669 207.375 150.85 214.297 150.85C221.219 150.85 228.02 152.669 234.014 156.125V99.2499C228.02 95.794 221.219 93.9746 214.297 93.9746C207.375 93.9746 200.575 95.794 194.58 99.2499M194.58 156.125V99.2499" stroke="#FF686B" stroke-width="2" stroke-linecap="round" stroke-linejoin="round"/>
<defs>
<linearGradient id="paint0_linear_85_452" x1="422.159" y1="79.1177" x2="422.159" y2="164.118" gradientUnits="userSpaceOnUse">
<stop stop-color="#FF686B"/>
<stop offset="1" stop-color="#FB3464"/>
</linearGradient>
<linearGradient id="paint1_linear_85_452" x1="194.58" y1="93.9746" x2="194.58" y2="156.125" gradientUnits="userSpaceOnUse">
<stop stop-color="#FF686B"/>
<stop offset="1" stop-color="#FB3464"/>
</linearGradient>
</defs>
</svg>
