<svg width="786" height="815" fill="none" xmlns="http://www.w3.org/2000/svg"><g clip-path="url('#clip0_14_24741')"><path opacity=".8" d="M1126.1 111.237S983.254 47.714 824.5 27C665.746 6.286 626.046 31 509.15 82.784c-61.183 27.1-131.074 16.566-196.023 29.689C105.398 154.431 27.241 417.3 113.751 566.801c74.891 129.463 206.671 196.725 407.371 212.261 200.7 15.535 341.481 33.631 521.238-93.185 179.75-126.815 167.72-390.861 83.74-574.64Z" fill="#FFE3E3"/><path d="M794.874 216.318s-47.267-91.865-151.645-105.481c-104.378-13.615-177.135 52.741-253.992 86.779-40.227 17.812-86.179 10.888-128.882 19.514-136.579 27.579-187.966 200.362-131.087 298.629 49.24 85.096 135.883 129.307 267.84 139.519 131.957 10.211 224.518 22.105 342.705-61.25C858 510.672 850.089 337.115 794.874 216.318Z" fill="#FF686B"/><path opacity=".8" d="M794.874 216.318s-47.267-91.865-151.645-105.481c-104.378-13.615-177.135 52.741-253.992 86.779-40.227 17.812-86.179 10.888-128.882 19.514-136.579 27.579-187.966 200.362-131.087 298.629 49.24 85.096 135.883 129.307 267.84 139.519 131.957 10.211 224.518 22.105 342.705-61.25C858 510.672 850.089 337.115 794.874 216.318Z" fill="#fff"/><path d="M649.263 609.384c-5.415 13.403-10.985 2.63-10.096-53.514.407-26.322 2.263-80.087 31.37-68.251 27.946 11.372-8.897 90.898-8.897 90.898l-12.377 30.867Zm39.976 7.968s60.669-63.222 37.925-83.065c-23.691-20.636-42.896 29.609-51.85 54.364-19.069 52.818-17.29 64.809-7.736 53.92l21.661-25.219Zm12.803 56.744s55.544-39.551 41.02-58.02c-15.124-19.205-37.094 16.419-47.518 34.057-22.222 37.617-22.609 47.055-13.79 40.092l20.288-16.129Zm15.027 56.569s55.544-39.55 41.02-58.02c-15.104-19.224-37.075 16.42-47.499 34.038-22.241 37.617-22.628 47.055-13.789 40.092l20.268-16.11Zm-97.01-113.719s-77.727-40.459-90.356-13.055c-13.171 28.546 40.459 32.878 66.723 34.484 56.086 3.442 67.071-1.625 53.939-7.736l-30.306-13.693Zm10.947 44.482s-84.206-24.214-91.149 5.164c-7.234 30.615 46.145 24.194 72.254 20.558 55.622-7.736 65.408-14.911 51.347-18.218l-32.452-7.504Zm19.34 48.543s-71.79-18.508-76.973 6.498c-5.396 26.013 39.627 19.34 61.578 15.666 46.861-7.833 54.965-14.118 42.993-16.594l-27.598-5.57Zm11.236 40.092s-69.411-26.032-77.224-1.721c-8.142 25.316 37.345 23.459 59.567 22.125 47.422-2.824 56.086-8.2 44.482-11.933l-26.825-8.471Zm-46.416-203.07s-31.678-98.479-67.69-80.59c-37.442 18.625 5.802 63.029 27.444 84.284 46.164 45.372 60.457 48.543 54.384 32.704l-14.138-36.398Z" fill="#FF686B"/><path opacity=".65" d="M649.263 609.384c-5.415 13.403-10.985 2.63-10.096-53.514.407-26.322 2.263-80.087 31.37-68.251 27.946 11.372-8.897 90.898-8.897 90.898l-12.377 30.867Zm39.976 7.968s60.669-63.222 37.925-83.065c-23.691-20.636-42.896 29.609-51.85 54.364-19.069 52.818-17.29 64.809-7.736 53.92l21.661-25.219Zm12.803 56.744s55.544-39.551 41.02-58.02c-15.124-19.205-37.094 16.419-47.518 34.057-22.222 37.617-22.609 47.055-13.79 40.092l20.288-16.129Zm15.027 56.569s55.544-39.55 41.02-58.02c-15.104-19.224-37.075 16.42-47.499 34.038-22.241 37.617-22.628 47.055-13.789 40.092l20.268-16.11Zm-97.01-113.719s-77.727-40.459-90.356-13.055c-13.171 28.546 40.459 32.878 66.723 34.484 56.086 3.442 67.071-1.625 53.939-7.736l-30.306-13.693Zm10.947 44.482s-84.206-24.214-91.149 5.164c-7.234 30.615 46.145 24.194 72.254 20.558 55.622-7.736 65.408-14.911 51.347-18.218l-32.452-7.504Zm19.34 48.543s-71.79-18.508-76.973 6.498c-5.396 26.013 39.627 19.34 61.578 15.666 46.861-7.833 54.965-14.118 42.993-16.594l-27.598-5.57Zm11.236 40.092s-69.411-26.032-77.224-1.721c-8.142 25.316 37.345 23.459 59.567 22.125 47.422-2.824 56.086-8.2 44.482-11.933l-26.825-8.471Zm-46.416-203.07s-31.678-98.479-67.69-80.59c-37.442 18.625 5.802 63.029 27.444 84.284 46.164 45.372 60.457 48.543 54.384 32.704l-14.138-36.398Z" fill="#fff"/><path d="M700.785 819.3a1.218 1.218 0 0 1-1.199-1.141c-2.921-51.463-17.406-113.603-39.647-170.482-18.76-47.886-97.629-144.412-98.441-145.379a1.221 1.221 0 0 1 .174-1.702 1.19 1.19 0 0 1 1.34-.129 1.2 1.2 0 0 1 .362.303c.793.967 79.932 97.803 98.828 146.017 22.434 57.189 36.881 119.522 39.84 171.295a1.216 1.216 0 0 1-1.141 1.276l-.116-.058Z" fill="#CCC"/><path d="M645.221 616.733h-.136a1.215 1.215 0 0 1-1.063-1.354l11.062-92.599c.039-.318.202-.608.454-.806a1.207 1.207 0 0 1 1.944 1.096l-11.062 92.6a1.221 1.221 0 0 1-1.199 1.063ZM661.061 648.451a1.381 1.381 0 0 1-.542-.136 1.23 1.23 0 0 1-.655-1.186c.014-.16.059-.315.133-.458l40.111-77.824a1.213 1.213 0 0 1 1.21-.773 1.202 1.202 0 0 1 .881.46 1.214 1.214 0 0 1 .245.963c-.029.169-.094.33-.189.472l-40.111 77.921a1.237 1.237 0 0 1-1.083.561ZM655.22 636.905h-.233l-83.858-17.077a1.218 1.218 0 1 1 .484-2.379l83.858 17.077a1.217 1.217 0 0 1 .928 1.431 1.2 1.2 0 0 1-1.179.948ZM676.9 692.604a1.21 1.21 0 0 1-1.027-.698 1.215 1.215 0 0 1 .118-1.236l49.259-56.318a1.213 1.213 0 0 1 .827-.411 1.208 1.208 0 0 1 .991 1.997L677.77 692.12a1.239 1.239 0 0 1-.87.484ZM669.937 674.096l-63.299-.542a1.216 1.216 0 0 1-1.2-1.218c.01-.318.143-.621.369-.844.227-.223.532-.35.85-.355l63.3.541a1.219 1.219 0 0 1 1.106 1.682 1.203 1.203 0 0 1-1.126.736ZM633.578 721.981a1.217 1.217 0 0 1-1.218-1.179 1.24 1.24 0 0 1 1.16-1.257l48.544-1.934a1.215 1.215 0 0 1 1.257 1.16 1.2 1.2 0 0 1-1.16 1.257l-48.544 1.934-.039.019ZM692.082 749.386a1.122 1.122 0 0 1-.716-.251 1.217 1.217 0 0 1-.251-1.702l25.993-34.638a1.213 1.213 0 0 1 1.701-.252 1.196 1.196 0 0 1 .233 1.702l-25.993 34.658a1.223 1.223 0 0 1-.967.483ZM693.996 762.267l-56.762-2.824a1.21 1.21 0 0 1-.845-.398 1.207 1.207 0 0 1-.316-.879 1.22 1.22 0 0 1 1.277-1.141l56.782 2.824a1.198 1.198 0 0 1 1.141 1.257 1.215 1.215 0 0 1-.806 1.09c-.15.055-.31.078-.471.071Z" fill="#CCC"/><path d="M802.339 686.086c-9.805 3.694-6.807-4.564 23.498-31.698 14.196-12.706 43.709-38.158 51.716-16.864 7.735 20.462-52.702 39.937-52.702 39.937l-22.512 8.625Zm15.472 25.143s63.435 1.199 62.817-20.656c-.658-22.743-36.843-8.258-54.404-.851-37.461 15.821-42.973 22.648-32.51 22.338l24.097-.831Zm-23.962 34.715s48.35 10.115 51.019-6.692c2.804-17.406-26.96-11.604-41.465-8.529-30.944 6.672-36.147 11.101-28.101 12.378l18.547 2.843Zm-22.705 35.817s48.35 10.096 51.019-6.691c2.804-17.406-26.96-11.604-41.465-8.548-30.944 6.672-36.147 11.101-28.101 12.377l18.547 2.862Zm12.822-107.511s-16.69-61.172-37.442-54.48c-21.641 7.02 2.418 37.674 14.466 52.43 25.723 31.525 33.826 34.812 30.577 24.93l-7.601-22.88Zm-18.315 27.792s-28.526-56.705-47.557-45.952c-19.804 11.14 9.864 36.282 24.562 48.447 31.466 25.78 40.092 27.463 34.928 18.354l-11.933-20.849Zm-16.342 34.116s-25.432-47.287-41.291-37.752c-16.497 9.921 9.187 30.596 21.932 40.459 27.211 21.062 34.522 22.299 29.957 14.718l-10.598-17.425Zm-15.801 25.683s-20.268-49.723-37.055-41.929c-17.406 8.123 5.898 31.389 17.522 42.548 24.813 23.827 31.969 25.838 28.217 17.812l-8.684-18.431Zm85.096-124.53s36.746-65.272 9.67-75.6c-28.314-10.772-30.673 34.058-31.331 56.086-1.45 46.841 3.868 56.086 9.322 44.985l12.339-25.471Z" fill="#FF686B"/><path opacity=".65" d="M802.339 686.086c-9.805 3.694-6.807-4.564 23.498-31.698 14.196-12.706 43.709-38.158 51.716-16.864 7.735 20.462-52.702 39.937-52.702 39.937l-22.512 8.625Zm15.472 25.143s63.435 1.199 62.817-20.656c-.658-22.743-36.843-8.258-54.404-.851-37.461 15.821-42.973 22.648-32.51 22.338l24.097-.831Zm-23.962 34.715s48.35 10.115 51.019-6.692c2.804-17.406-26.96-11.604-41.465-8.529-30.944 6.672-36.147 11.101-28.101 12.378l18.547 2.843Zm-22.705 35.817s48.35 10.096 51.019-6.691c2.804-17.406-26.96-11.604-41.465-8.548-30.944 6.672-36.147 11.101-28.101 12.377l18.547 2.862Zm12.822-107.511s-16.69-61.172-37.442-54.48c-21.641 7.02 2.418 37.674 14.466 52.43 25.723 31.525 33.826 34.812 30.577 24.93l-7.601-22.88Zm-18.315 27.792s-28.526-56.705-47.557-45.952c-19.804 11.14 9.864 36.282 24.562 48.447 31.466 25.78 40.092 27.463 34.928 18.354l-11.933-20.849Zm-16.342 34.116s-25.432-47.287-41.291-37.752c-16.497 9.921 9.187 30.596 21.932 40.459 27.211 21.062 34.522 22.299 29.957 14.718l-10.598-17.425Zm-15.801 25.683s-20.268-49.723-37.055-41.929c-17.406 8.123 5.898 31.389 17.522 42.548 24.813 23.827 31.969 25.838 28.217 17.812l-8.684-18.431Zm85.096-124.53s36.746-65.272 9.67-75.6c-28.314-10.772-30.673 34.058-31.331 56.086-1.45 46.841 3.868 56.086 9.322 44.985l12.339-25.471Z" fill="#E5E5E5"/><path d="M714.188 820.016a1.167 1.167 0 0 1-.832-.329 1.217 1.217 0 0 1 0-1.721c26.554-27.463 54.751-68.676 73.589-107.55 16.226-33.458 28.797-122.809 28.913-123.776a1.238 1.238 0 0 1 1.373-1.044 1.22 1.22 0 0 1 1.025 1.373c-.116.909-12.745 90.627-29.126 124.434-18.953 39.066-47.325 80.531-74.033 108.168a1.166 1.166 0 0 1-.909.445Z" fill="#CCC"/><path d="M791.258 703.377a1.165 1.165 0 0 1-1.025-.581l-32.105-52.972a1.193 1.193 0 0 1-.146-.917 1.206 1.206 0 0 1 1.467-.884c.312.076.58.271.749.544l32.123 52.992a1.217 1.217 0 0 1-.406 1.663 1.104 1.104 0 0 1-.657.155ZM772.246 742.25a1.22 1.22 0 0 1-.761-2.014c.196-.223.467-.366.761-.404l54.152-1.392a1.258 1.258 0 0 1 1.257 1.18 1.22 1.22 0 0 1-1.18 1.237l-54.152 1.393h-.077ZM778.705 729.486a1.224 1.224 0 0 1-.889-.387l-30.828-33.942a1.234 1.234 0 0 1 0-1.721 1.211 1.211 0 0 1 .881-.309 1.228 1.228 0 0 1 .84.406l30.828 33.941a1.211 1.211 0 0 1 .118 1.236 1.218 1.218 0 0 1-1.027.698l.077.078ZM760.255 758.553a1.189 1.189 0 0 1-.851-.348l-24.89-24.871a1.215 1.215 0 0 1 .039-1.682 1.219 1.219 0 0 1 1.682-.039l24.871 24.871a1.218 1.218 0 0 1-.851 2.069ZM749.561 778.28a1.218 1.218 0 0 1-.136-2.417l31.215-3.211a1.216 1.216 0 0 1 1.25 1.092 1.22 1.22 0 0 1-.999 1.326l-31.214 3.21h-.116ZM743.642 785.629a1.19 1.19 0 0 1-.986-.425l-26.419-31.582a1.217 1.217 0 0 1 .569-1.931 1.203 1.203 0 0 1 1.288.383l26.496 31.563a1.219 1.219 0 0 1-.948 1.992Z" fill="#CCC"/><path d="M335.529 609.384c5.416 13.403 10.986 2.63 10.115-53.514-.425-26.322-2.282-80.087-31.389-68.251-27.946 11.372 8.897 90.898 8.897 90.898l12.377 30.867Zm-39.975 7.968s-60.67-63.222-37.926-83.065c23.691-20.636 42.915 29.609 51.85 54.364 19.07 52.818 17.29 64.809 7.736 53.92l-21.66-25.219Zm-12.803 56.744s-55.545-39.551-41.021-58.02c15.124-19.205 37.095 16.419 47.519 34.057 22.221 37.617 22.608 47.055 13.789 40.092l-20.287-16.129Zm-15.028 56.569s-55.544-39.55-41.02-58.02c15.105-19.224 37.075 16.42 47.499 34.039 22.241 37.616 22.628 47.054 13.79 40.091l-20.269-16.11Zm97.01-113.719s77.727-40.459 90.356-13.055c13.171 28.546-40.459 32.878-66.723 34.484-56.086 3.442-67.071-1.625-53.939-7.736l30.306-13.693Zm-10.947 44.482s84.226-24.214 91.15 5.164c7.233 30.576-46.184 24.155-72.254 20.519-55.622-7.736-65.408-14.911-51.329-18.218l32.433-7.465Zm-19.34 48.543s71.79-18.508 76.974 6.499c5.395 26.012-39.628 19.34-61.579 15.665-46.861-7.833-54.964-14.118-42.993-16.594l27.598-5.57Zm-11.236 40.092s69.392-25.993 77.283-1.605c8.142 25.316-37.346 23.459-59.568 22.125-47.421-2.824-56.086-8.2-44.482-11.933l26.767-8.587Zm46.416-203.07s31.698-98.479 67.69-80.59c37.442 18.625-5.802 63.029-27.444 84.284-46.164 45.372-60.456 48.543-54.364 32.704l14.118-36.398Z" fill="#FF686B"/><path opacity=".65" d="M335.529 609.384c5.416 13.403 10.986 2.63 10.115-53.514-.425-26.322-2.282-80.087-31.389-68.251-27.946 11.372 8.897 90.898 8.897 90.898l12.377 30.867Zm-39.975 7.968s-60.67-63.222-37.926-83.065c23.691-20.636 42.915 29.609 51.85 54.364 19.07 52.818 17.29 64.809 7.736 53.92l-21.66-25.219Zm-12.803 56.744s-55.545-39.551-41.021-58.02c15.124-19.205 37.095 16.419 47.519 34.057 22.221 37.617 22.608 47.055 13.789 40.092l-20.287-16.129Zm-15.028 56.569s-55.544-39.55-41.02-58.02c15.105-19.224 37.075 16.42 47.499 34.039 22.241 37.616 22.628 47.054 13.79 40.091l-20.269-16.11Zm97.01-113.719s77.727-40.459 90.356-13.055c13.171 28.546-40.459 32.878-66.723 34.484-56.086 3.442-67.071-1.625-53.939-7.736l30.306-13.693Zm-10.947 44.482s84.226-24.214 91.15 5.164c7.233 30.576-46.184 24.155-72.254 20.519-55.622-7.736-65.408-14.911-51.329-18.218l32.433-7.465Zm-19.34 48.543s71.79-18.508 76.974 6.499c5.395 26.012-39.628 19.34-61.579 15.665-46.861-7.833-54.964-14.118-42.993-16.594l27.598-5.57Zm-11.236 40.092s69.392-25.993 77.283-1.605c8.142 25.316-37.346 23.459-59.568 22.125-47.421-2.824-56.086-8.2-44.482-11.933l26.767-8.587Zm46.416-203.07s31.698-98.479 67.69-80.59c37.442 18.625-5.802 63.029-27.444 84.284-46.164 45.372-60.456 48.543-54.364 32.704l14.118-36.398Z" fill="#fff"/><path d="M284.008 819.3a1.22 1.22 0 0 1-1.141-1.276c2.92-51.715 17.406-114.106 39.821-171.237 18.876-48.214 98.015-145.05 98.808-146.017a1.2 1.2 0 0 1 1.702-.174 1.22 1.22 0 0 1 .174 1.702c-.793.967-79.681 97.513-98.441 145.379-22.279 56.879-36.746 119.018-39.647 170.482a1.22 1.22 0 0 1-1.276 1.141Z" fill="#CCC"/><path d="M339.572 616.733a1.218 1.218 0 0 1-1.2-1.063l-11.062-92.6a1.21 1.21 0 0 1 1.054-1.344 1.209 1.209 0 0 1 1.344 1.054l11.063 92.599a1.22 1.22 0 0 1-1.064 1.354h-.135ZM323.732 648.451a1.238 1.238 0 0 1-1.083-.658l-40.033-77.824a1.223 1.223 0 0 1-.08-.93c.048-.153.126-.295.23-.417.103-.123.229-.224.372-.297a1.256 1.256 0 0 1 1.644.522l40.014 77.824a1.227 1.227 0 0 1 .08.931 1.23 1.23 0 0 1-.602.713c-.17.081-.354.128-.542.136ZM329.573 636.905a1.202 1.202 0 0 1-1.18-.967 1.22 1.22 0 0 1 .948-1.432l83.839-17.077a1.218 1.218 0 1 1 .483 2.379l-83.839 17.077-.251.02ZM307.97 692.604a1.238 1.238 0 0 1-.909-.406l-49.297-56.183a1.198 1.198 0 0 1-.172-1.329 1.205 1.205 0 0 1 1.99-.257l49.297 56.086a1.222 1.222 0 0 1 .118 1.237 1.214 1.214 0 0 1-1.027.697v.155ZM314.875 674.095a1.195 1.195 0 0 1-1.219-1.199 1.218 1.218 0 0 1 1.199-1.218l63.3-.542a1.214 1.214 0 0 1 .861.345 1.191 1.191 0 0 1 .358.855 1.22 1.22 0 0 1-1.2 1.218l-63.299.541ZM351.214 721.981l-48.543-1.934a1.217 1.217 0 0 1 .097-2.417l48.543 1.934a1.238 1.238 0 0 1 1.16 1.257 1.218 1.218 0 0 1-1.257 1.16ZM292.711 749.386a1.22 1.22 0 0 1-.967-.483l-25.993-34.658a1.196 1.196 0 0 1-.243-.9 1.196 1.196 0 0 1 .475-.802 1.218 1.218 0 0 1 1.702.252l25.993 34.638a1.218 1.218 0 0 1-.251 1.702 1.126 1.126 0 0 1-.716.251ZM290.816 762.267a1.22 1.22 0 0 1-1.15-1.624 1.194 1.194 0 0 1 1.072-.794l56.782-2.824a1.186 1.186 0 0 1 1.167.679c.068.145.105.302.11.463a1.21 1.21 0 0 1-.316.878 1.196 1.196 0 0 1-.382.283 1.196 1.196 0 0 1-.462.115l-56.763 2.824h-.058Z" fill="#CCC"/><path d="M182.473 686.086c9.786 3.694 6.788-4.564-23.518-31.698-14.195-12.706-43.708-38.158-51.715-16.864-7.736 20.462 52.702 39.937 52.702 39.937l22.531 8.625Zm-15.472 25.143s-63.455 1.199-62.836-20.656c.677-22.743 36.746-8.258 54.404-.851 37.461 15.821 42.973 22.648 32.529 22.338l-24.097-.831Zm23.943 34.715s-48.35 10.115-51.019-6.692c-2.785-17.406 26.96-11.604 41.465-8.529 30.944 6.672 36.146 11.101 28.101 12.378l-18.547 2.843Zm22.705 35.817s-48.35 10.096-51.019-6.691c-2.804-17.406 26.96-11.604 41.465-8.548 30.944 6.672 36.146 11.101 28.101 12.377l-18.547 2.862ZM200.826 674.25s16.691-61.23 37.481-54.48c21.642 7.02-2.417 37.674-14.466 52.43-25.722 31.525-33.826 34.812-30.576 24.93l7.561-22.88Zm18.315 27.792s28.527-56.705 47.558-45.952c19.823 11.198-9.864 36.437-24.601 48.524-31.466 25.78-40.092 27.463-34.928 18.354l11.971-20.926Zm16.343 34.116s25.432-47.287 41.291-37.752c16.497 9.921-9.187 30.596-21.932 40.459-27.211 21.062-34.522 22.299-29.958 14.718l10.599-17.425Zm15.801 25.683s20.268-49.723 37.055-41.929c17.406 8.123-5.899 31.389-17.522 42.548-24.813 23.827-31.969 25.838-28.217 17.812l8.684-18.431Zm-85.096-124.53s-36.746-65.272-9.67-75.6c28.313-10.772 30.673 34.058 31.35 56.086 1.431 46.841-3.868 56.086-9.342 44.985l-12.338-25.471Z" fill="#FF686B"/><path opacity=".65" d="M182.473 686.086c9.786 3.694 6.788-4.564-23.518-31.698-14.195-12.706-43.708-38.158-51.715-16.864-7.736 20.462 52.702 39.937 52.702 39.937l22.531 8.625Zm-15.472 25.143s-63.455 1.199-62.836-20.656c.677-22.743 36.746-8.258 54.404-.851 37.461 15.821 42.973 22.648 32.529 22.338l-24.097-.831Zm23.943 34.715s-48.35 10.115-51.019-6.692c-2.785-17.406 26.96-11.604 41.465-8.529 30.944 6.672 36.146 11.101 28.101 12.378l-18.547 2.843Zm22.705 35.817s-48.35 10.096-51.019-6.691c-2.804-17.406 26.96-11.604 41.465-8.548 30.944 6.672 36.146 11.101 28.101 12.377l-18.547 2.862ZM200.826 674.25s16.691-61.23 37.481-54.48c21.642 7.02-2.417 37.674-14.466 52.43-25.722 31.525-33.826 34.812-30.576 24.93l7.561-22.88Zm18.315 27.792s28.527-56.705 47.558-45.952c19.823 11.198-9.864 36.437-24.601 48.524-31.466 25.78-40.092 27.463-34.928 18.354l11.971-20.926Zm16.343 34.116s25.432-47.287 41.291-37.752c16.497 9.921-9.187 30.596-21.932 40.459-27.211 21.062-34.522 22.299-29.958 14.718l10.599-17.425Zm15.801 25.683s20.268-49.723 37.055-41.929c17.406 8.123-5.899 31.389-17.522 42.548-24.813 23.827-31.969 25.838-28.217 17.812l8.684-18.431Zm-85.096-124.53s-36.746-65.272-9.67-75.6c28.313-10.772 30.673 34.058 31.35 56.086 1.431 46.841-3.868 56.086-9.342 44.985l-12.338-25.471Z" fill="#E5E5E5"/><path d="M270.605 820.016a1.178 1.178 0 0 1-.87-.368c-26.709-27.636-55.081-69.082-74.034-108.168-16.381-33.806-29.01-123.525-29.126-124.434a1.22 1.22 0 0 1 1.025-1.373 1.239 1.239 0 0 1 1.373 1.044c.116.89 12.687 90.26 28.914 123.776 18.837 38.874 47.035 80.087 73.588 107.55a1.22 1.22 0 0 1 0 1.721 1.138 1.138 0 0 1-.87.252Z" fill="#CCC"/><path d="M187.714 688.156a1.22 1.22 0 0 1-.716-.232l-54.693-39.628a1.213 1.213 0 0 1-.633-1.329 1.22 1.22 0 0 1 2.064-.605l54.693 39.608a1.24 1.24 0 0 1 .271 1.702 1.236 1.236 0 0 1-.986.484ZM196.804 712.157a.91.91 0 0 1-.329 0l-61.095-17a1.213 1.213 0 0 1-.727-.566 1.188 1.188 0 0 1-.114-.914 1.198 1.198 0 0 1 .565-.727 1.217 1.217 0 0 1 .914-.114l61.095 16.942a1.215 1.215 0 0 1 .459 2.058 1.223 1.223 0 0 1-.768.321ZM193.535 703.377a1.142 1.142 0 0 1-.638-.175 1.217 1.217 0 0 1-.406-1.663l32.143-52.991a1.225 1.225 0 0 1 .751-.655 1.217 1.217 0 0 1 1.318 1.912l-32.143 52.991a1.153 1.153 0 0 1-1.025.581ZM212.547 742.25l-54.152-1.393a1.217 1.217 0 0 1-1.18-1.237 1.276 1.276 0 0 1 1.257-1.18l54.152 1.392a1.207 1.207 0 0 1 1.102.772 1.215 1.215 0 0 1-1.179 1.646ZM206.087 729.486a1.205 1.205 0 0 1-1.032-.697 1.201 1.201 0 0 1 .142-1.237l30.751-34.019a1.227 1.227 0 0 1 .841-.406 1.216 1.216 0 0 1 .88.309 1.235 1.235 0 0 1 0 1.721l-30.731 33.961a1.22 1.22 0 0 1-.851.368ZM224.537 758.553a1.22 1.22 0 0 1-.851-2.069l24.872-24.871a1.218 1.218 0 0 1 1.721 1.721l-24.891 24.794a1.2 1.2 0 0 1-.851.425ZM235.232 778.28h-.116l-31.214-3.21a1.22 1.22 0 0 1 .251-2.418l31.215 3.211a1.215 1.215 0 0 1 1.011 1.269 1.217 1.217 0 0 1-1.147 1.148ZM241.15 785.63a1.194 1.194 0 0 1-.773-.291 1.215 1.215 0 0 1-.155-1.701l26.418-31.583a1.203 1.203 0 0 1 1.289-.383 1.217 1.217 0 0 1 .568 1.931l-26.419 31.601a1.199 1.199 0 0 1-.928.426Z" fill="#CCC"/><path d="M567.378 602.828H362.915v41.851h204.463v-41.851Z" fill="#fff"/><path d="M567.377 645.647H362.915a.988.988 0 0 1-.967-.967v-41.852a.967.967 0 0 1 .967-.967h204.462a.967.967 0 0 1 .967.967v41.852a.967.967 0 0 1-.967.967Zm-203.495-1.934H566.41v-39.918H363.882v39.918Z" fill="#263238"/><path d="M400.918 614.644h-35.876a.967.967 0 1 1 0-1.934h35.876a.967.967 0 0 1 0 1.934ZM417.744 626.055h-4.893a.967.967 0 1 1 0-1.934h4.893a.97.97 0 0 1 .684.283.97.97 0 0 1 0 1.368.97.97 0 0 1-.684.283ZM404.728 626.055h-40.246a.967.967 0 0 1-.967-.967.986.986 0 0 1 .967-.967h40.246a.967.967 0 1 1 0 1.934ZM381.887 637.891h-16.555a.969.969 0 0 1 0-1.934h16.555a.967.967 0 1 1 0 1.934Z" fill="#263238"/><path d="M525.41 604.259a76.063 76.063 0 0 0 0 39.453h82.388s-8.664-25.026 0-39.453H525.41Z" fill="#fff"/><path d="M607.798 644.68H525.41a.968.968 0 0 1-.948-.716 78.066 78.066 0 0 1 0-39.995.965.965 0 0 1 .928-.677h82.389a.989.989 0 0 1 .958.985c0 .17-.043.337-.127.485-8.335 13.886 0 38.39 0 38.68a.969.969 0 0 1-.47 1.167.957.957 0 0 1-.439.109l.097-.038Zm-81.654-1.934h80.319c-1.605-5.184-6.846-24.543-.309-37.52h-80.106a76.884 76.884 0 0 0 .096 37.52Z" fill="#263238"/><mask id="mask0_14_24741" style="mask-type:luminance" maskUnits="userSpaceOnUse" x="522" y="604" width="86" height="40"><mask id="mask1_14_24741" style="mask-type:luminance" maskUnits="userSpaceOnUse" x="522" y="604" width="86" height="40"><path d="M525.41 604.259a76.063 76.063 0 0 0 0 39.453h82.388s-8.664-25.026 0-39.453H525.41Z" fill="#fff"/></mask><g mask="url('#mask1_14_24741')"><path d="M607.798 644.68H525.41a.968.968 0 0 1-.948-.716 78.066 78.066 0 0 1 0-39.995.965.965 0 0 1 .928-.677h82.389a.989.989 0 0 1 .958.985c0 .17-.043.337-.127.485-8.335 13.886 0 38.39 0 38.68a.969.969 0 0 1-.47 1.167.957.957 0 0 1-.439.109l.097-.038Zm-81.654-1.934h80.319c-1.605-5.184-6.846-24.543-.309-37.52h-80.106a76.884 76.884 0 0 0 .096 37.52Z" fill="#fff"/></g></mask><g opacity=".24" mask="url('#mask0_14_24741')"><path d="M525.41 604.259a76.063 76.063 0 0 0 0 39.453h82.388s-8.664-25.026 0-39.453H525.41Z" fill="#000"/><path d="M607.798 644.68H525.41a.968.968 0 0 1-.948-.716 78.066 78.066 0 0 1 0-39.995.965.965 0 0 1 .928-.677h82.389a.989.989 0 0 1 .958.985c0 .17-.043.337-.127.485-8.335 13.886 0 38.39 0 38.68a.969.969 0 0 1-.47 1.167.957.957 0 0 1-.439.109l.097-.038Zm-81.654-1.934h80.319c-1.605-5.184-6.846-24.543-.309-37.52h-80.106a76.884 76.884 0 0 0 .096 37.52Z" fill="#263238"/></g><path d="M365.332 636.924v-28.565a2.65 2.65 0 0 1 2.65-2.65h243.162a1.935 1.935 0 0 0 0-3.868H361.406a2.65 2.65 0 0 0-2.649 2.65v36.436a4.262 4.262 0 0 0 1.245 3.035 4.271 4.271 0 0 0 3.029 1.259h248.113a1.93 1.93 0 0 0 1.367-.567 1.93 1.93 0 0 0 0-2.735 1.934 1.934 0 0 0-1.367-.566H369.607a4.291 4.291 0 0 1-3.989-2.749 4.282 4.282 0 0 1-.286-1.68Z" fill="#263238"/><path d="M611.144 646.188H363.031a5.262 5.262 0 0 1-5.241-5.26v-36.572a3.612 3.612 0 0 1 2.232-3.342 3.631 3.631 0 0 1 1.384-.275h249.738a2.982 2.982 0 0 1 2.259.78 2.979 2.979 0 0 1-2.259 5.158H367.982a1.684 1.684 0 0 0-1.683 1.682v28.565a3.328 3.328 0 0 0 3.307 3.327h241.538a2.982 2.982 0 0 1 2.259.779 2.983 2.983 0 0 1 0 4.379 2.978 2.978 0 0 1-2.259.779Zm-249.661-43.515a1.68 1.68 0 0 0-1.682 1.683v36.572a3.327 3.327 0 0 0 3.307 3.326h248.036a1.045 1.045 0 1 0 0-2.069H369.606a5.232 5.232 0 0 1-3.713-1.542 5.238 5.238 0 0 1-1.528-3.719v-28.565a3.617 3.617 0 0 1 3.617-3.616h243.162a1.045 1.045 0 1 0 0-2.07H361.483Z" fill="#263238"/><path d="M567.378 689.2H362.915v41.852h204.463V689.2Z" fill="#fff"/><path d="M567.377 732.019H362.915a.964.964 0 0 1-.967-.967V689.2a.986.986 0 0 1 .967-.967h204.462a.967.967 0 0 1 .967.967v41.852a.967.967 0 0 1-.967.967Zm-203.495-1.934H566.41v-39.918H363.882v39.918Z" fill="#263238"/><path d="M402.272 698.174h-35.934a.97.97 0 0 1-.684-.283.97.97 0 0 1 0-1.368.97.97 0 0 1 .684-.283h35.934a.967.967 0 0 1 0 1.934ZM419.078 709.662h-4.893a.987.987 0 0 1-.967-.967.97.97 0 0 1 .283-.684.97.97 0 0 1 .684-.283h4.893a.967.967 0 1 1 0 1.934ZM406.024 709.662h-40.227a.967.967 0 1 1 0-1.934h40.227a.97.97 0 0 1 .684.283.97.97 0 0 1 0 1.368.97.97 0 0 1-.684.283ZM383.183 721.478h-16.555a.967.967 0 1 1 0-1.934h16.555a.964.964 0 0 1 .967.967.967.967 0 0 1-.967.967Z" fill="#263238"/><path d="M526.686 690.65a76.28 76.28 0 0 0 0 39.454h81.112s-8.665-25.026 0-39.454h-81.112Z" fill="#fff"/><path d="M607.798 731.052h-81.112a.988.988 0 0 1-.928-.735 77.87 77.87 0 0 1 0-39.995.972.972 0 0 1 .909-.658h81.112a.967.967 0 0 1 .96.977c0 .173-.044.342-.129.493-8.335 13.867 0 38.37 0 38.68a.987.987 0 0 1-.135.89.968.968 0 0 1-.302.245.963.963 0 0 1-.375.103Zm-80.358-1.934h79.023c-1.605-5.203-6.846-24.543-.309-37.52h-78.733a76.86 76.86 0 0 0 .019 37.52Z" fill="#263238"/><mask id="mask2_14_24741" style="mask-type:luminance" maskUnits="userSpaceOnUse" x="524" y="690" width="84" height="41"><mask id="mask3_14_24741" style="mask-type:luminance" maskUnits="userSpaceOnUse" x="524" y="690" width="84" height="41"><path d="M526.686 690.65a76.28 76.28 0 0 0 0 39.454h81.112s-8.665-25.026 0-39.454h-81.112Z" fill="#fff"/></mask><g mask="url('#mask3_14_24741')"><path d="M607.798 731.052h-81.112a.988.988 0 0 1-.928-.735 77.87 77.87 0 0 1 0-39.995.972.972 0 0 1 .909-.658h81.112a.967.967 0 0 1 .96.977c0 .173-.044.342-.129.493-8.335 13.867 0 38.37 0 38.68a.987.987 0 0 1-.135.89.968.968 0 0 1-.302.245.963.963 0 0 1-.375.103Zm-80.358-1.934h79.023c-1.605-5.203-6.846-24.543-.309-37.52h-78.733a76.86 76.86 0 0 0 .019 37.52Z" fill="#fff"/></g></mask><g opacity=".24" mask="url('#mask2_14_24741')"><path d="M526.686 690.65a76.28 76.28 0 0 0 0 39.454h81.112s-8.665-25.026 0-39.454h-81.112Z" fill="#000"/><path d="M607.798 731.052h-81.112a.988.988 0 0 1-.928-.735 77.87 77.87 0 0 1 0-39.995.972.972 0 0 1 .909-.658h81.112a.967.967 0 0 1 .96.977c0 .173-.044.342-.129.493-8.335 13.867 0 38.37 0 38.68a.987.987 0 0 1-.135.89.968.968 0 0 1-.302.245.963.963 0 0 1-.375.103Zm-80.358-1.934h79.023c-1.605-5.203-6.846-24.543-.309-37.52h-78.733a76.86 76.86 0 0 0 .019 37.52Z" fill="#263238"/></g><path d="M365.332 723.316v-28.585a2.653 2.653 0 0 1 2.65-2.649h243.162a1.93 1.93 0 0 0 1.367-.567 1.93 1.93 0 0 0 0-2.735 1.934 1.934 0 0 0-1.367-.566H361.406a2.65 2.65 0 0 0-2.649 2.649v36.592a4.274 4.274 0 0 0 4.274 4.274h248.113a1.93 1.93 0 0 0 1.367-.567 1.93 1.93 0 0 0 0-2.735 1.934 1.934 0 0 0-1.367-.566H369.607a4.287 4.287 0 0 1-3.123-1.346 4.282 4.282 0 0 1-1.152-3.199Z" fill="#263238"/><path d="M611.144 732.56H363.031a5.24 5.24 0 0 1-5.241-5.241v-36.591a3.612 3.612 0 0 1 2.232-3.341 3.613 3.613 0 0 1 1.384-.276h249.738a2.982 2.982 0 0 1 2.259.78 2.979 2.979 0 0 1-2.259 5.158H367.982a1.684 1.684 0 0 0-1.683 1.682v28.585a3.33 3.33 0 0 0 3.307 3.307h241.538a2.982 2.982 0 0 1 2.259.779 2.983 2.983 0 0 1 0 4.379 2.978 2.978 0 0 1-2.259.779Zm-249.661-43.515a1.683 1.683 0 0 0-1.682 1.683v36.591a3.326 3.326 0 0 0 3.307 3.307h248.036a1.045 1.045 0 1 0 0-2.069H369.606a5.24 5.24 0 0 1-5.241-5.241v-28.585c0-.475.094-.945.275-1.384a3.632 3.632 0 0 1 1.958-1.957 3.612 3.612 0 0 1 1.384-.275h243.162c.147.02.298.008.441-.034a1.05 1.05 0 0 0 .745-1.001 1.037 1.037 0 0 0-.358-.787 1.06 1.06 0 0 0-.387-.214 1.061 1.061 0 0 0-.441-.034H361.483Z" fill="#263238"/><path d="M365.526 770.931c1.431-4.816 6.692-24.678.193-37.404H601.01v37.404H365.526Z" fill="#fff"/><path d="M600.99 771.898H365.526a.996.996 0 0 1-.774-.387.985.985 0 0 1-.155-.87c1.161-3.868 6.673-24.117.252-36.746a.972.972 0 0 1 0-.948.968.968 0 0 1 .831-.464h235.31a.967.967 0 0 1 .967.967v37.403a.957.957 0 0 1-.254.735.978.978 0 0 1-.713.31Zm-234.188-1.934h233.221v-35.47H367.247c5.183 12.03 1.412 28.836-.445 35.47Z" fill="#263238"/><path d="M505.992 742.772h-35.876a.967.967 0 0 1 0-1.934h35.876a.967.967 0 1 1 0 1.934ZM458.145 754.26h-4.893a.967.967 0 0 1 0-1.934h4.893a.967.967 0 1 1 0 1.934ZM506.553 754.26h-40.247a.963.963 0 0 1-.683-.284.963.963 0 0 1 0-1.367.967.967 0 0 1 .683-.283h40.247a.986.986 0 0 1 .967.967.967.967 0 0 1-.967.967ZM505.702 766.018h-16.555a.967.967 0 1 1 0-1.934h16.555a.964.964 0 0 1 .967.967.967.967 0 0 1-.967.967Z" fill="#263238"/><path d="M507.327 767.16v-28.585a2.65 2.65 0 0 0-2.65-2.649H360.768a1.935 1.935 0 0 1 0-3.868h249.66a2.65 2.65 0 0 1 2.65 2.649v36.591a4.278 4.278 0 0 1-4.274 4.275H360.768a1.935 1.935 0 0 1 0-3.868h142.284a4.27 4.27 0 0 0 3.123-1.346 4.282 4.282 0 0 0 1.152-3.199Z" fill="#263238"/><path d="M608.803 776.404H360.768a2.982 2.982 0 0 1-2.968-1.774 2.974 2.974 0 0 1 .709-3.384 2.97 2.97 0 0 1 2.259-.779h142.284a3.33 3.33 0 0 0 3.308-3.307v-28.585a1.684 1.684 0 0 0-1.586-1.721H360.768a2.982 2.982 0 0 1-2.968-1.774 2.98 2.98 0 0 1 2.968-4.164h249.66c.959 0 1.879.381 2.557 1.06a3.613 3.613 0 0 1 1.06 2.557v36.591a5.272 5.272 0 0 1-1.527 3.726 5.26 5.26 0 0 1-3.715 1.554Zm-248.035-4.003a1.042 1.042 0 0 0-.828 1.821 1.044 1.044 0 0 0 .828.248h248.035a3.326 3.326 0 0 0 3.308-3.307v-36.591a1.683 1.683 0 0 0-1.683-1.683h-249.66a1.044 1.044 0 1 0 0 2.069h144.006a3.617 3.617 0 0 1 3.616 3.617v28.585a5.26 5.26 0 0 1-5.241 5.241H360.768Z" fill="#263238"/><path d="M365.526 814.755c1.431-4.796 6.692-24.658.193-37.384H601.01v37.384H365.526Z" fill="#fff"/><path d="M600.99 815.722H365.526a.924.924 0 0 1-.774-.387.949.949 0 0 1-.155-.85c1.161-3.868 6.673-24.137.252-36.746a.961.961 0 0 1 0-.948.968.968 0 0 1 .831-.464h235.31a.967.967 0 0 1 .967.967v37.384a.96.96 0 0 1-.578.964.964.964 0 0 1-.389.08Zm-234.188-1.934h233.221v-35.45H367.247c5.183 11.991 1.412 28.817-.445 35.45Z" fill="#263238"/><path d="M505.895 786.867h-35.933a.967.967 0 1 1 0-1.934h35.895a.987.987 0 0 1 .967.967.971.971 0 0 1-.929.967ZM458.029 798.297h-4.893a.969.969 0 0 1-.967-.967.967.967 0 0 1 .967-.967h4.893a.967.967 0 0 1 0 1.934ZM506.437 798.297h-40.246a.967.967 0 1 1 0-1.934h40.246a.967.967 0 1 1 0 1.934ZM505.586 810.133h-16.555a.967.967 0 0 1 0-1.934h16.555a.97.97 0 0 1 .684.283.97.97 0 0 1 0 1.368.97.97 0 0 1-.684.283Z" fill="#263238"/><path d="M507.327 810.984v-28.565a2.65 2.65 0 0 0-2.65-2.65H360.768a1.934 1.934 0 1 1 0-3.868h249.66c.703 0 1.377.28 1.874.776.496.497.776 1.171.776 1.874v36.436a4.28 4.28 0 0 1-2.634 3.967 4.278 4.278 0 0 1-1.64.327H360.768a1.938 1.938 0 0 1-1.368-.566 1.938 1.938 0 0 1 0-2.736 1.938 1.938 0 0 1 1.368-.566h142.284a4.291 4.291 0 0 0 3.989-2.749 4.282 4.282 0 0 0 .286-1.68Z" fill="#FF686B"/><path d="M608.803 820.248H360.768a2.982 2.982 0 0 1-2.968-1.774 2.98 2.98 0 0 1 2.968-4.164h142.284a3.324 3.324 0 0 0 3.307-3.326v-28.565a1.682 1.682 0 0 0-1.682-1.683H360.768a2.982 2.982 0 0 1-2.968-1.774 2.974 2.974 0 0 1 .709-3.384 2.97 2.97 0 0 1 2.259-.779h249.66a3.612 3.612 0 0 1 3.341 2.232c.182.439.276.909.276 1.384v36.572a5.262 5.262 0 0 1-5.242 5.261Zm-248.035-4.004a1.044 1.044 0 1 0 0 2.07h248.035a3.328 3.328 0 0 0 3.308-3.327v-36.572a1.683 1.683 0 0 0-1.683-1.682h-249.66a1.042 1.042 0 0 0-.828 1.821 1.044 1.044 0 0 0 .828.248h144.006a3.617 3.617 0 0 1 3.616 3.617v28.565a5.258 5.258 0 0 1-5.241 5.26H360.768Z" fill="#263238"/><path d="M365.526 683.244c1.431-4.797 6.692-24.659.193-37.385H601.01v37.385H365.526Z" fill="#fff"/><path d="M600.99 684.211H365.526a.936.936 0 0 1-.774-.387.958.958 0 0 1-.155-.851c1.161-3.868 6.673-24.137.252-36.746a.961.961 0 0 1 0-.948.965.965 0 0 1 .831-.464h235.31a.967.967 0 0 1 .967.967v37.384a.959.959 0 0 1-.254.735.96.96 0 0 1-.713.31Zm-234.188-1.934h233.221v-35.451H367.247c5.183 11.991 1.412 28.817-.445 35.451Z" fill="#263238"/><path d="M506.514 655.201h-35.895a.963.963 0 0 1-.683-.284.963.963 0 0 1 0-1.367.962.962 0 0 1 .683-.283h35.895a.963.963 0 0 1 .967.967.967.967 0 0 1-.967.967ZM458.648 666.611h-4.893a.967.967 0 0 1-.967-.967.986.986 0 0 1 .967-.967h4.893a.967.967 0 0 1 0 1.934ZM507.056 666.611h-40.247a.967.967 0 0 1-.967-.967.987.987 0 0 1 .967-.967h40.247a.97.97 0 0 1 .684.283.97.97 0 0 1 0 1.368.97.97 0 0 1-.684.283ZM506.225 678.447H489.65a.967.967 0 0 1-.967-.967.987.987 0 0 1 .967-.967h16.575a.981.981 0 0 1 .966.967.963.963 0 0 1-.966.967Z" fill="#263238"/><path d="M507.327 679.472v-28.565a2.65 2.65 0 0 0-2.65-2.65H360.768a1.938 1.938 0 0 1-1.368-.566 1.938 1.938 0 0 1 0-2.735 1.935 1.935 0 0 1 1.368-.567h249.66a2.65 2.65 0 0 1 2.65 2.65v36.436a4.28 4.28 0 0 1-2.634 3.967 4.278 4.278 0 0 1-1.64.327H360.768a1.935 1.935 0 0 1 0-3.868h142.284a4.31 4.31 0 0 0 3.073-1.312 4.298 4.298 0 0 0 1.202-3.117Z" fill="#FF686B"/><path d="M608.803 688.736H360.768a2.982 2.982 0 0 1-2.968-1.774 2.974 2.974 0 0 1 .709-3.384 2.97 2.97 0 0 1 2.259-.779h142.284a3.328 3.328 0 0 0 3.307-3.327v-28.565c0-.446-.177-.874-.492-1.19a1.687 1.687 0 0 0-1.19-.493H360.768a2.965 2.965 0 0 1-2.259-.779 2.978 2.978 0 0 1 2.259-5.158h249.66a3.617 3.617 0 0 1 3.617 3.617v36.572a5.261 5.261 0 0 1-5.242 5.26Zm-248.035-4.003a1.028 1.028 0 0 0-.441.034 1.04 1.04 0 0 0-.387 1.787 1.044 1.044 0 0 0 .828.248h248.035a3.328 3.328 0 0 0 3.308-3.326v-36.572a1.693 1.693 0 0 0-.493-1.19 1.694 1.694 0 0 0-1.19-.493h-249.66a1.044 1.044 0 1 0 0 2.069h144.006a3.613 3.613 0 0 1 3.616 3.617v28.565a5.258 5.258 0 0 1-5.241 5.261H360.768ZM451.918 509.184s-19.998.657-49.008-6.441c-29.01-7.097-52.856-1.934-57.362 25.781-4.507 27.714 69.624 56.086 121.184 66.413 51.561 10.328 103.16 14.815 128.302 3.868 25.142-10.946 24.484-50.284 14.814-68.347-9.67-18.064-41.89-20.617-58.658-17.948-16.768 2.669-99.272-3.326-99.272-3.326Z" fill="#263238"/><path d="M553.259 606.115c-29.648 0-64.054-5.705-86.701-10.23-51.928-10.386-126.6-39.029-121.977-67.516 1.74-10.657 6.401-18.567 13.828-23.479 10.115-6.711 25.587-7.736 44.733-3.095 28.527 6.982 48.544 6.441 48.737 6.421.832 0 82.601 5.802 99.059 3.249 14.989-2.32 49.298-.812 59.664 18.548 6.034 11.255 9.071 31.485 3.211 48.35-3.539 10.172-9.941 17.541-18.489 21.274-10.637 4.718-25.626 6.478-42.065 6.478ZM381.597 500.906c-8.973 0-16.458 1.934-22.125 5.628-6.962 4.622-11.333 12.087-12.977 22.183-4.235 26.051 67.226 54.655 120.43 65.311 35.006 7.001 98.151 16.806 127.645 3.868 8.045-3.52 14.079-10.463 17.405-20.133 5.628-16.207 2.611-36.243-3.075-46.861-9.882-18.45-43.128-19.785-57.652-17.561-16.613 2.573-95.462-2.92-99.446-3.21-1.18 0-21.12.406-49.221-6.46a88.959 88.959 0 0 0-20.984-2.765ZM582.134 387.999c-2.76-18.592-5.525-37.172-8.297-55.738-2.573-17.251-3.656-35.721-8.142-52.566-5.802-25.142-14.505-38.68-40.614-43.515-26.109-4.835-55.119 23.208-55.119 35.779 0 12.571 8.973 40.943-4.835 85.579-4.719 15.26 13.538 17.406 35.605 10.657l81.402 19.804Z" fill="#263238"/><path d="M582.134 388.966h-.232l-81.228-19.727c-16.439 5.009-29.417 4.816-34.812-.503-2.727-2.727-3.346-6.595-1.838-11.449 10.695-34.58 7.62-59.587 5.802-74.536a93.362 93.362 0 0 1-.986-10.753c0-6.092 6.285-15.472 15.646-23.208 6.228-5.164 22.628-16.846 40.614-13.538 27.231 5.028 35.798 20.036 41.388 44.23a262.785 262.785 0 0 1 6.034 36.263c.657 5.415 1.315 11.024 2.127 16.4 1.496 10.031 2.991 20.069 4.487 30.112l3.868 25.607a.978.978 0 0 1-.035.471.98.98 0 0 1-.255.399 1.066 1.066 0 0 1-.58.232Zm-81.402-21.738h.232l80.009 19.572-3.597-24.194a10833.033 10833.033 0 0 1-4.487-30.132c-.812-5.396-1.47-11.005-2.127-16.439a260.528 260.528 0 0 0-5.996-36.011c-5.55-24.021-13.538-37.945-39.859-42.819-11.914-2.205-26.496 2.688-39.028 13.112-8.8 7.33-14.95 16.246-14.95 21.719.126 3.523.449 7.035.967 10.521 1.934 15.105 4.97 40.363-5.802 75.33-1.277 4.138-.832 7.329 1.353 9.515 4.739 4.758 17.406 4.738 33.033 0a.785.785 0 0 1 .252-.174Z" fill="#263238"/><path d="M512.026 349.319s-31.911 4.351-46.899 8.219c-14.989 3.868-20.307 9.361-25.703 19.592-5.396 10.231-13.422 48.234-21.158 64.189-7.736 15.956-21.796 20.172-24.214 37.094-2.417 16.923 11.121 22.725 21.274 24.659a181.837 181.837 0 0 0 22.725 2.417s16.439 38.68 48.35 41.581c31.911 2.901 55.602-19.34 70.107-27.559 14.505-8.22 15.472-27.076 15.956-48.834.483-21.757 13.344-70.687 9.96-84.225-3.385-13.538-8.452-15.763-30.422-27.076-9.399-4.777-26.438-11.024-39.976-10.057Z" fill="#FF686B"/><path d="M492.145 548.289c-1.934 0-3.868 0-5.802-.252-29.996-2.727-46.706-36.746-48.911-41.619a178.998 178.998 0 0 1-22.26-2.398c-9.361-1.78-24.659-7.504-22.067-25.742 1.45-10.057 6.866-15.781 12.59-21.854a60.484 60.484 0 0 0 11.72-15.608c4.1-8.451 8.374-23.459 12.165-36.746 3.327-11.604 6.479-22.685 8.993-27.501 5.319-10.134 10.85-16.014 26.341-20.017 14.853-3.868 46.687-8.2 46.996-8.239 13.287-.967 30.152 4.913 40.498 10.212l1.934.986c20.172 10.328 25.607 13.113 29.01 26.67 1.934 7.91-1.276 26.573-4.699 46.416-2.476 14.176-5.009 28.817-5.222 38.138-.445 20.075-.909 40.847-16.439 49.646-2.92 1.644-6.15 3.868-9.902 6.363-13.635 9.187-31.93 21.545-54.945 21.545Zm19.978-198.022c-1.16.174-32.201 4.448-46.745 8.2-14.872 3.868-19.958 9.206-25.142 19.03-2.436 4.642-5.55 15.569-8.857 27.076-3.868 13.326-8.104 28.43-12.281 37.036a62.68 62.68 0 0 1-12.049 16.091c-5.802 6.092-10.734 11.334-12.068 20.791-2.263 15.82 9.883 21.545 20.481 23.575a181.562 181.562 0 0 0 22.589 2.398.965.965 0 0 1 .851.581c.155.386 16.594 38.177 47.538 41 25.142 2.282 45.004-11.178 59.528-20.984 3.868-2.572 7.04-4.776 10.018-6.459 13.538-7.736 14.95-24.736 15.472-48.002.213-9.457 2.766-24.194 5.241-38.429 3.25-18.701 6.615-38.041 4.739-45.545-3.172-12.707-7.949-15.143-27.985-25.413l-1.934-.986c-9.999-5.125-26.477-10.869-39.396-9.96Z" fill="#263238"/><path d="M411.709 451.221c-7.368 8.819-15.839 14.408-17.657 27.192a23.962 23.962 0 0 0 0 7.736c1.934 2.979 8.045 10.038 19.843 6.673 14.776-4.236 13.19-24.814 4.216-37.481a9.05 9.05 0 0 0-6.402-4.12Z" fill="#fff"/><path d="M407.938 494.601a17.409 17.409 0 0 1-14.601-7.987.884.884 0 0 1-.155-.368 24.914 24.914 0 0 1-.097-7.968c1.451-10.056 6.866-15.8 12.61-21.854 1.74-1.934 3.539-3.752 5.26-5.802a.956.956 0 0 1 .871-.348 10.071 10.071 0 0 1 7.155 4.448c6.286 8.877 8.665 20.791 5.802 29.01a15.216 15.216 0 0 1-10.521 9.98c-2.056.59-4.184.889-6.324.889Zm-12.88-8.896c1.934 3.017 7.736 9.206 18.644 6.111a13.166 13.166 0 0 0 9.225-8.761c2.688-7.736.425-18.837-5.512-27.23a8.372 8.372 0 0 0-5.319-3.578c-1.643 1.934-3.345 3.752-5.009 5.492-5.802 6.092-10.733 11.353-12.068 20.81a22.143 22.143 0 0 0 .039 7.156Z" fill="#263238"/><path d="M509.763 414.611c13.538-6.189 20.849-16.884 27.076-37.172a192.418 192.418 0 0 0 5.512-22.299c-9.186-3.519-20.616-6.517-30.286-5.802 0 0-13.77 1.934-27.482 4.255-1.141 7.117-3.868 27.386-.677 42.548 3.907 18.47 12.339 24.659 25.857 18.47Z" fill="#fff"/><path d="M500.558 417.898a13.282 13.282 0 0 1-6.073-1.392c-5.473-2.746-9.264-9.38-11.604-20.268-3.191-15.066-.6-34.948.677-42.819a.943.943 0 0 1 .773-.793c13.538-2.36 27.386-4.255 27.521-4.274 11.314-.793 24.137 3.346 30.77 5.802a.985.985 0 0 1 .491.436c.109.197.147.425.109.647a195.337 195.337 0 0 1-5.57 22.492c-6.44 21.042-14.157 31.621-27.56 37.771a23.438 23.438 0 0 1-9.534 2.398Zm-15.124-63.493c-1.277 8.181-3.617 27.076-.58 41.427 2.146 10.134 5.686 16.516 10.54 18.953 3.771 1.934 8.355 1.547 14.021-1.045 12.823-5.802 20.249-16.149 26.496-36.572a194.705 194.705 0 0 0 5.299-21.312c-6.653-2.495-18.605-6.228-29.01-5.473-.174-.097-13.499 1.721-26.766 4.022ZM445.787 486.149a.878.878 0 0 1-.368 0 .931.931 0 0 1-.527-.518.94.94 0 0 1 .005-.739c.097-.232 9.67-24.078 9.67-30.576 0-4.565-2.089-9.187-4.506-14.544-1.064-2.34-2.147-4.738-3.172-7.349-3.346-8.626 4.255-22.106 5.299-23.885.464-3.501 5.667-42.335 10.695-49.588a.941.941 0 0 1 .993-.386c.123.028.239.08.342.154a.97.97 0 0 1 .251 1.335c-4.874 7.039-10.347 48.524-10.386 48.93-.024.129-.07.253-.135.367 0 .155-8.413 14.215-5.241 22.377.986 2.552 2.069 4.931 3.114 7.252 2.514 5.551 4.68 10.366 4.68 15.337 0 6.865-9.341 30.305-9.67 31.292a.928.928 0 0 1-1.044.541Z" fill="#263238"/><path d="m399.854 437.799 7.253-7.736a79.228 79.228 0 0 0 14.988 6.286c19.592 6.518 28.527 10.637 29.494 22.241 0 0 13.054-8.22 26.109-6.769 13.054 1.45 24.658 6.769 28.527 7.252l3.867.484.968 6.769-7.253 38.196-56.57-5.802-38.68-33.845-8.703-27.076Z" fill="#fff"/><path d="M503.807 505.489h-.097l-56.57-5.802a.964.964 0 0 1-.541-.232l-38.68-33.845a.92.92 0 0 1-.29-.425l-8.703-27.076a1 1 0 0 1 .232-.967l7.252-7.736a.965.965 0 0 1 1.199-.155 78.602 78.602 0 0 0 14.796 6.189c19.34 6.44 28.352 10.579 29.977 21.583 3.674-2.05 14.447-7.368 25.432-6.15a108.605 108.605 0 0 1 22.202 5.435 46.305 46.305 0 0 0 6.324 1.818l3.868.483a.985.985 0 0 1 .851.832l.967 6.769c.01.103.01.206 0 .309l-7.252 38.255a.953.953 0 0 1-.967.715Zm-56.086-7.736 55.37 5.667 7.059-37.172-.831-5.802-3.133-.406a43.456 43.456 0 0 1-6.692-1.934 106.909 106.909 0 0 0-21.835-5.357c-12.571-1.412-25.355 6.556-25.471 6.634a.97.97 0 0 1-.947 0 .952.952 0 0 1-.542-.774c-.909-10.985-9.496-14.969-28.836-21.409a91.78 91.78 0 0 1-14.505-5.976l-6.324 6.749 8.432 26.283 38.255 33.497Z" fill="#263238"/><path d="m397.437 436.349 45.932 39.164 4.835-7.736 65.756-1.451-3.868 42.548-62.371-2.901-4.352 2.901-33.845-25.142-12.087-47.383Z" fill="#263238"/><path d="m510.092 509.841-62.062-2.901-4.081 2.727a.985.985 0 0 1-1.122 0l-33.845-25.142a.908.908 0 0 1-.348-.541l-12.164-47.403a.948.948 0 0 1 .425-1.063.933.933 0 0 1 .577-.142.938.938 0 0 1 .545.238l45.081 38.429 4.255-6.788a.943.943 0 0 1 .793-.445l65.756-1.451a.997.997 0 0 1 .735.31 1.004 1.004 0 0 1 .251.735l-3.868 42.548a.983.983 0 0 1-.928.889Zm-62.371-4.835 61.443 2.863 3.694-40.614-64.151 1.411-4.564 7.292a.94.94 0 0 1-.658.444.985.985 0 0 1-.774-.212l-43.592-37.172 11.256 44.095 33.033 24.543 3.771-2.534a1.05 1.05 0 0 1 .542-.116Z" fill="#263238"/><path d="m557.475 423.295-.967 55.119s-28.526 15.955-44.482 20.307a105.053 105.053 0 0 1-27.076 4.351c-1.45 0-7.736-10.153-11.12-13.538-3.385-3.384-6.112-3.442-12.3-6.537-8.626-4.313-12.359-5.067-11.875-3.133.483 1.934.967 3.868 5.318 6.286 4.352 2.417 7.253 4.351 7.253 4.351l.967 1.934s-10.637-1.45-14.989-2.417c-4.351-.967-15.472-8.703-15.472-8.703s-4.738-.29-1.354 5.512c3.385 5.802 6.673 6.092 6.673 6.092a17.558 17.558 0 0 0 4.835 9.186 72.788 72.788 0 0 0 6.769 5.319s-9.187-2.418-8.22 0c.967 2.417 6.769 3.384 14.022 6.769 7.252 3.384 23.691 3.868 32.878 5.318a230.946 230.946 0 0 0 50.284.967c19.34-1.934 48.35-14.988 53.668-19.34 5.319-4.351 1.934-53.185.484-64.305-1.451-11.121-4.352-31.911-6.286-41.581-1.934-9.67-9.67-23.208-14.505-26.109-4.835-2.901-13.538 6.285-14.505 54.152Z" fill="#fff"/><path d="M518.312 522.373a214.169 214.169 0 0 1-30.113-1.934c-2.785-.444-6.285-.793-9.998-1.16-8.413-.851-17.967-1.818-23.208-4.235-2.631-1.219-5.029-2.109-7.156-2.901-3.965-1.49-6.576-2.457-7.349-4.391a1.506 1.506 0 0 1 .232-1.663c.715-.832 2.611-.851 4.757-.541a98.928 98.928 0 0 1-3.287-2.747 17.981 17.981 0 0 1-5.029-9.109c-1.276-.425-3.984-1.798-6.672-6.401-1.412-2.437-1.721-4.236-.928-5.532a3.587 3.587 0 0 1 3.171-1.431.84.84 0 0 1 .503.174c.097 0 11.005 7.64 15.124 8.549 3.172.715 9.863 1.682 13.093 2.146-.735-.483-3.365-2.166-6.962-4.177-4.719-2.611-5.299-4.893-5.802-6.885a1.62 1.62 0 0 1 .503-1.799c.638-.503 1.934-1.566 12.725 3.868 2.108 1.064 3.868 1.76 5.3 2.36a19.001 19.001 0 0 1 7.252 4.351 70.764 70.764 0 0 1 5.609 7.098 39.38 39.38 0 0 0 5.028 6.189 107.263 107.263 0 0 0 26.631-4.352c14.525-3.868 39.957-17.831 43.767-19.939l.967-54.558c.638-31.215 4.854-51.271 11.604-54.984a4.216 4.216 0 0 1 4.39 0c5.202 3.114 13.035 17.116 14.95 26.747 1.914 9.631 4.873 30.789 6.304 41.639.639 4.932 5.57 59.954-.831 65.176-5.551 4.545-34.986 17.638-54.152 19.553-6.885.696-13.809.889-20.423.889Zm-75.794-15.027c.735 1.006 3.114 1.934 6.073 2.998 2.166.793 4.603 1.702 7.291 2.959 4.874 2.282 14.254 3.23 22.512 4.061 3.733.387 7.253.735 10.115 1.18a228.584 228.584 0 0 0 50.032.967c18.876-1.934 47.732-14.698 53.147-19.127 4.545-3.713 1.934-49.163.135-63.435-1.412-10.831-4.313-31.757-6.266-41.523-1.953-9.767-9.67-22.841-14.06-25.452a2.303 2.303 0 0 0-2.456 0c-2.244 1.257-9.67 8.781-10.579 53.34l-.967 55.119a.934.934 0 0 1-.503.812c-.271.174-28.797 16.072-44.695 20.404a107.46 107.46 0 0 1-27.327 4.39c-1.141 0-2.321-1.412-6.383-6.962a72.825 72.825 0 0 0-5.415-6.866 17.399 17.399 0 0 0-6.633-3.868c-1.528-.638-3.249-1.335-5.435-2.418-7.33-3.674-9.67-4.022-10.443-4.061.464 1.818 1.005 3.385 4.796 5.493 4.332 2.417 7.291 4.37 7.33 4.39.134.098.246.223.328.367l.967 1.934a1.021 1.021 0 0 1 0 1.006.948.948 0 0 1-.928.387c-.425 0-10.714-1.47-15.066-2.418-4.351-.947-13.808-7.484-15.472-8.683a1.552 1.552 0 0 0-1.179.522c-.174.27-.407 1.179.947 3.52 3.037 5.202 5.918 5.628 5.938 5.628a.982.982 0 0 1 .851.792 16.778 16.778 0 0 0 4.525 8.626 69.238 69.238 0 0 0 6.672 5.241.964.964 0 0 1 .354 1.212.967.967 0 0 1-1.147.529 23.619 23.619 0 0 0-7.078-1.064h.019Z" fill="#263238"/><path d="M438.051 492.918s11.507 6.828 20.133 8.742l-20.133-8.742Z" fill="#fff"/><path d="M458.184 502.608h-.213c-8.664-1.934-19.939-8.568-20.404-8.839a.987.987 0 0 1-.348-1.334.957.957 0 0 1 .589-.441.943.943 0 0 1 .726.112c.116 0 11.488 6.769 19.843 8.626a.972.972 0 1 1-.193 1.934v-.058Z" fill="#263238"/><path d="M449.655 507.423a37.85 37.85 0 0 0 11.391 2.36l-11.391-2.36Z" fill="#fff"/><path d="M461.046 510.75a38.314 38.314 0 0 1-11.739-2.437.965.965 0 0 1-.05-1.781.969.969 0 0 1 .746-.018 37.16 37.16 0 0 0 11.043 2.302.967.967 0 1 1 0 1.934Z" fill="#263238"/><path d="M439.521 497.831a58.95 58.95 0 0 0 20.094 9.09l-20.094-9.09Z" fill="#fff"/><path d="M459.615 507.887h-.232a59.215 59.215 0 0 1-20.365-9.302.966.966 0 0 1 1.179-1.528 58.428 58.428 0 0 0 19.727 8.916.959.959 0 0 1 .346.152.956.956 0 0 1 .37 1.008.969.969 0 0 1-1.025.754Z" fill="#263238"/><path d="M544.382 519.627c18.895-3.5 43.09-14.563 47.905-18.489 5.319-4.351 1.934-53.185.484-64.305-1.451-11.121-4.352-31.911-6.286-41.581-1.934-9.67-9.67-23.208-14.505-26.109-4.835-2.901-13.538 6.285-14.505 54.152l-.967 55.119s-11.082 6.188-23.304 11.913c4.719 5.125 12.667 15.956 11.178 29.3Z" fill="#FF686B"/><path d="M544.382 520.594a1.063 1.063 0 0 1-.657-.251.983.983 0 0 1-.291-.813c1.432-12.938-6.246-23.44-10.946-28.546a.996.996 0 0 1-.232-.831.94.94 0 0 1 .541-.696c10.618-4.971 20.482-10.367 22.744-11.604l.967-54.559c.639-31.214 4.855-51.27 11.604-54.983a4.221 4.221 0 0 1 4.391 0c5.202 3.114 13.035 17.116 14.949 26.747 1.915 9.631 4.874 30.789 6.305 41.639.638 4.932 5.57 59.954-.831 65.176-5.145 4.216-29.649 15.24-48.35 18.702l-.194.019Zm-9.67-29.938c4.777 5.454 11.604 15.472 10.676 27.791 19.34-3.868 41.968-14.601 46.203-18.063 4.545-3.714 1.934-49.163.135-63.436-1.411-10.83-4.312-31.756-6.266-41.522-1.953-9.767-9.67-22.841-14.06-25.452a2.298 2.298 0 0 0-2.456 0c-2.243 1.257-9.67 8.78-10.579 53.34l-.967 55.119a.922.922 0 0 1-.503.812c-.019.058-10.463 5.899-22.105 11.411h-.078Z" fill="#263238"/><path d="M494.871 343.575s-4.332 25.142-4.757 40.614c-.426 15.472 11.236 31.118 27.656 11.237 16.42-19.882 13.828-52.74 13.828-52.74a45.653 45.653 0 0 1-36.727.889Z" fill="#fff"/><path d="M503.091 405.811a10.108 10.108 0 0 1-3.675-.677c-6.227-2.321-10.54-11.14-10.269-20.945.425-15.472 4.719-40.614 4.757-40.788a1.069 1.069 0 0 1 .484-.677 1.006 1.006 0 0 1 .851 0 44.988 44.988 0 0 0 35.914-.832.976.976 0 0 1 1.259.329.971.971 0 0 1 .153.445c.116 1.354 2.437 33.478-14.041 53.436-6.266 7.543-11.507 9.709-15.433 9.709Zm-7.465-60.902c-.851 5.145-4.178 25.916-4.545 39.319-.252 9.012 3.539 17.038 9.012 19.108 4.951 1.934 10.811-1.083 16.942-8.51 14.06-17.039 13.925-44.134 13.674-50.613a46.587 46.587 0 0 1-35.083.696Z" fill="#263238"/><path d="M495.723 376.105h-.155a.965.965 0 0 1-.793-1.122c1.257-7.156.425-20.384.425-20.52a.962.962 0 0 1 .229-.7.955.955 0 0 1 .661-.325.988.988 0 0 1 1.025.909c0 .542.87 13.538-.445 20.965a.945.945 0 0 1-.947.793Z" fill="#263238"/><path d="M398.733 473.269a8.36 8.36 0 0 0 .735 6.634c1.934 3.191 12.281 9.322 12.281 6.865 0-2.456-5.164-5.802-5.416-7.6a14.466 14.466 0 0 0-1.702-4.178s-3.693-4.661-5.898-1.721Z" fill="#fff"/><path d="M411.091 488.296c-2.998 0-10.695-5.028-12.436-7.891a9.232 9.232 0 0 1-.831-7.445c.033-.096.079-.187.135-.271a3.102 3.102 0 0 1 2.514-1.354c2.379 0 4.623 2.746 4.874 3.056a15.473 15.473 0 0 1 1.934 4.641 9.841 9.841 0 0 0 1.934 2.456c1.663 1.722 3.404 3.501 3.404 5.28a1.47 1.47 0 0 1-1.103 1.47 2.174 2.174 0 0 1-.425.058Zm-11.488-14.466a7.374 7.374 0 0 0 .696 5.666c1.567 2.553 8.336 6.595 10.386 6.963a12.856 12.856 0 0 0-2.746-3.52 8.054 8.054 0 0 1-2.553-3.539 13.573 13.573 0 0 0-1.586-3.868 6.069 6.069 0 0 0-3.307-2.224 1.126 1.126 0 0 0-.89.522Z" fill="#263238"/><path d="M393.782 458.938s-.465 7.175.754 10.521c1.218 3.346 14.157 12.281 17.406 10.579 3.249-1.702-6.905-10.579-9.322-13.364a82.76 82.76 0 0 0-8.838-7.736Z" fill="#fff"/><path d="M410.955 481.218a9.839 9.839 0 0 1-3.403-.793c-4.894-1.934-12.842-7.64-13.925-10.637-1.277-3.501-.813-10.618-.793-10.908a.964.964 0 0 1 .561-.832 1.014 1.014 0 0 1 .986.116 85.68 85.68 0 0 1 9.051 7.93c.503.58 1.354 1.431 2.34 2.417 4.681 4.681 8.22 8.452 7.833 10.869a1.942 1.942 0 0 1-.368.941 1.941 1.941 0 0 1-.792.626 3.206 3.206 0 0 1-1.49.271Zm-16.265-20.365a27.395 27.395 0 0 0 .755 8.277c.754 2.05 7.736 7.504 12.822 9.496 2.302.909 3.114.638 3.307.542.387-1.78-4.719-6.885-7.156-9.342-1.044-1.025-1.934-1.934-2.456-2.514a69 69 0 0 0-7.272-6.459Z" fill="#263238"/><path d="M393.82 450.216s-.967 7.117 0 10.54c.967 3.423 13.248 13.248 16.691 11.778 3.442-1.47-6.131-11.043-8.336-13.983a83.956 83.956 0 0 0-8.355-8.335Z" fill="#fff"/><path d="M409.679 473.656a8.955 8.955 0 0 1-3.636-1.044c-4.757-2.263-12.281-8.529-13.151-11.604-1.025-3.578 0-10.637 0-10.947a.943.943 0 0 1 .619-.773.983.983 0 0 1 .967.174 86.127 86.127 0 0 1 8.49 8.49c.445.619 1.238 1.528 2.166 2.591 4.332 4.99 7.582 8.994 7.04 11.392a2.047 2.047 0 0 1-1.257 1.47c-.39.169-.812.255-1.238.251Zm-15.143-21.467a27.803 27.803 0 0 0 .174 8.316c.6 2.088 7.214 8.026 12.126 10.366 2.244 1.064 3.056.87 3.249.774.523-1.76-4.196-7.195-6.479-9.825-.947-1.103-1.779-2.05-2.243-2.688a67.704 67.704 0 0 0-6.827-6.943Z" fill="#263238"/><path d="M399.719 442.112s-7.369-3.868-8.587.986c-1.218 4.855 4.41 10.057 9.573 14.235 5.164 4.177 7.35 3.423 7.35-.503s-8.336-14.718-8.336-14.718Z" fill="#fff"/><path d="M406.024 461.104a10.787 10.787 0 0 1-5.938-3.017c-5.918-4.796-11.217-9.96-9.902-15.22a3.867 3.867 0 0 1 2.224-2.805c2.921-1.295 7.272.948 7.736 1.199a.697.697 0 0 1 .31.271c.89 1.122 8.548 11.179 8.548 15.298 0 2.108-.599 3.443-1.76 4.004a2.687 2.687 0 0 1-1.218.27ZM394.42 441.59a3.38 3.38 0 0 0-1.296.232 2.06 2.06 0 0 0-1.141 1.509c-1.044 4.235 4.081 9.07 9.245 13.248 3.577 2.881 4.815 2.649 5.125 2.514.309-.135.657-1.025.657-2.263 0-2.882-5.647-10.888-8.007-13.944a11.603 11.603 0 0 0-4.467-1.296h-.116Z" fill="#263238"/><path d="M399.042 595.672s-9.67 5.164-27.714 5.802c-18.045.638-32.878-9.032-24.504-16.768a40.753 40.753 0 0 1 32.878-10.308c11.604 1.934 29.01 6.44 29.01 6.44l-9.67 14.834Z" fill="#fff"/><path d="M369.645 602.383c-12.087 0-23.208-4.507-25.683-10.599a6.803 6.803 0 0 1 2.205-7.871 41.559 41.559 0 0 1 33.709-10.56c11.604 1.934 29.01 6.421 29.01 6.46a.976.976 0 0 1 .719 1.037.967.967 0 0 1-.158.433l-9.67 14.814a.947.947 0 0 1-.348.329c-.406.213-10.076 5.28-28.14 5.918l-1.644.039Zm4.526-27.56a40.423 40.423 0 0 0-26.689 10.502 4.874 4.874 0 0 0-1.722 5.802c1.934 4.873 12.339 9.844 25.529 9.36 16.149-.58 25.587-4.854 27.076-5.589l8.781-13.538c-4.255-1.064-18.006-4.487-27.618-6.092a33.155 33.155 0 0 0-5.357-.445Z" fill="#263238"/><path d="M401.634 579.465c.87.097 1.798.155 2.727.193-5.919-1.47-16.652-4.022-24.659-5.357a40.756 40.756 0 0 0-32.878 10.308c-4.255 3.868-2.495 8.394 2.63 11.72a12.396 12.396 0 0 1 7.736-12.996c10.908-5.067 33.478-5.067 44.444-3.868Z" fill="#fff"/><path d="M349.454 597.296a1.028 1.028 0 0 1-.522-.154c-3.346-2.167-5.222-4.7-5.454-7.311a7.24 7.24 0 0 1 2.689-5.918 41.551 41.551 0 0 1 15.677-9.039 41.544 41.544 0 0 1 18.032-1.521c8.007 1.335 18.934 3.868 24.717 5.358a.986.986 0 0 1 .735 1.083 1.065 1.065 0 0 1-1.006.831c-.948 0-1.934-.097-2.804-.213-11.604-1.353-33.575-1.102-43.96 3.868a11.415 11.415 0 0 0-7.137 12.03.983.983 0 0 1-.464.928 1.131 1.131 0 0 1-.503.058Zm24.717-22.473a40.423 40.423 0 0 0-26.689 10.502 5.324 5.324 0 0 0-2.07 4.351 7.368 7.368 0 0 0 3.037 4.719 13.21 13.21 0 0 1 8.277-11.933c8.974-4.235 24.601-4.97 35.837-4.602-4.409-.987-9.07-1.934-13.016-2.611a33.031 33.031 0 0 0-5.376-.426Z" fill="#263238"/><path d="M600.836 542.061s-19.34 29.01-38.68 40.614c-19.34 11.604-107.666 12.997-125.71 12.997h-37.404v-13.538s59.316-8.471 92.194-27.076 50.284-39.318 76.064-47.712c25.78-8.393 48.35 5.802 47.712 40.614" fill="#263238"/><path d="M436.446 596.542h-37.404a.967.967 0 0 1-.967-.967v-13.538a.974.974 0 0 1 .24-.628.971.971 0 0 1 .592-.319c.599 0 59.509-8.587 91.845-26.96a337.696 337.696 0 0 0 34.948-23.498c14.06-10.405 26.206-19.34 41.31-24.291 12.958-4.216 25.045-2.863 34.058 3.868 9.921 7.349 15.22 20.751 14.911 37.732a.926.926 0 0 1-.609.893.93.93 0 0 1-.377.055.975.975 0 0 1-.679-.297.97.97 0 0 1-.269-.69c.309-16.323-4.719-29.164-14.138-36.146-8.49-6.286-19.958-7.543-32.297-3.52-14.796 4.816-26.825 13.712-40.769 24.02a337.79 337.79 0 0 1-35.122 23.595c-30.557 17.406-84.361 25.974-91.71 27.076v11.739h36.437c1.025 0 104.184-.135 125.207-12.764 18.934-11.353 38.177-40.014 38.37-40.305a.97.97 0 0 1 1.335-.27.94.94 0 0 1 .418.61.957.957 0 0 1-.147.724c-.194.29-19.669 29.32-38.99 40.904-21.467 12.823-125.149 12.977-126.193 12.977Z" fill="#263238"/><path d="M531.444 593.119a.963.963 0 0 1-.71-.222.979.979 0 0 1-.344-.658.963.963 0 0 1 .221-.709.97.97 0 0 1 .659-.345 109.385 109.385 0 0 0 55.892-27.637.974.974 0 0 1 1.059-.211.97.97 0 0 1 .314.211.944.944 0 0 1 0 1.354 111.21 111.21 0 0 1-56.879 28.14l-.212.077ZM595.072 557.437a.966.966 0 0 1-.754-1.567 49.33 49.33 0 0 0 5.319-7.736.983.983 0 0 1 1.597-.196.963.963 0 0 1 .143 1.067 49.777 49.777 0 0 1-5.55 8.122.925.925 0 0 1-.755.31ZM471.896 563.993a.964.964 0 0 1-.967-.967.967.967 0 0 1 .967-.967 56.311 56.311 0 0 0 30.383-11.372.938.938 0 0 1 1.059-.137.97.97 0 0 1 .295.233.99.99 0 0 1-.116 1.374 57.152 57.152 0 0 1-31.621 11.836Z" fill="#fff"/><path d="m387.631 514.56-2.127-.213 2.127.213ZM387.632 515.527h-.097l-2.108-.194a.983.983 0 0 1-.89-1.044 1.004 1.004 0 0 1 1.044-.89l2.167.213a.97.97 0 0 1 .584 1.692.966.966 0 0 1-.7.242v-.019Z" fill="#263238"/><path d="M569.234 598.147a180.781 180.781 0 0 1 29.668-7.736c13.538-1.934 24.484 0 28.352 8.394 3.868 8.393 1.296 18.682-12.242 21.274-13.538 2.591-38.042-2.592-40.614-2.592a18.965 18.965 0 0 1-6.44-1.934l1.276-17.406Z" fill="#fff"/><path d="M605.864 621.762a187.475 187.475 0 0 1-26.883-2.669c-2.282-.348-4.08-.638-4.583-.638a20.047 20.047 0 0 1-6.885-1.934.953.953 0 0 1-.522-.929l1.276-17.406a1.03 1.03 0 0 1 .638-.851 182.89 182.89 0 0 1 29.861-7.736c15.472-2.224 25.645.871 29.378 8.935a16.04 16.04 0 0 1 .174 14.06c-1.567 3.076-5.125 7.04-13.132 8.568a51.213 51.213 0 0 1-9.322.6Zm-36.901-6.75a16.345 16.345 0 0 0 5.435 1.547c1.634.137 3.261.357 4.874.658 8.2 1.276 25.258 3.868 35.566 1.934 5.802-1.103 9.786-3.714 11.759-7.562a14.094 14.094 0 0 0-.213-12.358c-4.197-9.11-17.193-9.284-27.347-7.833a175.383 175.383 0 0 0-28.875 7.484l-1.199 16.13Z" fill="#263238"/><path d="M611.646 589.87c4.12 1.586 11.895 5.938 10.463 15.975-1.934 13.538-18.063 13.538-29.01 13.538a8.97 8.97 0 0 0-2.398.348c8.123.948 17.58 1.586 24.311.31 13.538-2.592 16.11-12.9 12.242-21.274-2.572-5.493-8.181-8.201-15.608-8.897Z" fill="#fff"/><path d="M605.845 621.762a132.196 132.196 0 0 1-15.26-1.045.964.964 0 0 1-.851-.889 1.006 1.006 0 0 1 .716-1.006 10.63 10.63 0 0 1 2.649-.367c11.063 0 26.226 0 28.043-12.707 1.316-9.186-5.608-13.306-9.844-14.95a.983.983 0 0 1-.599-1.121.965.965 0 0 1 1.025-.735c8.335.735 13.867 3.868 16.42 9.457a16.036 16.036 0 0 1 .174 14.06c-1.567 3.075-5.125 7.04-13.132 8.568a49.988 49.988 0 0 1-9.341.735Zm-.194-1.934c3.077.031 6.15-.202 9.187-.696 5.802-1.103 9.786-3.714 11.758-7.562a14.093 14.093 0 0 0-.212-12.359 13.696 13.696 0 0 0-9.09-7.291 14.253 14.253 0 0 1 5.802 14.099c-1.393 9.477-9.129 12.706-17.445 13.809ZM380.36 500.171s-21.932-3.868-36.108 7.078c-14.176 10.947-12.242 22.57 1.296 39.338s48.35 46.416 123.776 59.954c75.426 13.538 98.634 9.012 98.634 9.012l1.276-17.406a153.225 153.225 0 0 1-90.24-29.01c-42.22-30.944-61.037-51.27-91.363-54.577" fill="#263238"/><path d="M554.864 617.275c-13.983 0-40.382-1.644-85.715-9.787-79.854-14.33-113.564-46.938-124.356-60.302-8.567-10.598-12.01-18.469-11.178-25.567.638-5.454 3.868-10.405 10.037-15.124 14.37-11.101 35.953-7.446 36.862-7.272a.93.93 0 0 1 .79.724.93.93 0 0 1 .003.379.96.96 0 0 1-.395.63.975.975 0 0 1-.727.162c-.212 0-21.66-3.655-35.334 6.905-5.686 4.39-8.741 8.916-9.322 13.828-.754 6.44 2.669 14.099 10.773 24.117 10.637 13.19 43.96 45.391 123.176 59.625 67.207 12.049 93.084 9.67 97.571 9.129l1.141-15.569a156.46 156.46 0 0 1-89.777-29.223c-9.554-7.001-18.025-13.538-25.49-19.34-25.413-19.611-42.2-32.588-65.388-35.121a.975.975 0 0 1-.503-1.726.973.973 0 0 1 .715-.208c23.731 2.591 40.614 15.685 66.356 35.508a1352.804 1352.804 0 0 0 25.451 19.34 153.656 153.656 0 0 0 89.641 28.817.972.972 0 0 1 .735.29.998.998 0 0 1 .271.754l-1.276 17.406a.989.989 0 0 1-.793.87 77.077 77.077 0 0 1-13.268.755Z" fill="#263238"/><path d="M372.295 516.61a.945.945 0 0 1-.948-.793.939.939 0 0 1 .149-.725.93.93 0 0 1 .625-.396 53.899 53.899 0 0 1 7.04-.851.983.983 0 0 1 1.025.928.967.967 0 0 1-.929 1.006 53.028 53.028 0 0 0-6.788.812l-.174.019ZM559.893 598.805c-.445 0-45.372-1.431-95.327-39.86-34.812-26.728-55.893-38.97-72.989-42.277a.98.98 0 0 1-.78-.767.992.992 0 0 1 .141-.74.975.975 0 0 1 .622-.424.993.993 0 0 1 .384-.003c17.406 3.365 38.796 15.724 73.782 42.645 49.472 38.042 93.761 39.434 94.206 39.453a.947.947 0 0 1 .947.987.986.986 0 0 1-.986.986ZM559.467 316.693c-11.874 6.266-13.538-6.305-13.441-13.887a.654.654 0 0 0 .251-.328c.851-3.482.001-20.849-9.998-27.811-8.819-6.131-20.501-11.411-31.408-11.43-7.736 0-14.505 4.893-18.625 11.12-4.893 7.408-4.487 15.994-4.874 24.543-.386 8.548-1.218 17.986.484 26.554 2.282 11.41 12.938 35.372 25.877 35.372 11.739 0 32.588-17.56 39.744-27.907 1.62-.538 3.113-1.4 4.39-2.534 2.669-2.282 7.987-6.072 7.6-13.692Z" fill="#fff"/><path d="M507.733 361.793c-13.944 0-24.697-25.509-26.825-36.166-1.508-7.562-1.083-15.588-.677-23.362l.174-3.404.116-3.404c.271-7.369.523-14.989 4.932-21.642 4.777-7.233 12.03-11.604 19.34-11.604 9.67 0 21.371 4.255 31.95 11.604 10.579 7.35 11.333 25.142 10.385 28.836a1.659 1.659 0 0 1-.212.465c0 4.274.599 11.371 4.216 13.538 1.934 1.16 4.506.85 7.736-.89a.923.923 0 0 1 .928 0 .944.944 0 0 1 .484.793c.386 7.504-4.429 11.604-7.311 13.944l-.638.522a13.232 13.232 0 0 1-4.41 2.611c-6.769 9.902-27.52 28.159-40.188 28.159Zm-2.959-97.59c-6.711 0-13.364 4.004-17.793 10.676-4.1 6.208-4.332 13.229-4.603 20.655l-.116 3.423-.174 3.404c-.406 7.736-.832 15.472.638 22.899 2.418 12.068 13.113 34.599 24.929 34.599 11.005 0 31.447-16.632 38.951-27.501a.893.893 0 0 1 .503-.368 11.2 11.2 0 0 0 4.042-2.34l.658-.542c2.553-2.127 6.305-5.279 6.614-10.869a8.793 8.793 0 0 1-8.297.155c-4.293-2.611-5.164-9.921-5.144-15.588a1.017 1.017 0 0 1 .328-.716c.793-3.229-.251-20.074-9.67-26.631-10.25-7.136-21.506-11.236-30.847-11.256h-.019Z" fill="#263238"/><path d="M504.774 329.167a4.065 4.065 0 0 1-2.108-.445 1.76 1.76 0 0 1-.851-1.18c-.387-1.934 3.713-14.853 4.97-18.76a.987.987 0 0 1 1.219-.619.948.948 0 0 1 .618 1.219c-2.533 7.736-5.067 16.574-4.912 17.793a13.404 13.404 0 0 0 5.628-.755.962.962 0 0 1 .74.073.95.95 0 0 1 .459.585.955.955 0 0 1-.08.736.978.978 0 0 1-.578.463c-1.657.51-3.373.809-5.105.89ZM508.893 336.845a11.606 11.606 0 0 1-6.691-1.934.967.967 0 0 1 1.16-1.547c.271.193 6.653 4.719 17.116-3.037a.977.977 0 0 1 1.073-.058c.109.064.205.15.281.252a.982.982 0 0 1-.213 1.353 21.383 21.383 0 0 1-12.726 4.971ZM529.007 320.58a10.945 10.945 0 0 1-9.979-5.377.943.943 0 0 1 .464-1.276.941.941 0 0 1 1.053.145.948.948 0 0 1 .223.299c.155.31 3.655 7.118 14.776 2.94a.967.967 0 0 1 1.304.936.97.97 0 0 1-.627.882 20.6 20.6 0 0 1-7.214 1.451ZM494.659 311.877c-8.374 0-10.289-6.247-10.308-6.324a.99.99 0 0 1 .677-1.2.965.965 0 0 1 1.179.658c0 .309 2.244 7.04 13.306 4.274a.996.996 0 0 1 1.199.735.992.992 0 0 1-.735 1.199 21.918 21.918 0 0 1-5.318.658ZM506.843 300.176a.983.983 0 0 1-.928-.716s-1.934-6.44-6.808-8.509c-2.901-1.199-6.382-.716-10.308 1.489a.983.983 0 0 1-1.315-.387.962.962 0 0 1-.088-.733.962.962 0 0 1 .455-.582c4.487-2.495 8.529-3.017 12.01-1.567 5.802 2.437 7.833 9.477 7.93 9.787a.972.972 0 0 1-.096.729.972.972 0 0 1-.581.45l-.271.039Z" fill="#263238"/><path d="M526.377 332.126a16.194 16.194 0 0 1-14.956-9.993 16.187 16.187 0 1 1 31.143-6.195 16.206 16.206 0 0 1-16.187 16.188Zm0-30.441a14.255 14.255 0 0 0-10.079 24.332 14.255 14.255 0 0 0 24.332-10.079 14.275 14.275 0 0 0-14.253-14.234v-.019ZM491.371 325.279a16.185 16.185 0 0 1-11.446-27.633 16.187 16.187 0 0 1 27.634 11.446 16.225 16.225 0 0 1-16.188 16.187Zm0-30.441a14.256 14.256 0 0 0-13.98 17.035 14.259 14.259 0 0 0 11.199 11.199 14.255 14.255 0 0 0 17.035-13.98 14.272 14.272 0 0 0-14.254-14.254Z" fill="#263238"/><path d="M540.823 319.942a.99.99 0 0 1-.947-.793.965.965 0 0 1 .773-1.122l12.571-2.282a.97.97 0 0 1 1.122.773.969.969 0 0 1-.774 1.122l-12.571 2.282-.174.02ZM476.537 306.249a.991.991 0 0 1-.773-.387.968.968 0 0 1 .193-1.354l4.564-3.423a.969.969 0 0 1 1.354.193.987.987 0 0 1-.193 1.354l-4.564 3.423a.952.952 0 0 1-.581.194Z" fill="#263238"/><path d="M491.526 269.019s13.538-8.239 18.257-.425c4.719 7.813 26.399 59.722 49.684 48.098 23.286-11.623-.174-49.839-22.763-62.004-22.589-12.164-41.6-1.74-45.178 14.331Z" fill="#263238"/><path d="M552.544 319.361c-17.871 0-33.478-30.634-40.614-44.675-1.277-2.514-2.302-4.506-2.959-5.589a5.696 5.696 0 0 0-3.694-2.669c-5.396-1.315-13.152 3.384-13.229 3.423a.963.963 0 0 1-1.45-1.025 25.39 25.39 0 0 1 14.389-17.774c9.399-4.332 20.829-3.345 32.201 2.785 15.742 8.491 33.168 30.596 32.878 47.519a17.413 17.413 0 0 1-10.154 16.207 16.392 16.392 0 0 1-7.368 1.798Zm-49.337-55.099c.846-.008 1.69.083 2.514.27a7.612 7.612 0 0 1 4.874 3.559c.696 1.141 1.741 3.152 3.036 5.802 7.872 15.472 26.284 51.56 45.411 42.006a15.47 15.47 0 0 0 9.09-14.485c.251-16.246-16.613-37.578-31.873-45.797-10.83-5.802-21.661-6.789-30.48-2.727a23.611 23.611 0 0 0-12.745 14.292 24.902 24.902 0 0 1 10.173-2.92Z" fill="#263238"/><path d="M488.412 267.395a.963.963 0 0 1-.683-.284.963.963 0 0 1-.284-.683 9.67 9.67 0 0 1 4.874-7.446c4.97-3.327 12.842 3.249 13.171 3.52a.971.971 0 0 1 .125 1.363.963.963 0 0 1-.655.345.966.966 0 0 1-.708-.219c-1.934-1.663-7.736-5.493-10.869-3.404a7.841 7.841 0 0 0-4.004 5.802.951.951 0 0 1-.262.715.945.945 0 0 1-.705.291ZM565.907 306.519h-.251a21.258 21.258 0 0 1-5.802-2.61.98.98 0 0 1-.46-.61.972.972 0 0 1 1.149-1.174.95.95 0 0 1 .355.159 19.35 19.35 0 0 0 5.338 2.359.984.984 0 0 1 .647.373.965.965 0 0 1 .195.72.984.984 0 0 1-.373.647.965.965 0 0 1-.72.194l-.078-.058ZM552.253 296.153a.943.943 0 0 1-.773-.387 138.112 138.112 0 0 1-10.734-18.682 240.084 240.084 0 0 0-11.817-21.274c-4.989-7.736-10.289-11.894-15.742-12.32a14.37 14.37 0 0 0-10.773 4.313.937.937 0 0 1-.677.293.937.937 0 0 1-.677-.293.94.94 0 0 1-.284-.677.944.944 0 0 1 .284-.677 15.963 15.963 0 0 1 12.359-4.97c6.092.483 11.874 4.932 17.212 13.209a239.687 239.687 0 0 1 11.914 21.274 135.493 135.493 0 0 0 10.559 18.412.986.986 0 0 1-.193 1.354.958.958 0 0 1-.658.425ZM543.222 301.085a.953.953 0 0 1-.658-.271 16.285 16.285 0 0 0-18.663-2.882.986.986 0 0 1-1.315-.406.968.968 0 0 1 .406-1.315 18.549 18.549 0 0 1 20.907 3.211.964.964 0 0 1-.134 1.5.972.972 0 0 1-.543.163Z" fill="#fff"/><path d="M542.255 464.16c-24.253 0-39.261-18.412-39.415-18.586a.984.984 0 0 1 .891-1.489c.238.01.464.107.636.271.136.174 14.583 17.87 37.888 17.87a.967.967 0 0 1 0 1.934Z" fill="#263238"/></g><defs><clipPath id="clip0_14_24741"><path fill="#fff" d="M0 0h967v967H0z"/></clipPath></defs></svg>