<svg width="368" height="287" fill="none" xmlns="http://www.w3.org/2000/svg"><path opacity=".8" d="M357.331 85.572S336.612 16.79 280.962 9.55c-55.65-7.24-69.567 1.397-110.544 19.498-21.448 9.472-45.948 5.79-68.715 10.377C28.883 54.09 1.487 145.972 31.813 198.228c26.252 45.251 72.447 68.762 142.801 74.192 70.355 5.43 119.705 11.755 182.717-32.571 63.013-44.326 29.439-90.04 0-154.277Z" fill="#FFE3E3"/><path d="M270.577 75.722s-16.569-32.11-53.158-36.87c-36.59-4.758-62.094 18.435-89.036 30.333-14.102 6.226-30.21 3.806-45.18 6.82-47.876 9.64-65.89 70.034-45.95 104.382 17.26 29.744 47.632 45.197 93.889 48.766 46.257 3.57 78.704 7.727 120.134-21.409 41.43-29.135 38.657-89.799 19.301-132.022Z" fill="#FF686B"/><path opacity=".8" d="M270.577 75.722s-16.569-32.11-53.158-36.87c-36.59-4.758-62.094 18.435-89.036 30.333-14.102 6.226-30.21 3.806-45.18 6.82-47.876 9.64-65.89 70.034-45.95 104.382 17.26 29.744 47.632 45.197 93.889 48.766 46.257 3.57 78.704 7.727 120.134-21.409 41.43-29.135 38.657-89.799 19.301-132.022Z" fill="#fff"/><path d="M260.53 138.623c-.278 0-27.736-.493-28.475-.493-.739 0-3.084 0-4.169-1.075-1.085-1.075-3.39-4.306-3.471-4.448a.354.354 0 0 1-.054-.277l7.118-29.609a.34.34 0 0 1 .619-.1c.023.038.039.08.045.124a.326.326 0 0 1-.006.132l-7.071 29.46c.447.622 2.461 3.38 3.308 4.238.848.859 2.99.879 3.688.879.699 0 25.024.433 28.176.487l5.424-35.923a.341.341 0 1 1 .678.095l-5.458 36.22a.334.334 0 0 1-.12.213.333.333 0 0 1-.232.077ZM237.757 97.55l-2.257-.041a.345.345 0 0 1-.339-.345.362.362 0 0 1 .345-.331l2.265.04c.09 0 .176.036.239.1a.336.336 0 0 1-.239.577h-.014Z" fill="#263238"/><path d="M226.171 133.236a.342.342 0 0 1-.24-.099.338.338 0 0 1 .24-.577l29.661-.095 6.257-34.476-21.566-.392a.34.34 0 0 1-.332-.338.378.378 0 0 1 .346-.338l21.959.399a.34.34 0 0 1 .323.256.345.345 0 0 1 .009.143l-6.38 35.152a.326.326 0 0 1-.114.2.338.338 0 0 1-.218.077l-29.945.101v-.013Z" fill="#263238"/><path d="m259.052 136.906-28.712-.73a.379.379 0 0 1-.244-.115l-2.454-2.704a.341.341 0 0 1 .109-.553.329.329 0 0 1 .257 0 .337.337 0 0 1 .109.073l2.359 2.583 28.271.723 5.125-30.968-2.109-2.954a.33.33 0 0 1 .075-.473.338.338 0 0 1 .378-.01.337.337 0 0 1 .097.091l2.25 3.103a.344.344 0 0 1 .055.257l-5.194 31.393a.335.335 0 0 1-.372.284Z" fill="#263238"/><path d="M232.91 134.696h4.156s-.678 3.285-1.037 6.388c-.36 3.103-.522 7.084-.522 7.084l-2.421-4.495-2.949 3.806 2.773-12.783ZM57.76 141.524a.331.331 0 0 1-.312-.21.343.343 0 0 1 .184-.446l17.552-7.051c.37-1.028.684-2.075.942-3.137.081-.473-.21-1.183-.86-2.095-.252-.352-8.557-12.445-9.899-14.392L45.164 124.4a.35.35 0 0 1-.126.039.342.342 0 0 1-.247-.077.332.332 0 0 1-.081-.104.331.331 0 0 1-.023-.261.343.343 0 0 1 .172-.198l20.467-10.343a.346.346 0 0 1 .434.108c.102.142 9.797 14.264 10.054 14.629.495.676 1.133 1.71.983 2.596-.149.885-.983 3.292-1.017 3.38a.355.355 0 0 1-.196.209l-17.695 7.105a.31.31 0 0 1-.129.041ZM53.55 141.693a.347.347 0 0 1-.278-.149l-.8-1.163a.34.34 0 0 1 .344-.527.338.338 0 0 1 .219.142l.8 1.169a.344.344 0 0 1-.088.467.361.361 0 0 1-.197.061Z" fill="#263238"/><path d="M51.774 139.104a.346.346 0 0 1-.278-.149l-7.75-11.296a.338.338 0 0 1-.047-.277.342.342 0 0 1 .183-.217l20.25-9.464a.334.334 0 0 1 .421.109l10.895 15.162a.345.345 0 0 1-.075.473.34.34 0 0 1-.474-.081l-10.732-14.953-19.66 9.194 7.524 10.971a.339.339 0 0 1-.094.467.32.32 0 0 1-.163.061Z" fill="#263238"/><path d="M74.648 132.526h-.068a.345.345 0 0 1-.264-.399l.46-2.082-9.755-14.487-17.491 8.538-.726 2.136a.343.343 0 0 1-.433.21.337.337 0 0 1-.21-.426l.772-2.271a.341.341 0 0 1 .17-.196l17.911-8.728a.34.34 0 0 1 .434.115l10.02 14.872a.325.325 0 0 1 .055.257l-.489 2.224a.34.34 0 0 1-.386.237Z" fill="#263238"/><path d="m73.651 129.078-1.504-2.109s1.925-.838 3.64-1.791 3.803-2.299 3.803-2.299l-1.416 2.86 3.003.115-7.526 3.224ZM68.33 193.602h-.041a.356.356 0 0 1-.258-.182l-12.406-23.66a.358.358 0 0 1 0-.264.345.345 0 0 1 .17-.196l1.403-.676a.342.342 0 0 1 .432.16.337.337 0 0 1-.127.442l-1.092.547 12.02 22.937 20.454-21.727a.309.309 0 0 1 .143-.087l24.928-7.673-12.332-19.604-.908.068a.333.333 0 0 1-.332-.183.337.337 0 0 1 .048-.371.34.34 0 0 1 .229-.116l1.119-.088a.328.328 0 0 1 .312.156l12.671 20.165a.332.332 0 0 1 .034.149.331.331 0 0 1-.034.148.362.362 0 0 1-.085.13.366.366 0 0 1-.132.08l-25.268 7.767-20.698 21.984a.352.352 0 0 1-.25.094Z" fill="#263238"/><path d="M68.6 190.378h-.054a.339.339 0 0 1-.237-.176l-11.864-22.585a.331.331 0 0 1 .088-.419c.054-.047 5.627-4.597 8.257-10.897 2.428-5.814 6.604-8.7 11.173-7.727a.333.333 0 0 1 .224.169l11.057 19.895a.335.335 0 0 1-.025.368.34.34 0 0 1-.347.125c-.184-.04-4.543-.939-5.526 3.245-1.058 4.475-5.688 10.235-7.912 13l-.244.311a40.52 40.52 0 0 1-4.359 4.61.346.346 0 0 1-.23.081Zm-11.436-22.842 11.525 21.956a40.22 40.22 0 0 0 3.959-4.238l.244-.311c2.197-2.704 6.78-8.403 7.776-12.729.888-3.759 4.19-3.948 5.64-3.84l-10.643-19.178c-4.163-.804-7.986 1.933-10.258 7.362-2.4 5.746-7.18 10.065-8.243 10.978Z" fill="#263238"/><path d="M86.94 169.111a.335.335 0 0 1-.299-.169l-11.058-19.901a.386.386 0 0 1 0-.23c.8-3.718 4.895-5.408 13.275-5.408 7.315 0 10.278-2.319 10.305-2.339a.346.346 0 0 1 .271-.075.35.35 0 0 1 .23.156l12.407 20.165a.345.345 0 0 1-.102.46c-.034 0-.908.581-6.02 2.19-3.546 1.122-7.457.967-10.61.845-1.25-.07-2.505-.07-3.756 0-2.97.243-4.278 4.056-4.291 4.056a.34.34 0 0 1-.292.23l-.06.02Zm-10.699-20.28 10.65 19.171c.557-1.216 1.994-3.643 4.604-3.86 1.278-.07 2.56-.07 3.837 0 3.092.122 6.943.271 10.38-.811a53.456 53.456 0 0 0 5.552-1.96l-12.02-19.55c-.949.615-4.102 2.271-10.42 2.271-7.905.007-11.796 1.494-12.583 4.739ZM77.23 182.307a.345.345 0 0 1-.21-.068.344.344 0 0 1-.053-.48c1.308-1.636 2.345-3.082 3.26-4.36a24.655 24.655 0 0 1 3.526-4.286 16.601 16.601 0 0 1 3.864-2.474.333.333 0 0 1 .44.176.342.342 0 0 1-.175.446 16.08 16.08 0 0 0-3.689 2.366 23.754 23.754 0 0 0-3.39 4.171 123.204 123.204 0 0 1-3.287 4.387.34.34 0 0 1-.285.122Z" fill="#263238"/><path d="M89.902 169.672a.303.303 0 0 1-.203-.074.337.337 0 0 1-.061-.473 7.982 7.982 0 0 1 5.091-2.819l1.214-.095a47.243 47.243 0 0 0 15.145-3.38.342.342 0 0 1 .434.456.342.342 0 0 1-.19.18 48.255 48.255 0 0 1-15.335 3.42l-1.207.095a7.333 7.333 0 0 0-4.617 2.562.353.353 0 0 1-.271.128ZM60.784 170.747a.35.35 0 0 1-.187-.054.343.343 0 0 1-.15-.34.336.336 0 0 1 .086-.174 91.382 91.382 0 0 0 6.44-8.301c3.83-5.449 6.644-7.673 9.716-7.673a.341.341 0 0 1 .339.338.336.336 0 0 1-.34.338c-2.82 0-5.477 2.143-9.159 7.389a94.14 94.14 0 0 1-6.494 8.369.349.349 0 0 1-.251.108ZM62.94 174.242a.338.338 0 0 1-.23-.088.338.338 0 0 1-.1-.237.33.33 0 0 1 .1-.236 94.211 94.211 0 0 0 6.446-8.308c3.824-5.449 6.638-7.673 9.715-7.673a.348.348 0 0 1 .34.338.336.336 0 0 1-.34.338c-2.826 0-5.477 2.143-9.165 7.389a94.158 94.158 0 0 1-6.495 8.369.34.34 0 0 1-.271.108ZM65.095 177.737a.338.338 0 0 1-.25-.562 94.455 94.455 0 0 0 6.447-8.301c3.824-5.455 6.637-7.679 9.715-7.679a.348.348 0 0 1 .339.338.34.34 0 0 1-.339.338c-2.827 0-5.478 2.143-9.16 7.389a94.778 94.778 0 0 1-6.5 8.368.34.34 0 0 1-.25.109ZM67.252 181.232a.312.312 0 0 1-.224-.088.339.339 0 0 1-.1-.237.33.33 0 0 1 .1-.236 93.036 93.036 0 0 0 6.447-8.302c3.824-5.455 6.638-7.672 9.715-7.672a.337.337 0 0 1 .24.577.341.341 0 0 1-.24.099c-2.827 0-5.477 2.136-9.159 7.382a92.152 92.152 0 0 1-6.501 8.369.338.338 0 0 1-.278.108ZM80.465 153.272h-.115a.344.344 0 0 1-.203-.432c0-.034 1.213-3.184 5.423-3.184 7.898 0 13.023-1.217 13.701-3.265a.358.358 0 0 1 .31-.246.358.358 0 0 1 .384.325.352.352 0 0 1-.016.137c-1.078 3.245-9.45 3.725-14.345 3.725-3.742 0-4.746 2.623-4.807 2.738a.338.338 0 0 1-.332.202ZM82.892 157.301a.352.352 0 0 1-.21-.067.338.338 0 0 1-.054-.473c.08-.109 2.033-2.556 7.274-2.556 5.634 0 9.817-1.318 12.44-3.934a.342.342 0 0 1 .475 0 .328.328 0 0 1 .1.24.339.339 0 0 1-.1.24c-2.746 2.744-7.091 4.164-12.915 4.164-4.868 0-6.725 2.271-6.739 2.292a.341.341 0 0 1-.271.094ZM84.513 161.337a.352.352 0 0 1-.143-.034.334.334 0 0 1-.176-.188.332.332 0 0 1 .013-.258 7.035 7.035 0 0 1 2.722-2.779 7.06 7.06 0 0 1 3.787-.912c5.668 0 10.63-1.183 13.281-3.157a.35.35 0 0 1 .119-.059.35.35 0 0 1 .133-.008.333.333 0 0 1 .222.135.344.344 0 0 1-.067.473c-3.98 2.968-10.902 3.292-13.688 3.292a6.384 6.384 0 0 0-5.898 3.299.325.325 0 0 1-.124.143.326.326 0 0 1-.181.053ZM86.397 164.291a.252.252 0 0 1-.095 0 .347.347 0 0 1-.23-.419c.04-.122.935-2.92 5.701-3.198a44.994 44.994 0 0 0 14.447-3.197.341.341 0 0 1 .398.042.336.336 0 0 1 .111.253.341.341 0 0 1-.114.251.348.348 0 0 1-.123.069 45.35 45.35 0 0 1-14.678 3.258c-4.264.25-5.058 2.616-5.092 2.704a.336.336 0 0 1-.325.237ZM217.696 85.341a.345.345 0 0 1-.25-.155L207.9 69.793l-18.251-9.917a.331.331 0 0 1-.121-.106.34.34 0 0 1 .054-.441l13.64-12.324a.337.337 0 0 1 .481.027l.712.811a.338.338 0 0 1-.508.44l-.482-.548-13.037 11.776 17.892 9.728c.05.031.094.073.128.121l9.363 15.096 10.813-11.438-.183-.528a.345.345 0 0 1 .016-.26.33.33 0 0 1 .195-.173.338.338 0 0 1 .366.096c.03.033.053.072.067.114l.251.724a.335.335 0 0 1-.074.344L217.961 85.24a.352.352 0 0 1-.265.101Z" fill="#263238"/><path d="M209.358 68.028a.396.396 0 0 1-.122 0 .347.347 0 0 1-.217-.304c0-.121-.156-3.089-3.011-3.001-3.213.067-7.857-2.028-10.094-3.008l-.244-.109a28.39 28.39 0 0 1-3.851-2.095.34.34 0 0 1-.149-.257.33.33 0 0 1 .115-.277l13.03-11.81a.347.347 0 0 1 .434 0 21.922 21.922 0 0 0 8.651 3.57c4.352.615 7.037 2.926 7.179 6.178a.33.33 0 0 1-.101.257l-11.363 10.816a.352.352 0 0 1-.257.04Zm-3.248-4.008a3.456 3.456 0 0 1 2.31.826 3.442 3.442 0 0 1 1.175 2.148l10.813-10.228c-.203-2.86-2.596-4.813-6.589-5.408a21.976 21.976 0 0 1-8.733-3.535l-12.521 11.336a27.524 27.524 0 0 0 3.389 1.805l.244.108c2.197.98 6.78 3.029 9.804 2.948h.108Z" fill="#263238"/><path d="M218.503 83.26a.365.365 0 0 1-.23-.082c-.054-.054-.59-.568-2.522-3.637-1.356-2.177-1.953-4.813-2.414-6.929a24.082 24.082 0 0 0-.63-2.48c-.678-1.867-3.343-2.07-3.39-2.076a.34.34 0 0 1-.298-.216.342.342 0 0 1-.009-.196.345.345 0 0 1 .097-.17l11.362-10.782a.327.327 0 0 1 .217-.088c2.665-.128 4.529 2.333 5.993 7.957 1.261 4.833 3.289 6.354 3.309 6.368a.347.347 0 0 1 .142.243.342.342 0 0 1-.095.264l-11.288 11.688a.343.343 0 0 1-.244.135Zm-8.406-15.772c.976.21 2.678.79 3.247 2.42.277.838.503 1.69.678 2.555.454 2.069 1.024 4.638 2.332 6.72a38.736 38.736 0 0 0 2.19 3.238l10.8-11.202c-.644-.615-2.217-2.46-3.275-6.49-1.322-5.076-2.969-7.435-5.173-7.435l-10.799 10.194ZM208.063 68.935a.349.349 0 0 1-.265-.129 10.83 10.83 0 0 0-2.196-2.028 16.854 16.854 0 0 0-3.349-1.534 63.629 63.629 0 0 1-3.506-1.42.34.34 0 0 1 .15-.647.33.33 0 0 1 .128.032c1.316.581 2.461 1.02 3.465 1.406 1.223.402 2.397.942 3.498 1.609a11.905 11.905 0 0 1 2.346 2.15.346.346 0 0 1-.061.48.34.34 0 0 1-.21.08Z" fill="#263238"/><path d="M217.33 83.151a.348.348 0 0 1-.278-.142 33.05 33.05 0 0 1-4.949-9.606c-.095-.284-.19-.547-.271-.784a4.994 4.994 0 0 0-2.454-2.562.338.338 0 1 1 .271-.615 5.551 5.551 0 0 1 2.82 2.947c.088.243.177.507.272.791a32.508 32.508 0 0 0 4.867 9.464.34.34 0 0 1 .058.25.338.338 0 0 1-.139.217.306.306 0 0 1-.197.04ZM217.093 58.76a.336.336 0 0 1-.325-.256c-.482-1.832-2.346-3.204-6.448-4.732a64.571 64.571 0 0 1-6.725-2.866.34.34 0 0 1-.16-.468.345.345 0 0 1 .212-.167.335.335 0 0 1 .267.04 65.878 65.878 0 0 0 6.637 2.832c4.339 1.602 6.332 3.11 6.874 5.185a.327.327 0 0 1-.036.257.34.34 0 0 1-.208.156l-.088.02ZM215.134 60.795a.34.34 0 0 1-.326-.25c-.481-1.838-2.345-3.204-6.447-4.732a65.247 65.247 0 0 1-6.725-2.873.33.33 0 0 1-.182-.199.333.333 0 0 1 .022-.268.333.333 0 0 1 .349-.175c.046.007.09.023.129.047a63.822 63.822 0 0 0 6.644 2.833c4.332 1.609 6.326 3.11 6.868 5.185a.333.333 0 0 1-.244.412.207.207 0 0 1-.088.02ZM213.175 62.83a.336.336 0 0 1-.326-.25c-.481-1.839-2.346-3.204-6.447-4.732a64.496 64.496 0 0 1-6.726-2.866.345.345 0 0 1-.18-.332.336.336 0 0 1 .122-.23.344.344 0 0 1 .377-.04 63.709 63.709 0 0 0 6.644 2.833c4.332 1.608 6.325 3.11 6.868 5.191a.345.345 0 0 1-.036.257.34.34 0 0 1-.208.156l-.088.013ZM211.215 64.872a.34.34 0 0 1-.325-.257c-.482-1.832-2.346-3.204-6.448-4.732a64.5 64.5 0 0 1-6.725-2.866.342.342 0 0 1-.142-.46.35.35 0 0 1 .461-.142 61.948 61.948 0 0 0 6.643 2.833c4.333 1.608 6.326 3.116 6.868 5.191a.33.33 0 0 1-.036.257.346.346 0 0 1-.208.156l-.088.02ZM226.449 72.572c-2.298-.156-4.027-4.956-5.071-8.95-.631-2.407-2.488-2.63-2.569-2.637a.337.337 0 0 1-.177-.597.348.348 0 0 1 .244-.08c.102 0 2.407.258 3.16 3.138 1.355 5.198 3.023 8.355 4.454 8.45a.341.341 0 0 1 .301.227c.014.042.02.086.017.13a.345.345 0 0 1-.359.319ZM224.273 75.235a.33.33 0 0 1-.177-.047c-2.332-1.352-4.027-4.056-5.044-7.916-.827-3.17-2.617-4.002-2.637-4.009a.34.34 0 0 1-.153-.187.34.34 0 0 1 .183-.413.338.338 0 0 1 .241-.015c.088 0 2.109.933 3.024 4.455.969 3.711 2.563 6.233 4.746 7.503a.338.338 0 0 1 .122.46.35.35 0 0 1-.305.169ZM222.036 76.959a.31.31 0 0 1-.211-.075c-2.711-2.143-4.115-6.699-4.603-8.565a4.293 4.293 0 0 0-1.105-2.073 4.318 4.318 0 0 0-2.034-1.185.336.336 0 0 1-.216-.14.336.336 0 0 1 .085-.47.347.347 0 0 1 .253-.06 4.972 4.972 0 0 1 3.675 3.759c.976 3.739 2.61 6.808 4.366 8.207a.346.346 0 0 1 .128.229.333.333 0 0 1-.074.251.33.33 0 0 1-.264.122ZM220.076 79a.349.349 0 0 1-.264-.128 31.241 31.241 0 0 1-4.746-9.208c-.882-2.704-2.529-2.832-2.597-2.832a.346.346 0 0 1-.325-.358.297.297 0 0 1 .025-.132.306.306 0 0 1 .194-.175.311.311 0 0 1 .133-.011c.089 0 2.183.115 3.214 3.299a31.142 31.142 0 0 0 4.624 8.997.339.339 0 0 1-.061.473.348.348 0 0 1-.197.075ZM96.654 93.473h-.08l-2.455-.608a.338.338 0 0 1-.204-.507l11.329-17.711a.344.344 0 0 1 .471-.105.335.335 0 0 1 .15.213c.02.088.004.18-.045.257L94.743 92.324l1.762.44 11.193-16.596a.347.347 0 0 1 .455-.109l17.837 10.255 1.939-1.933-19.492-10.14a.337.337 0 0 1-.145-.456.337.337 0 0 1 .457-.146l19.905 10.384c.048.024.089.06.119.103a.316.316 0 0 1 .057.147.333.333 0 0 1-.012.153.326.326 0 0 1-.083.13l-2.447 2.448a.342.342 0 0 1-.407.054L108.085 76.83 96.932 93.365a.332.332 0 0 1-.278.108Z" fill="#263238"/><path d="M127.881 114.537a.33.33 0 0 1-.163-.04l-15.003-8.552a.347.347 0 0 1-.169-.236l-4.902-29.312a.344.344 0 0 1 .417-.386.342.342 0 0 1 .254.278l4.875 29.149 14.339 8.153-2.095-25.316a.354.354 0 0 1 .083-.244.355.355 0 0 1 .228-.121.337.337 0 0 1 .331.183c.02.04.032.083.036.128l2.094 25.951a.32.32 0 0 1-.155.311.296.296 0 0 1-.17.054Z" fill="#263238"/><path d="M127.881 114.538a.34.34 0 0 1-.298-.494l2.407-4.495-1.831-25.242a.343.343 0 0 1 .083-.246.34.34 0 0 1 .595.198l1.837 25.364a.414.414 0 0 1-.04.183l-2.427 4.549a.34.34 0 0 1-.326.183ZM102.776 119.763h-.067a.338.338 0 0 1-.172-.088.337.337 0 0 1-.093-.169l-5.207-23.815a.344.344 0 0 1 .397-.407.338.338 0 0 1 .268.265l5.044 23.078 9.667-13.175a.34.34 0 0 1 .611.147.338.338 0 0 1-.061.252l-10.109 13.743a.323.323 0 0 1-.278.169Z" fill="#263238"/><path d="M102.776 119.763h-.041l-2.752-.304a.34.34 0 0 1-.292-.264l-5.816-26.567a.344.344 0 0 1 .267-.409.347.347 0 0 1 .41.267l5.77 26.324 2.508.277c.09 0 .176.036.24.099a.334.334 0 0 1 .099.239c0 .09-.035.176-.099.239a.342.342 0 0 1-.24.099h-.054ZM100.634 97.746a.342.342 0 0 1-.302-.182.338.338 0 0 1 .024-.352l7.966-10.992a.32.32 0 0 1 .218-.138.326.326 0 0 1 .25.064.335.335 0 0 1 .081.473l-7.966 10.992a.33.33 0 0 1-.271.135ZM101.244 102.937a.344.344 0 0 1-.196-.061.341.341 0 0 1-.075-.473l7.959-10.992a.34.34 0 0 1 .221-.138.336.336 0 0 1 .386.282.338.338 0 0 1-.058.248l-7.959 10.992a.334.334 0 0 1-.278.142ZM101.854 108.129a.311.311 0 0 1-.196-.068.338.338 0 0 1-.075-.466l7.959-10.992a.342.342 0 0 1 .475-.081.347.347 0 0 1 .075.473l-7.96 10.992a.323.323 0 0 1-.121.105.327.327 0 0 1-.157.037ZM102.444 113.321a.308.308 0 0 1-.197-.068.334.334 0 0 1-.139-.219.33.33 0 0 1 .004-.133.33.33 0 0 1 .054-.121l7.966-10.992a.338.338 0 0 1 .468-.074.336.336 0 0 1 .081.473l-7.966 10.992a.344.344 0 0 1-.271.142ZM122.681 93.17a.303.303 0 0 1-.169-.048l-10.719-6.084a.342.342 0 0 1-.159-.206.34.34 0 0 1 .498-.382l10.719 6.084a.346.346 0 0 1 .122.466.342.342 0 0 1-.292.17ZM122.681 98.05a.365.365 0 0 1-.169-.04l-10.719-6.085a.334.334 0 0 1-.183-.205.33.33 0 0 1 .03-.273.344.344 0 0 1 .223-.16.34.34 0 0 1 .269.057l10.719 6.084a.338.338 0 0 1 .122.46.346.346 0 0 1-.292.162ZM124.207 103.242a.368.368 0 0 1-.163-.041l-10.718-6.084a.335.335 0 0 1-.129-.46.345.345 0 0 1 .467-.128l10.712 6.084a.332.332 0 0 1 .003.585.347.347 0 0 1-.172.044ZM124.519 108.433a.31.31 0 0 1-.17-.047l-10.718-6.084a.35.35 0 0 1-.159-.206.343.343 0 0 1 .239-.416.337.337 0 0 1 .259.034l10.718 6.084a.335.335 0 0 1 .154.378.337.337 0 0 1-.323.25v.007ZM257.696 204.939a.279.279 0 0 1-.122 0l-20.854-8.328a.328.328 0 0 1-.204-.23.362.362 0 0 1-.001-.157.358.358 0 0 1 .069-.141l2.19-2.704a.348.348 0 0 1 .4-.094l18.739 8.389 9.423-17.576a.36.36 0 0 1 .346-.176l2.502.365a.328.328 0 0 1 .288.331.336.336 0 0 1-.038.156l-9.491 18.752a.34.34 0 0 1-.458.152.34.34 0 0 1-.152-.456l9.274-18.333-1.796-.264-9.437 17.61a.345.345 0 0 1-.441.149l-18.786-8.41-1.736 2.177 20.427 8.112a.346.346 0 0 1 .19.439.346.346 0 0 1-.332.237Z" fill="#263238"/><path d="M258.075 202.431a.343.343 0 0 1-.332-.244l-7.79-28.52-15.057-6.672 4.637 24.978a.336.336 0 0 1-.523.338.335.335 0 0 1-.141-.216l-4.746-25.607a.316.316 0 0 1 .122-.325.342.342 0 0 1 .346-.047l15.79 7.003a.342.342 0 0 1 .189.217l7.804 28.669a.351.351 0 0 1-.238.419l-.061.007Z" fill="#263238"/><path d="M236.862 196.597a.332.332 0 0 1-.332-.284l-4.393-25.012a.4.4 0 0 1 0-.182l1.979-4.807a.34.34 0 0 1 .606.014.335.335 0 0 1 .018.243l-1.939 4.732 4.373 24.931a.331.331 0 0 1-.057.254.35.35 0 0 1-.221.138l-.034-.027ZM266.509 182.252a.343.343 0 0 1-.325-.236l-7.349-22.457-8.285 14.04a.342.342 0 0 1-.616-.09.336.336 0 0 1 .033-.254l8.665-14.683a.332.332 0 0 1 .332-.162.34.34 0 0 1 .285.23l7.579 23.166a.325.325 0 0 1-.017.259.324.324 0 0 1-.2.167l-.102.02Z" fill="#263238"/><path d="M270.15 184.95a.333.333 0 0 1-.2-.063.333.333 0 0 1-.126-.167l-8.393-25.614h-2.529a.336.336 0 0 1-.239-.099.335.335 0 0 1-.1-.239.352.352 0 0 1 .346-.338h2.773a.344.344 0 0 1 .198.067.346.346 0 0 1 .121.17l8.467 25.843a.328.328 0 0 1-.1.363.324.324 0 0 1-.117.063l-.101.014ZM256.448 192.474a.305.305 0 0 1-.169-.048.342.342 0 0 1-.129-.459l6.779-11.736a.35.35 0 0 1 .461-.128.348.348 0 0 1 .129.466l-6.813 11.736a.343.343 0 0 1-.258.169ZM255.316 187.363a.289.289 0 0 1-.169-.047.338.338 0 0 1-.129-.46l6.813-11.728a.338.338 0 0 1 .48-.153.336.336 0 0 1 .103.491l-6.779 11.735a.337.337 0 0 1-.319.162ZM254.177 182.266a.345.345 0 0 1-.328-.252.34.34 0 0 1 .036-.255l6.814-11.736a.338.338 0 0 1 .444-.093.337.337 0 0 1 .139.431l-6.78 11.736a.347.347 0 0 1-.325.169ZM253.045 177.162a.315.315 0 0 1-.169-.047.331.331 0 0 1-.122-.46l6.779-11.735a.349.349 0 0 1 .568-.036.326.326 0 0 1 .066.25.323.323 0 0 1-.044.124l-6.813 11.735a.34.34 0 0 1-.265.169ZM253.065 192.507a.302.302 0 0 1-.135-.033l-11.281-4.996a.329.329 0 0 1-.17-.446.337.337 0 0 1 .448-.176l11.274 5.003c.09.017.169.07.22.146.051.076.069.169.051.259a.342.342 0 0 1-.147.219.35.35 0 0 1-.26.052v-.028ZM252.57 187.647a.437.437 0 0 1-.135 0l-11.281-5.016a.331.331 0 0 1-.219-.321.339.339 0 0 1 .365-.332.358.358 0 0 1 .132.038l11.274 4.996a.346.346 0 0 1 .271.405.346.346 0 0 1-.407.271v-.041ZM250.523 182.631a.308.308 0 0 1-.136-.034l-11.281-4.995a.345.345 0 0 1-.18-.188.34.34 0 0 1 .011-.259.327.327 0 0 1 .187-.18.323.323 0 0 1 .26.005l11.275 5.002a.342.342 0 0 1 .181.187.336.336 0 0 1-.131.406.352.352 0 0 1-.186.056ZM249.696 177.5a.312.312 0 0 1-.136 0l-11.281-5.009a.348.348 0 0 1-.123-.069.341.341 0 0 1-.003-.504.35.35 0 0 1 .122-.071.337.337 0 0 1 .275.029l11.282 5.002a.342.342 0 0 1 .181.187.336.336 0 0 1-.005.259.353.353 0 0 1-.312.176Z" fill="#263238"/><path d="M219.534 213.112c-1.899 4.685-3.851.919-3.539-18.705.142-9.2.793-27.993 10.996-23.856 9.797 3.975-3.118 31.772-3.118 31.772l-4.339 10.789Zm14.013 2.785s21.267-22.098 13.295-29.034c-8.305-7.213-15.037 10.349-18.176 19.002-6.685 18.462-6.061 22.653-2.712 18.847l7.593-8.815Zm4.488 19.834s19.471-13.824 14.379-20.28c-5.301-6.713-13.003 5.739-16.657 11.904-7.79 13.148-7.925 16.447-4.834 14.014l7.112-5.638Zm5.268 19.773s19.471-13.824 14.379-20.28c-5.295-6.72-12.996 5.739-16.65 11.898-7.797 13.148-7.932 16.447-4.834 14.013l7.105-5.631Zm-34.006-39.749s-27.247-14.142-31.675-4.563c-4.616 9.978 14.183 11.492 23.39 12.053 19.661 1.203 23.511-.568 18.908-2.704l-10.623-4.786Zm3.837 15.548s-29.518-8.463-31.952 1.805c-2.536 10.701 16.176 8.457 25.328 7.186 19.498-2.704 22.929-5.212 18-6.368l-11.376-2.623Zm6.779 16.968s-25.165-6.47-26.982 2.271c-1.892 9.092 13.891 6.76 21.586 5.476 16.427-2.738 19.267-4.935 15.071-5.8l-9.675-1.947Zm3.939 14.013s-24.332-9.099-27.071-.601c-2.854 8.848 13.092 8.199 20.881 7.733 16.624-.987 19.661-2.866 15.593-4.171l-9.403-2.961Zm-16.271-70.98s-11.105-34.422-23.728-28.169c-13.125 6.51 2.034 22.031 9.62 29.46 16.183 15.859 21.193 16.968 19.064 11.432l-4.956-12.723Z" fill="#FF686B"/><path opacity=".65" d="M219.534 213.112c-1.899 4.685-3.851.919-3.539-18.705.142-9.2.793-27.993 10.996-23.856 9.797 3.975-3.118 31.772-3.118 31.772l-4.339 10.789Zm14.013 2.785s21.267-22.098 13.295-29.034c-8.305-7.213-15.037 10.349-18.176 19.002-6.685 18.462-6.061 22.653-2.712 18.847l7.593-8.815Zm4.488 19.834s19.471-13.824 14.379-20.28c-5.301-6.713-13.003 5.739-16.657 11.904-7.79 13.148-7.925 16.447-4.834 14.014l7.112-5.638Zm5.268 19.773s19.471-13.824 14.379-20.28c-5.295-6.72-12.996 5.739-16.65 11.898-7.797 13.148-7.932 16.447-4.834 14.013l7.105-5.631Zm-34.006-39.749s-27.247-14.142-31.675-4.563c-4.616 9.978 14.183 11.492 23.39 12.053 19.661 1.203 23.511-.568 18.908-2.704l-10.623-4.786Zm3.837 15.548s-29.518-8.463-31.952 1.805c-2.536 10.701 16.176 8.457 25.328 7.186 19.498-2.704 22.929-5.212 18-6.368l-11.376-2.623Zm6.779 16.968s-25.165-6.47-26.982 2.271c-1.892 9.092 13.891 6.76 21.586 5.476 16.427-2.738 19.267-4.935 15.071-5.8l-9.675-1.947Zm3.939 14.013s-24.332-9.099-27.071-.601c-2.854 8.848 13.092 8.199 20.881 7.733 16.624-.987 19.661-2.866 15.593-4.171l-9.403-2.961Zm-16.271-70.98s-11.105-34.422-23.728-28.169c-13.125 6.51 2.034 22.031 9.62 29.46 16.183 15.859 21.193 16.968 19.064 11.432l-4.956-12.723Z" fill="#fff"/><path d="M237.595 286.485a.431.431 0 0 1-.421-.399c-1.023-17.988-6.101-39.708-13.898-59.589-6.576-16.738-34.223-50.477-34.508-50.815a.425.425 0 0 1 .061-.595.432.432 0 0 1 .311-.095.422.422 0 0 1 .286.156c.278.338 28.02 34.185 34.643 51.038 7.865 19.989 12.929 41.776 13.966 59.873a.423.423 0 0 1-.4.446l-.04-.02Z" fill="#CCC"/><path d="M218.117 215.681h-.048a.428.428 0 0 1-.373-.473l3.878-32.367a.427.427 0 0 1 .471-.369.424.424 0 0 1 .37.47l-3.878 32.367a.43.43 0 0 1-.42.372ZM223.669 226.767a.428.428 0 0 1-.419-.462.429.429 0 0 1 .047-.16l14.06-27.202a.435.435 0 0 1 .248-.244.426.426 0 0 1 .505.636l-14.061 27.236a.436.436 0 0 1-.38.196ZM221.622 222.731h-.081l-29.396-5.969a.428.428 0 0 1-.371-.508.43.43 0 0 1 .365-.338.432.432 0 0 1 .175.015l29.396 5.969a.424.424 0 0 1 .326.5.42.42 0 0 1-.414.331ZM229.222 242.2a.421.421 0 0 1-.36-.244.421.421 0 0 1 .041-.432l17.268-19.685a.423.423 0 0 1 .637.555l-17.281 19.637a.422.422 0 0 1-.305.169ZM226.781 235.731l-22.189-.189a.425.425 0 0 1-.421-.426.434.434 0 0 1 .428-.419l22.189.189a.428.428 0 0 1 .388.588.427.427 0 0 1-.232.227.414.414 0 0 1-.163.03ZM214.036 252.469a.43.43 0 0 1-.428-.412.437.437 0 0 1 .407-.44l17.017-.676a.428.428 0 0 1 .416.569.43.43 0 0 1-.086.142.425.425 0 0 1-.296.134l-17.017.676-.013.007ZM234.544 262.048a.402.402 0 0 1-.251-.088.425.425 0 0 1-.088-.595l9.112-12.107a.43.43 0 0 1 .708.035.427.427 0 0 1 .044.323.434.434 0 0 1-.074.149l-9.112 12.114a.429.429 0 0 1-.339.169ZM235.215 266.55l-19.898-.987a.434.434 0 0 1-.296-.139.427.427 0 0 1-.111-.307.424.424 0 0 1 .448-.399l19.904.987a.418.418 0 0 1 .36.601.432.432 0 0 1-.242.219.422.422 0 0 1-.165.025Z" fill="#CCC"/><path d="M273.194 239.922c-3.437 1.291-2.386-1.595 8.237-11.08 4.976-4.441 15.322-13.337 18.129-5.894 2.712 7.152-18.475 13.959-18.475 13.959l-7.891 3.015Zm5.424 8.788s22.237.419 22.02-7.22c-.231-7.949-12.915-2.886-19.071-.297-13.132 5.53-15.064 7.916-11.397 7.808l8.448-.291Zm-8.4 12.134s16.949 3.536 17.884-2.339c.983-6.084-9.45-4.056-14.535-2.981-10.847 2.332-12.671 3.88-9.851 4.327l6.502.993Zm-7.959 12.52s16.949 3.529 17.884-2.339c.983-6.084-9.451-4.056-14.535-2.988-10.847 2.332-12.671 3.88-9.851 4.326l6.502 1.001Zm4.495-37.579s-5.851-21.382-13.126-19.043c-7.586 2.454.848 13.169 5.071 18.326 9.017 11.019 11.858 12.168 10.719 8.714l-2.664-7.997Zm-6.421 9.714s-10-19.82-16.671-16.062c-6.942 3.894 3.458 12.682 8.61 16.934 11.031 9.011 14.054 9.599 12.244 6.415l-4.183-7.287Zm-5.728 11.925s-8.916-16.528-14.475-13.196c-5.783 3.468 3.221 10.695 7.688 14.142 9.539 7.362 12.102 7.794 10.502 5.144l-3.715-6.09Zm-5.539 8.977s-7.105-17.38-12.99-14.656c-6.102 2.84 2.068 10.972 6.142 14.872 8.699 8.329 11.207 9.032 9.892 6.226l-3.044-6.442Zm29.83-43.528s12.881-22.815 3.389-26.424c-9.925-3.766-10.752 11.904-10.982 19.604-.509 16.372 1.356 19.604 3.267 15.723l4.326-8.903Z" fill="#FF686B"/><path opacity=".65" d="M273.194 239.922c-3.437 1.291-2.386-1.595 8.237-11.08 4.976-4.441 15.322-13.337 18.129-5.894 2.712 7.152-18.475 13.959-18.475 13.959l-7.891 3.015Zm5.424 8.788s22.237.419 22.02-7.22c-.231-7.949-12.915-2.886-19.071-.297-13.132 5.53-15.064 7.916-11.397 7.808l8.448-.291Zm-8.4 12.134s16.949 3.536 17.884-2.339c.983-6.084-9.45-4.056-14.535-2.981-10.847 2.332-12.671 3.88-9.851 4.327l6.502.993Zm-7.959 12.52s16.949 3.529 17.884-2.339c.983-6.084-9.451-4.056-14.535-2.988-10.847 2.332-12.671 3.88-9.851 4.326l6.502 1.001Zm4.495-37.579s-5.851-21.382-13.126-19.043c-7.586 2.454.848 13.169 5.071 18.326 9.017 11.019 11.858 12.168 10.719 8.714l-2.664-7.997Zm-6.421 9.714s-10-19.82-16.671-16.062c-6.942 3.894 3.458 12.682 8.61 16.934 11.031 9.011 14.054 9.599 12.244 6.415l-4.183-7.287Zm-5.728 11.925s-8.916-16.528-14.475-13.196c-5.783 3.468 3.221 10.695 7.688 14.142 9.539 7.362 12.102 7.794 10.502 5.144l-3.715-6.09Zm-5.539 8.977s-7.105-17.38-12.99-14.656c-6.102 2.84 2.068 10.972 6.142 14.872 8.699 8.329 11.207 9.032 9.892 6.226l-3.044-6.442Zm29.83-43.528s12.881-22.815 3.389-26.424c-9.925-3.766-10.752 11.904-10.982 19.604-.509 16.372 1.356 19.604 3.267 15.723l4.326-8.903Z" fill="#E5E5E5"/><path d="M242.293 286.735a.407.407 0 0 1-.292-.115.425.425 0 0 1 0-.602c9.309-9.599 19.193-24.004 25.796-37.592 5.688-11.695 10.095-42.926 10.136-43.264a.433.433 0 0 1 .481-.365.435.435 0 0 1 .279.166.43.43 0 0 1 .081.314c-.041.318-4.468 31.677-10.21 43.494-6.644 13.655-16.59 28.149-25.953 37.809a.402.402 0 0 1-.318.155Z" fill="#CCC"/><path d="M271.35 240.646a.43.43 0 0 1-.346-.176.43.43 0 0 1 .095-.595l19.173-13.845a.423.423 0 0 1 .51-.075.418.418 0 0 1 .213.287.425.425 0 0 1-.222.464l-19.172 13.858a.428.428 0 0 1-.251.082ZM268.17 249.034a.425.425 0 0 1-.115-.831l21.41-5.922a.43.43 0 0 1 .445.148.412.412 0 0 1 .033.466.425.425 0 0 1-.255.197l-21.409 5.929a.287.287 0 0 1-.109.013ZM269.309 245.966a.407.407 0 0 1-.359-.203l-11.254-18.516a.428.428 0 0 1-.051-.32.42.42 0 0 1 .514-.309.423.423 0 0 1 .262.19l11.261 18.522a.427.427 0 0 1-.142.582.396.396 0 0 1-.231.054ZM262.645 259.553a.428.428 0 0 1-.374-.422.425.425 0 0 1 .374-.423l18.983-.486a.436.436 0 0 1 .44.412.427.427 0 0 1-.413.433l-18.983.486h-.027ZM264.909 255.091a.435.435 0 0 1-.311-.135l-10.807-11.864a.43.43 0 0 1 0-.601.429.429 0 0 1 .603.034l10.807 11.863a.427.427 0 0 1-.319.676l.027.027ZM258.442 265.252a.428.428 0 0 1-.299-.122l-8.725-8.693a.423.423 0 0 1 .014-.588.426.426 0 0 1 .589-.014l8.719 8.694a.424.424 0 0 1-.298.723ZM254.693 272.147a.427.427 0 0 1-.31-.691.435.435 0 0 1 .262-.154l10.943-1.122a.424.424 0 0 1 .438.382.425.425 0 0 1-.35.463l-10.943 1.122h-.04ZM252.618 274.716a.418.418 0 0 1-.346-.149l-9.261-11.039a.424.424 0 0 1 .523-.645.416.416 0 0 1 .128.104l9.288 11.033a.424.424 0 0 1-.332.696Z" fill="#CCC"/><path d="M109.556 213.112c1.898 4.685 3.851.919 3.546-18.705-.149-9.2-.8-27.993-11.003-23.856-9.797 3.975 3.118 31.772 3.118 31.772l4.339 10.789Zm-14.013 2.785s-21.268-22.098-13.295-29.034c8.305-7.213 15.044 10.349 18.176 19.002 6.685 18.462 6.061 22.653 2.712 18.847l-7.593-8.815Zm-4.488 19.834s-19.471-13.824-14.38-20.28c5.302-6.713 13.004 5.739 16.658 11.904 7.789 13.149 7.925 16.447 4.834 14.014l-7.112-5.638Zm-5.268 19.773s-19.47-13.824-14.38-20.28c5.296-6.72 12.997 5.739 16.651 11.898 7.797 13.148 7.932 16.447 4.834 14.013l-7.105-5.631Zm34.006-39.749s27.247-14.142 31.674-4.563c4.617 9.978-14.182 11.492-23.389 12.053-19.661 1.203-23.512-.568-18.908-2.704l10.623-4.786Zm-3.837 15.548s29.525-8.463 31.952 1.805c2.536 10.688-16.19 8.443-25.328 7.172-19.498-2.704-22.929-5.212-17.993-6.368l11.369-2.609Zm-6.78 16.968s25.166-6.47 26.983 2.271c1.892 9.092-13.891 6.76-21.586 5.476-16.427-2.738-19.267-4.935-15.07-5.8l9.673-1.947Zm-3.938 14.013s24.325-9.085 27.091-.561c2.854 8.849-13.092 8.2-20.881 7.734-16.624-.987-19.661-2.867-15.593-4.171l9.383-3.002Zm16.27-70.98s11.112-34.422 23.729-28.169c13.125 6.51-2.034 22.031-9.62 29.46-16.183 15.859-21.193 16.968-19.058 11.432l4.949-12.723Z" fill="#FF686B"/><path opacity=".65" d="M109.556 213.112c1.898 4.685 3.851.919 3.546-18.705-.149-9.2-.8-27.993-11.003-23.856-9.797 3.975 3.118 31.772 3.118 31.772l4.339 10.789Zm-14.013 2.785s-21.268-22.098-13.295-29.034c8.305-7.213 15.044 10.349 18.176 19.002 6.685 18.462 6.061 22.653 2.712 18.847l-7.593-8.815Zm-4.488 19.834s-19.471-13.824-14.38-20.28c5.302-6.713 13.004 5.739 16.658 11.904 7.789 13.149 7.925 16.447 4.834 14.014l-7.112-5.638Zm-5.268 19.773s-19.47-13.824-14.38-20.28c5.296-6.72 12.997 5.739 16.651 11.898 7.797 13.148 7.932 16.447 4.834 14.013l-7.105-5.631Zm34.006-39.749s27.247-14.142 31.674-4.563c4.617 9.978-14.182 11.492-23.389 12.053-19.661 1.203-23.512-.568-18.908-2.704l10.623-4.786Zm-3.837 15.548s29.525-8.463 31.952 1.805c2.536 10.688-16.19 8.443-25.328 7.172-19.498-2.704-22.929-5.212-17.993-6.368l11.369-2.609Zm-6.78 16.968s25.166-6.47 26.983 2.271c1.892 9.092-13.891 6.76-21.586 5.476-16.427-2.738-19.267-4.935-15.07-5.8l9.673-1.947Zm-3.938 14.013s24.325-9.085 27.091-.561c2.854 8.849-13.092 8.2-20.881 7.734-16.624-.987-19.661-2.867-15.593-4.171l9.383-3.002Zm16.27-70.98s11.112-34.422 23.729-28.169c13.125 6.51-2.034 22.031-9.62 29.46-16.183 15.859-21.193 16.968-19.058 11.432l4.949-12.723Z" fill="#fff"/><path d="M91.495 286.485a.427.427 0 0 1-.4-.446c1.024-18.077 6.102-39.884 13.959-59.853 6.617-16.853 34.359-50.7 34.637-51.038a.422.422 0 0 1 .749.224.425.425 0 0 1-.091.31c-.278.338-27.932 34.084-34.508 50.815-7.81 19.881-12.881 41.601-13.898 59.589a.426.426 0 0 1-.448.399Z" fill="#CCC"/><path d="M110.973 215.681a.43.43 0 0 1-.42-.372l-3.878-32.367a.42.42 0 0 1 .369-.47.427.427 0 0 1 .472.369l3.878 32.367a.426.426 0 0 1-.373.473h-.048ZM105.42 226.767a.432.432 0 0 1-.379-.23l-14.034-27.202a.43.43 0 0 1 .053-.471.43.43 0 0 1 .13-.104.442.442 0 0 1 .576.183l14.027 27.202a.429.429 0 0 1 .028.325.425.425 0 0 1-.211.25.497.497 0 0 1-.19.047ZM107.468 222.732a.424.424 0 0 1-.082-.839l29.39-5.969a.428.428 0 0 1 .336.777.445.445 0 0 1-.167.055l-29.389 5.969-.088.007ZM99.895 242.2a.435.435 0 0 1-.318-.142L82.296 222.42a.416.416 0 0 1-.06-.464.411.411 0 0 1 .243-.212.413.413 0 0 1 .323.022c.05.024.094.058.13.1l17.282 19.604a.427.427 0 0 1-.319.676v.054ZM102.315 235.731a.417.417 0 0 1-.394-.257.425.425 0 0 1 .388-.588l22.189-.189a.414.414 0 0 1 .302.12.424.424 0 0 1-.295.725l-22.19.189ZM115.054 252.469l-17.017-.676a.428.428 0 0 1-.358-.438.424.424 0 0 1 .392-.407l17.017.676a.434.434 0 0 1 .407.439.426.426 0 0 1-.441.406ZM94.546 262.048a.429.429 0 0 1-.339-.169l-9.112-12.114a.418.418 0 0 1 .082-.595.43.43 0 0 1 .596.088l9.112 12.107a.425.425 0 0 1-.088.595.4.4 0 0 1-.25.088ZM93.882 266.55a.427.427 0 0 1-.319-.708.427.427 0 0 1 .292-.137l19.904-.987a.406.406 0 0 1 .31.103.414.414 0 0 1 .138.296.42.42 0 0 1-.111.307.436.436 0 0 1-.296.139l-19.898.987h-.02Z" fill="#CCC"/><path d="M55.903 239.922c3.43 1.291 2.38-1.595-8.244-11.08-4.977-4.441-15.322-13.337-18.129-5.894-2.712 7.152 18.474 13.959 18.474 13.959l7.899 3.015Zm-5.424 8.788s-22.244.419-22.027-7.22c.237-7.949 12.881-2.886 19.071-.297 13.132 5.53 15.064 7.916 11.403 7.808l-8.447-.291Zm8.393 12.134s-16.949 3.536-17.884-2.339c-.977-6.084 9.45-4.056 14.535-2.981 10.847 2.332 12.671 3.88 9.85 4.327l-6.5.993Zm7.96 12.52s-16.95 3.529-17.885-2.339c-.983-6.084 9.45-4.056 14.535-2.988 10.847 2.332 12.671 3.88 9.85 4.326l-6.5 1.001Zm-4.496-37.579s5.851-21.402 13.14-19.043c7.585 2.454-.848 13.169-5.072 18.326-9.017 11.019-11.857 12.168-10.718 8.714l2.65-7.997Zm6.42 9.714s10-19.82 16.672-16.062c6.949 3.914-3.458 12.736-8.624 16.961-11.03 9.011-14.054 9.599-12.244 6.415l4.197-7.314Zm5.73 11.925s8.914-16.528 14.474-13.196c5.783 3.468-3.22 10.695-7.688 14.142-9.54 7.362-12.102 7.794-10.502 5.144l3.715-6.09Zm5.538 8.977s7.105-17.38 12.99-14.656c6.102 2.84-2.068 10.972-6.142 14.872-8.698 8.329-11.207 9.032-9.892 6.226l3.044-6.442Zm-29.83-43.528s-12.88-22.815-3.39-26.424c9.926-3.766 10.753 11.904 10.99 19.604.502 16.372-1.356 19.604-3.274 15.723l-4.326-8.903Z" fill="#FF686B"/><path opacity=".65" d="M55.903 239.922c3.43 1.291 2.38-1.595-8.244-11.08-4.977-4.441-15.322-13.337-18.129-5.894-2.712 7.152 18.474 13.959 18.474 13.959l7.899 3.015Zm-5.424 8.788s-22.244.419-22.027-7.22c.237-7.949 12.881-2.886 19.071-.297 13.132 5.53 15.064 7.916 11.403 7.808l-8.447-.291Zm8.393 12.134s-16.949 3.536-17.884-2.339c-.977-6.084 9.45-4.056 14.535-2.981 10.847 2.332 12.671 3.88 9.85 4.327l-6.5.993Zm7.96 12.52s-16.95 3.529-17.885-2.339c-.983-6.084 9.45-4.056 14.535-2.988 10.847 2.332 12.671 3.88 9.85 4.326l-6.5 1.001Zm-4.496-37.579s5.851-21.402 13.14-19.043c7.585 2.454-.848 13.169-5.072 18.326-9.017 11.019-11.857 12.168-10.718 8.714l2.65-7.997Zm6.42 9.714s10-19.82 16.672-16.062c6.949 3.914-3.458 12.736-8.624 16.961-11.03 9.011-14.054 9.599-12.244 6.415l4.197-7.314Zm5.73 11.925s8.914-16.528 14.474-13.196c5.783 3.468-3.22 10.695-7.688 14.142-9.54 7.362-12.102 7.794-10.502 5.144l3.715-6.09Zm5.538 8.977s7.105-17.38 12.99-14.656c6.102 2.84-2.068 10.972-6.142 14.872-8.698 8.329-11.207 9.032-9.892 6.226l3.044-6.442Zm-29.83-43.528s-12.88-22.815-3.39-26.424c9.926-3.766 10.753 11.904 10.99 19.604.502 16.372-1.356 19.604-3.274 15.723l-4.326-8.903Z" fill="#E5E5E5"/><path d="M86.797 286.735a.41.41 0 0 1-.305-.128c-9.363-9.66-19.308-24.147-25.952-37.809-5.742-11.816-10.17-43.176-10.21-43.494a.424.424 0 0 1 .36-.48.434.434 0 0 1 .48.365c.041.311 4.448 31.549 10.136 43.264 6.603 13.588 16.488 27.994 25.796 37.593a.426.426 0 0 1 0 .601.395.395 0 0 1-.305.088Z" fill="#CCC"/><path d="M57.74 240.646a.433.433 0 0 1-.25-.081l-19.173-13.852a.419.419 0 0 1-.22-.282.422.422 0 0 1 .21-.469.42.42 0 0 1 .358-.025c.058.022.11.056.153.1l19.173 13.845a.431.431 0 0 1 .095.595.437.437 0 0 1-.346.169ZM60.926 249.034a.319.319 0 0 1-.115 0l-21.416-5.942a.41.41 0 0 1-.255-.197.42.42 0 0 1 .478-.614l21.417 5.922a.427.427 0 0 1 .295.461.423.423 0 0 1-.404.37ZM59.78 245.966a.402.402 0 0 1-.223-.061.427.427 0 0 1-.142-.582l11.267-18.522a.429.429 0 0 1 .74-.063.423.423 0 0 1-.014.502L60.14 245.763a.414.414 0 0 1-.36.203ZM66.445 259.553l-18.983-.486a.43.43 0 0 1-.414-.433.449.449 0 0 1 .441-.412l18.983.486a.43.43 0 0 1 .297.13.427.427 0 0 1 .116.303.426.426 0 0 1-.44.412ZM64.18 255.091a.415.415 0 0 1-.361-.243.418.418 0 0 1 .05-.433l10.78-11.89a.42.42 0 0 1 .294-.142.425.425 0 0 1 .309.108.43.43 0 0 1 0 .601l-10.773 11.871a.429.429 0 0 1-.298.128ZM70.648 265.252a.432.432 0 0 1-.387-.264.424.424 0 0 1 .089-.459l8.719-8.694a.43.43 0 0 1 .59.014.424.424 0 0 1 .013.588l-8.725 8.666a.412.412 0 0 1-.298.149ZM74.397 272.147h-.04l-10.943-1.122a.428.428 0 0 1-.35-.463.425.425 0 0 1 .439-.382l10.942 1.122a.427.427 0 0 1-.047.845ZM76.472 274.716a.425.425 0 0 1-.325-.696l9.26-11.04a.419.419 0 0 1 .452-.133.427.427 0 0 1 .2.674l-9.262 11.046a.427.427 0 0 1-.325.149Z" fill="#CCC"/><path d="M190.829 210.82h-71.673v14.629h71.673V210.82Z" fill="#fff"/><path d="M190.829 225.787h-71.674a.346.346 0 0 1-.339-.338V210.82a.338.338 0 0 1 .339-.338h71.674a.338.338 0 0 1 .339.338v14.629a.339.339 0 0 1-.339.338Zm-71.335-.676h70.996v-13.953h-70.996v13.953Z" fill="#263238"/><path d="M132.478 214.95h-12.577a.336.336 0 0 1-.239-.099.335.335 0 0 1 0-.478.34.34 0 0 1 .239-.099h12.577a.34.34 0 0 1 .339.338c0 .09-.036.176-.1.239a.336.336 0 0 1-.239.099ZM138.375 218.939h-1.715a.338.338 0 0 1 0-.676h1.715a.336.336 0 0 1 .339.338.338.338 0 0 1-.339.338ZM133.813 218.939h-14.108a.338.338 0 0 1-.339-.338.342.342 0 0 1 .339-.338h14.108a.338.338 0 1 1 0 .676ZM125.806 223.076h-5.803a.338.338 0 1 1 0-.676h5.803c.09 0 .176.036.24.099a.334.334 0 0 1 .099.239c0 .09-.035.176-.099.239a.342.342 0 0 1-.24.099Z" fill="#263238"/><path d="M176.117 211.32a26.524 26.524 0 0 0 0 13.791h28.881s-3.037-8.748 0-13.791h-28.881Z" fill="#fff"/><path d="M204.998 225.449h-28.881a.342.342 0 0 1-.332-.25 27.222 27.222 0 0 1 0-13.98.34.34 0 0 1 .325-.237h28.881a.347.347 0 0 1 .292.514c-2.922 4.854 0 13.419 0 13.52a.34.34 0 0 1-.319.446l.034-.013Zm-28.623-.676h28.155c-.562-1.812-2.4-8.579-.108-13.115h-28.081a26.792 26.792 0 0 0 .034 13.115Z" fill="#263238"/><mask id="mask0_14_30580" style="mask-type:luminance" maskUnits="userSpaceOnUse" x="175" y="211" width="30" height="15"><mask id="mask1_14_30580" style="mask-type:luminance" maskUnits="userSpaceOnUse" x="175" y="211" width="30" height="15"><path d="M176.117 211.32a26.524 26.524 0 0 0 0 13.791h28.881s-3.037-8.748 0-13.791h-28.881Z" fill="#fff"/></mask><g mask="url('#mask1_14_30580')"><path d="M204.998 225.449h-28.881a.342.342 0 0 1-.332-.25 27.222 27.222 0 0 1 0-13.98.34.34 0 0 1 .325-.237h28.881a.347.347 0 0 1 .292.514c-2.922 4.854 0 13.419 0 13.52a.34.34 0 0 1-.319.446l.034-.013Zm-28.623-.676h28.155c-.562-1.812-2.4-8.579-.108-13.115h-28.081a26.792 26.792 0 0 0 .034 13.115Z" fill="#fff"/></g></mask><g opacity=".24" mask="url('#mask0_14_30580')"><path d="M176.117 211.32a26.524 26.524 0 0 0 0 13.791h28.881s-3.037-8.748 0-13.791h-28.881Z" fill="#000"/><path d="M204.998 225.449h-28.881a.342.342 0 0 1-.332-.25 27.222 27.222 0 0 1 0-13.98.34.34 0 0 1 .325-.237h28.881a.347.347 0 0 1 .292.514c-2.922 4.854 0 13.419 0 13.52a.34.34 0 0 1-.319.446l.034-.013Zm-28.623-.676h28.155c-.562-1.812-2.4-8.579-.108-13.115h-28.081a26.792 26.792 0 0 0 .034 13.115Z" fill="#263238"/></g><path d="M120.003 222.738v-9.984a.926.926 0 0 1 .929-.926h85.239a.68.68 0 0 0 .678-.676.677.677 0 0 0-.678-.676h-87.544a.928.928 0 0 0-.929.926v12.736a1.485 1.485 0 0 0 .436 1.06 1.5 1.5 0 0 0 1.062.44h86.975a.677.677 0 1 0 0-1.352h-84.67a1.517 1.517 0 0 1-1.077-.458 1.49 1.49 0 0 1-.421-1.09Z" fill="#263238"/><path d="M206.171 225.976h-86.975a1.844 1.844 0 0 1-1.837-1.839v-12.783a1.264 1.264 0 0 1 1.268-1.264h87.544a1.04 1.04 0 1 1 0 2.075h-85.239a.59.59 0 0 0-.59.588v9.985a1.163 1.163 0 0 0 1.159 1.162h84.67a1.058 1.058 0 0 1 .792.273 1.028 1.028 0 0 1 .336.765 1.038 1.038 0 0 1-.703.984 1.058 1.058 0 0 1-.425.054Zm-87.517-15.21a.59.59 0 0 0-.59.588v12.783a1.163 1.163 0 0 0 1.159 1.163h86.948a.37.37 0 0 0 .29-.087.356.356 0 0 0 .126-.275.357.357 0 0 0-.126-.275.366.366 0 0 0-.29-.087h-84.67c-.242 0-.481-.047-.704-.14a1.827 1.827 0 0 1-1.133-1.698v-9.985a1.266 1.266 0 0 1 1.268-1.264h85.239a.37.37 0 0 0 .383-.21.362.362 0 0 0-.093-.427.364.364 0 0 0-.29-.086h-87.517Z" fill="#263238"/><path d="M190.829 241.01h-71.673v14.629h71.673V241.01Z" fill="#fff"/><path d="M190.829 255.977h-71.674a.338.338 0 0 1-.339-.338V241.01a.346.346 0 0 1 .339-.338h71.674a.338.338 0 0 1 .339.338v14.629a.338.338 0 0 1-.339.338Zm-71.335-.676h70.996v-13.953h-70.996v13.953Z" fill="#263238"/><path d="M132.952 244.147h-12.596a.34.34 0 0 1-.339-.338.336.336 0 0 1 .339-.338h12.596a.338.338 0 1 1 0 .676ZM138.843 248.162h-1.715a.344.344 0 0 1-.339-.338c0-.089.036-.175.099-.239a.342.342 0 0 1 .24-.099h1.715a.338.338 0 1 1 0 .676ZM134.267 248.162h-14.101a.338.338 0 1 1 0-.676h14.101c.09 0 .176.036.24.099a.338.338 0 0 1-.24.577ZM126.26 252.293h-5.803a.342.342 0 0 1-.24-.099.338.338 0 0 1 .24-.577h5.803a.336.336 0 0 1 .339.338.338.338 0 0 1-.339.338Z" fill="#263238"/><path d="M176.565 241.517a26.587 26.587 0 0 0 0 13.791h28.433s-3.037-8.748 0-13.791h-28.433Z" fill="#fff"/><path d="M204.998 255.639h-28.433a.344.344 0 0 1-.325-.257 27.136 27.136 0 0 1 0-13.98.339.339 0 0 1 .318-.23h28.434a.342.342 0 0 1 .291.169.349.349 0 0 1 0 .345c-2.922 4.847 0 13.412 0 13.52a.339.339 0 0 1-.047.311.327.327 0 0 1-.238.122Zm-28.169-.676h27.702c-.563-1.819-2.4-8.579-.109-13.115h-27.599a26.792 26.792 0 0 0 .006 13.115Z" fill="#263238"/><mask id="mask2_14_30580" style="mask-type:luminance" maskUnits="userSpaceOnUse" x="175" y="241" width="30" height="15"><mask id="mask3_14_30580" style="mask-type:luminance" maskUnits="userSpaceOnUse" x="175" y="241" width="30" height="15"><path d="M176.565 241.517a26.587 26.587 0 0 0 0 13.791h28.433s-3.037-8.748 0-13.791h-28.433Z" fill="#fff"/></mask><g mask="url('#mask3_14_30580')"><path d="M204.998 255.639h-28.433a.344.344 0 0 1-.325-.257 27.136 27.136 0 0 1 0-13.98.339.339 0 0 1 .318-.23h28.434a.342.342 0 0 1 .291.169.349.349 0 0 1 0 .345c-2.922 4.847 0 13.412 0 13.52a.339.339 0 0 1-.047.311.327.327 0 0 1-.238.122Zm-28.169-.676h27.702c-.563-1.819-2.4-8.579-.109-13.115h-27.599a26.792 26.792 0 0 0 .006 13.115Z" fill="#fff"/></g></mask><g opacity=".24" mask="url('#mask2_14_30580')"><path d="M176.565 241.517a26.587 26.587 0 0 0 0 13.791h28.433s-3.037-8.748 0-13.791h-28.433Z" fill="#000"/><path d="M204.998 255.639h-28.433a.344.344 0 0 1-.325-.257 27.136 27.136 0 0 1 0-13.98.339.339 0 0 1 .318-.23h28.434a.342.342 0 0 1 .291.169.349.349 0 0 1 0 .345c-2.922 4.847 0 13.412 0 13.52a.339.339 0 0 1-.047.311.327.327 0 0 1-.238.122Zm-28.169-.676h27.702c-.563-1.819-2.4-8.579-.109-13.115h-27.599a26.792 26.792 0 0 0 .006 13.115Z" fill="#263238"/></g><path d="M120.003 252.935v-9.991a.924.924 0 0 1 .929-.926h85.239a.68.68 0 0 0 .678-.676.677.677 0 0 0-.678-.676h-87.544a.928.928 0 0 0-.929.926v12.79a1.501 1.501 0 0 0 1.498 1.494h86.975a.68.68 0 0 0 .678-.676.677.677 0 0 0-.678-.676h-84.67a1.507 1.507 0 0 1-1.413-.988 1.5 1.5 0 0 1-.085-.601Z" fill="#263238"/><path d="M206.171 256.166h-86.975a1.83 1.83 0 0 1-1.837-1.832v-12.79a1.269 1.269 0 0 1 .371-.894 1.286 1.286 0 0 1 .897-.37h87.544a1.058 1.058 0 0 1 .792.273 1.028 1.028 0 0 1 .336.765 1.038 1.038 0 0 1-.703.984 1.058 1.058 0 0 1-.425.054h-85.239a.59.59 0 0 0-.59.588v9.991a1.167 1.167 0 0 0 1.159 1.156h84.67a1.055 1.055 0 0 1 1.04.62 1.038 1.038 0 0 1-.615 1.402 1.04 1.04 0 0 1-.425.053Zm-87.517-15.21a.59.59 0 0 0-.59.588v12.79a1.164 1.164 0 0 0 1.159 1.156h86.948a.37.37 0 0 0 .383-.21.36.36 0 0 0 0-.303.375.375 0 0 0-.228-.198.37.37 0 0 0-.155-.012h-84.67a1.84 1.84 0 0 1-1.299-.537 1.83 1.83 0 0 1-.538-1.295v-9.991a1.274 1.274 0 0 1 .371-.894 1.256 1.256 0 0 1 .897-.37h85.239a.37.37 0 0 0 .29-.087.365.365 0 0 0-.29-.637h-87.517Z" fill="#263238"/><path d="M120.071 269.578c.501-1.683 2.346-8.626.068-13.074h82.48v13.074h-82.548Z" fill="#fff"/><path d="M202.612 269.916h-82.541a.347.347 0 0 1-.271-.135.342.342 0 0 1-.055-.304c.407-1.352 2.339-8.43.088-12.844a.345.345 0 0 1 0-.332.348.348 0 0 1 .292-.162h82.487a.338.338 0 0 1 .339.338v13.074a.352.352 0 0 1-.089.257.351.351 0 0 1-.25.108Zm-82.094-.676h81.755v-12.398h-81.599c1.817 4.205.495 10.079-.156 12.398Z" fill="#263238"/><path d="M169.311 259.736h-12.577a.34.34 0 0 1-.338-.338.336.336 0 0 1 .338-.338h12.577c.089 0 .176.035.239.099a.335.335 0 0 1 0 .478.34.34 0 0 1-.239.099ZM152.538 263.751h-1.715a.342.342 0 0 1-.24-.099.338.338 0 0 1 .24-.577h1.715a.338.338 0 1 1 0 .676ZM169.507 263.751h-14.108a.342.342 0 0 1-.24-.099.338.338 0 0 1 .24-.577h14.108a.342.342 0 0 1 .339.338.338.338 0 0 1-.339.338ZM169.209 267.861h-5.803a.338.338 0 1 1 0-.676h5.803a.338.338 0 1 1 0 .676Z" fill="#263238"/><path d="M169.778 268.26v-9.992a.923.923 0 0 0-.928-.926h-50.447a.677.677 0 1 1 0-1.352h87.517a.927.927 0 0 1 .929.926v12.79a1.492 1.492 0 0 1-1.498 1.494h-86.948a.677.677 0 1 1 0-1.352h49.877a1.498 1.498 0 0 0 1.413-.988c.069-.192.098-.396.085-.6Z" fill="#263238"/><path d="M205.351 271.491h-86.948a1.04 1.04 0 1 1 0-2.075h49.877a1.167 1.167 0 0 0 1.159-1.156v-9.991a.588.588 0 0 0-.555-.602h-50.481a1.055 1.055 0 0 1-1.04-.62 1.038 1.038 0 0 1 .615-1.402 1.04 1.04 0 0 1 .425-.053h87.517a1.266 1.266 0 0 1 1.268 1.264v12.79a1.829 1.829 0 0 1-.535 1.302 1.857 1.857 0 0 1-1.302.543Zm-86.948-1.399a.37.37 0 0 0-.29.087.356.356 0 0 0-.126.275.36.36 0 0 0 .126.275.364.364 0 0 0 .29.086h86.948a1.164 1.164 0 0 0 1.159-1.156v-12.79a.583.583 0 0 0-.173-.415.586.586 0 0 0-.417-.173h-87.517a.37.37 0 0 0-.29.087.356.356 0 0 0-.126.275.357.357 0 0 0 .126.275.366.366 0 0 0 .29.087h50.481c.336 0 .658.133.896.37s.371.558.371.894v9.991a1.843 1.843 0 0 1-1.837 1.832h-49.911Z" fill="#263238"/><path d="M120.071 284.896c.501-1.676 2.346-8.619.068-13.067h82.48v13.067h-82.548Z" fill="#fff"/><path d="M202.612 285.234h-82.541a.332.332 0 0 1-.272-.135.343.343 0 0 1-.063-.142.343.343 0 0 1 .009-.156c.407-1.352 2.339-8.436.088-12.844a.338.338 0 0 1 0-.331.34.34 0 0 1 .292-.162h82.487c.09 0 .176.035.239.099.064.063.1.149.1.239v13.067a.34.34 0 0 1-.339.365Zm-82.094-.676h81.755v-12.391h-81.599c1.817 4.191.495 10.072-.156 12.391Z" fill="#263238"/><path d="M169.277 275.148H156.68a.334.334 0 0 1-.239-.099.335.335 0 0 1 0-.478.338.338 0 0 1 .239-.099h12.583a.346.346 0 0 1 .339.338.338.338 0 0 1-.325.338ZM152.498 279.143h-1.716a.334.334 0 0 1-.239-.099.335.335 0 0 1 0-.478.338.338 0 0 1 .239-.099h1.716a.34.34 0 0 1 .339.338c0 .09-.036.176-.1.239a.336.336 0 0 1-.239.099ZM169.467 279.143h-14.108a.336.336 0 0 1-.339-.338.338.338 0 0 1 .339-.338h14.108a.338.338 0 0 1 0 .676ZM169.168 283.28h-5.803a.338.338 0 1 1 0-.676h5.803c.09 0 .176.036.24.099a.338.338 0 0 1-.24.577Z" fill="#263238"/><path d="M169.778 283.578v-9.984a.928.928 0 0 0-.928-.927h-50.447a.677.677 0 1 1 0-1.352h87.517a.929.929 0 0 1 .929.927v12.735a1.486 1.486 0 0 1-.436 1.061 1.51 1.51 0 0 1-1.062.44h-86.948a.677.677 0 1 1 0-1.352h49.877a1.517 1.517 0 0 0 1.077-.458 1.5 1.5 0 0 0 .421-1.09Z" fill="#FF686B"/><path d="M205.351 286.816h-86.948a1.055 1.055 0 0 1-1.04-.62 1.038 1.038 0 0 1 .615-1.402 1.04 1.04 0 0 1 .425-.053h49.877a1.168 1.168 0 0 0 1.159-1.163v-9.984a.589.589 0 0 0-.589-.589h-50.447a1.04 1.04 0 1 1 0-2.075h87.517a1.275 1.275 0 0 1 .897.37 1.265 1.265 0 0 1 .371.894v12.783a1.844 1.844 0 0 1-1.837 1.839Zm-86.948-1.399a.37.37 0 0 0-.383.21.36.36 0 0 0 0 .303.375.375 0 0 0 .228.198.37.37 0 0 0 .155.012h86.948a1.168 1.168 0 0 0 1.159-1.163v-12.783a.587.587 0 0 0-.59-.588h-87.517a.37.37 0 0 0-.29.087.356.356 0 0 0-.126.275.36.36 0 0 0 .126.275.366.366 0 0 0 .29.086h50.481a1.27 1.27 0 0 1 1.267 1.265v9.984a1.837 1.837 0 0 1-1.837 1.839h-49.911Z" fill="#263238"/><path d="M120.071 238.928c.501-1.676 2.346-8.619.068-13.067h82.48v13.067h-82.548Z" fill="#fff"/><path d="M202.612 239.266h-82.541a.326.326 0 0 1-.272-.135.337.337 0 0 1-.054-.297c.407-1.352 2.339-8.437.088-12.844a.345.345 0 0 1 0-.332.348.348 0 0 1 .292-.162h82.487a.338.338 0 0 1 .339.338v13.067a.33.33 0 0 1-.203.337.335.335 0 0 1-.136.028Zm-82.094-.676h81.755v-12.391h-81.599c1.817 4.191.495 10.073-.156 12.391Z" fill="#263238"/><path d="M169.494 229.126h-12.583a.338.338 0 1 1 0-.676h12.583a.34.34 0 0 1 .339.338c0 .09-.036.176-.1.239a.336.336 0 0 1-.239.099ZM152.714 233.114h-1.715a.338.338 0 0 1-.339-.338.346.346 0 0 1 .339-.338h1.715a.338.338 0 1 1 0 .676ZM169.684 233.114h-14.109a.334.334 0 0 1-.239-.099.335.335 0 0 1-.1-.239.346.346 0 0 1 .339-.338h14.109a.34.34 0 0 1 .339.338c0 .09-.036.176-.1.239a.336.336 0 0 1-.239.099ZM169.392 237.252h-5.81a.342.342 0 0 1-.24-.099.342.342 0 0 1-.099-.239.346.346 0 0 1 .339-.338h5.81a.342.342 0 0 1 .339.338.342.342 0 0 1-.099.239.342.342 0 0 1-.24.099Z" fill="#263238"/><path d="M169.778 237.61v-9.985a.923.923 0 0 0-.928-.926h-50.447a.677.677 0 1 1 0-1.352h87.517a.927.927 0 0 1 .929.926v12.736a1.486 1.486 0 0 1-.923 1.386 1.498 1.498 0 0 1-.575.115h-86.948a.677.677 0 1 1 0-1.352h49.877a1.509 1.509 0 0 0 1.398-.961c.073-.187.107-.387.1-.587Z" fill="#FF686B"/><path d="M205.351 240.848h-86.948a1.058 1.058 0 0 1-.792-.273 1.038 1.038 0 0 1 .367-1.749 1.04 1.04 0 0 1 .425-.053h49.877c.308-.002.603-.126.82-.343.218-.218.339-.513.339-.82v-9.985a.59.59 0 0 0-.589-.588h-50.447a1.04 1.04 0 1 1 0-2.075h87.517a1.266 1.266 0 0 1 1.268 1.264v12.783a1.844 1.844 0 0 1-1.837 1.839Zm-86.948-1.399a.366.366 0 1 0 0 .723h86.948a1.168 1.168 0 0 0 1.159-1.163v-12.783a.58.58 0 0 0-.173-.416.586.586 0 0 0-.417-.172h-87.517a.37.37 0 0 0-.383.21.362.362 0 0 0 .093.427.364.364 0 0 0 .29.086h50.481a1.263 1.263 0 0 1 1.267 1.264v9.985a1.839 1.839 0 0 1-1.837 1.839h-49.911ZM150.355 178.088s-7.01.23-17.179-2.251c-10.169-2.481-18.529-.676-20.108 9.011-1.58 9.687 24.406 19.604 42.48 23.214 18.075 3.61 36.163 5.178 44.976 1.352 8.813-3.826 8.583-17.576 5.193-23.89-3.39-6.314-14.684-7.206-20.562-6.273-5.878.933-34.8-1.163-34.8-1.163Z" fill="#263238"/><path d="M185.88 211.969c-10.393 0-22.454-1.994-30.393-3.576-18.203-3.63-44.379-13.641-42.759-23.599.611-3.725 2.245-6.489 4.848-8.206 3.546-2.346 8.969-2.704 15.681-1.082 10 2.44 17.017 2.251 17.084 2.244.292 0 28.956 2.028 34.725 1.136 5.254-.811 17.281-.284 20.915 6.483 2.115 3.934 3.18 11.005 1.126 16.9-1.241 3.556-3.485 6.131-6.482 7.436-3.728 1.649-8.983 2.264-14.745 2.264Zm-60.175-36.774c-3.146 0-5.77.676-7.756 1.967-2.441 1.616-3.973 4.225-4.549 7.754-1.485 9.106 23.565 19.104 42.216 22.828 12.271 2.448 34.406 5.875 44.745 1.352 2.82-1.23 4.935-3.657 6.102-7.037 1.972-5.665.915-12.668-1.078-16.379-3.465-6.449-15.119-6.916-20.21-6.138-5.824.899-33.464-1.021-34.861-1.122-.413 0-7.403.142-17.254-2.258a31.251 31.251 0 0 0-7.355-.967ZM196.002 135.73c-.968-6.499-1.937-12.993-2.909-19.482-.902-6.03-1.281-12.486-2.854-18.374-2.034-8.788-5.085-13.52-14.237-15.21-9.153-1.69-19.322 8.112-19.322 12.506s3.146 14.311-1.695 29.913c-1.654 5.334 4.746 6.084 12.481 3.725l28.536 6.922Z" fill="#263238"/><path d="M196.002 136.068h-.082l-28.474-6.895c-5.762 1.751-10.312 1.683-12.203-.176-.956-.953-1.173-2.305-.644-4.002 3.749-12.087 2.671-20.827 2.034-26.053a32.418 32.418 0 0 1-.346-3.758c0-2.13 2.203-5.409 5.485-8.112 2.183-1.805 7.932-5.888 14.237-4.733 9.545 1.758 12.549 7.004 14.508 15.46a91.529 91.529 0 0 1 2.115 12.676c.231 1.892.461 3.853.746 5.732l1.573 10.525 1.356 8.951a.343.343 0 0 1-.102.304.37.37 0 0 1-.203.081Zm-28.535-7.598h.081l28.047 6.841-1.261-8.457c-.529-3.506-1.053-7.017-1.573-10.532-.285-1.886-.515-3.846-.746-5.746a90.876 90.876 0 0 0-2.101-12.587c-1.946-8.396-4.746-13.263-13.973-14.967-4.176-.77-9.288.94-13.681 4.584-3.085 2.562-5.241 5.678-5.241 7.591.045 1.231.158 2.459.339 3.677.678 5.28 1.743 14.109-2.034 26.331-.447 1.446-.291 2.562.475 3.326 1.661 1.663 6.101 1.656 11.579 0a.262.262 0 0 1 .089-.061Z" fill="#263238"/><path d="M171.426 122.21s-11.186 1.521-16.44 2.873c-5.255 1.352-7.119 3.272-9.011 6.848-1.891 3.576-4.705 16.86-7.416 22.437-2.712 5.577-7.641 7.05-8.488 12.965-.848 5.915 3.898 7.943 7.457 8.619 2.635.448 5.296.73 7.966.845 0 0 5.763 13.52 16.949 14.534 11.186 1.014 19.491-6.76 24.576-9.633 5.085-2.873 5.424-9.464 5.593-17.069.169-7.605 4.678-24.708 3.491-29.44-1.186-4.732-2.962-5.509-10.664-9.464-3.295-1.669-9.267-3.853-14.013-3.515Z" fill="#FF686B"/><path d="M164.456 191.757c-.678 0-1.355 0-2.033-.088-10.516-.953-16.373-12.844-17.146-14.547a62.868 62.868 0 0 1-7.803-.839c-3.281-.622-8.644-2.623-7.736-8.997.509-3.515 2.407-5.516 4.414-7.639a21.161 21.161 0 0 0 4.108-5.455c1.438-2.954 2.936-8.2 4.265-12.844 1.166-4.056 2.271-7.93 3.152-9.613 1.864-3.542 3.803-5.597 9.234-6.997 5.207-1.352 16.366-2.866 16.474-2.879 4.658-.338 10.569 1.717 14.197 3.569l.677.345c7.072 3.609 8.977 4.583 10.17 9.322.678 2.764-.448 9.288-1.648 16.224-.867 4.955-1.756 10.072-1.83 13.33-.156 7.017-.319 14.277-5.763 17.353-1.023.575-2.156 1.352-3.471 2.224-4.779 3.211-11.193 7.531-19.261 7.531Zm7.004-69.216c-.407.061-11.288 1.555-16.386 2.867-5.214 1.352-6.997 3.217-8.814 6.651-.854 1.623-1.946 5.442-3.105 9.464-1.356 4.658-2.841 9.938-4.305 12.946a21.892 21.892 0 0 1-4.224 5.624c-2.033 2.13-3.762 3.961-4.23 7.267-.793 5.53 3.464 7.531 7.18 8.241 2.619.444 5.264.724 7.918.838a.337.337 0 0 1 .298.203c.055.135 5.817 13.344 16.664 14.331 8.814.797 15.776-3.907 20.868-7.335 1.356-.899 2.468-1.67 3.512-2.258 4.745-2.704 5.24-8.646 5.423-16.778.075-3.306.97-8.457 1.838-13.432 1.139-6.537 2.318-13.297 1.661-15.92-1.112-4.441-2.787-5.293-9.81-8.883l-.678-.344c-3.505-1.792-9.282-3.799-13.81-3.482Z" fill="#263238"/><path d="M136.26 157.829c-2.583 3.082-5.552 5.036-6.189 9.504a8.345 8.345 0 0 0 0 2.704c.678 1.041 2.82 3.509 6.955 2.332 5.18-1.48 4.624-8.673 1.478-13.101a3.166 3.166 0 0 0-2.244-1.439Z" fill="#fff"/><path d="M134.939 172.991a6.12 6.12 0 0 1-2.916-.746 6.092 6.092 0 0 1-2.203-2.046.303.303 0 0 1-.054-.128 8.675 8.675 0 0 1-.034-2.785c.508-3.515 2.407-5.523 4.42-7.639.61-.676 1.241-1.312 1.844-2.028a.328.328 0 0 1 .137-.101.321.321 0 0 1 .168-.021 3.54 3.54 0 0 1 2.509 1.555c2.203 3.103 3.037 7.267 2.034 10.14a5.328 5.328 0 0 1-3.689 3.488 8.025 8.025 0 0 1-2.216.311Zm-4.516-3.109c.678 1.054 2.712 3.217 6.536 2.136a4.63 4.63 0 0 0 2.012-1.116 4.6 4.6 0 0 0 1.222-1.947c.942-2.704.149-6.584-1.932-9.518a2.952 2.952 0 0 0-1.865-1.25 44.792 44.792 0 0 1-1.756 1.92c-2.034 2.129-3.762 3.968-4.23 7.273a7.723 7.723 0 0 0 .013 2.502Z" fill="#263238"/><path d="M170.633 145.032c4.745-2.163 7.308-5.902 9.491-12.993a67.144 67.144 0 0 0 1.932-7.794c-3.22-1.23-7.227-2.278-10.617-2.028 0 0-4.827.676-9.633 1.487-.4 2.488-1.356 9.572-.238 14.872 1.37 6.456 4.326 8.619 9.065 6.456Z" fill="#fff"/><path d="M167.406 146.181a4.661 4.661 0 0 1-2.129-.487c-1.919-.96-3.248-3.278-4.068-7.084-1.118-5.266-.21-12.215.237-14.967a.332.332 0 0 1 .272-.277c4.745-.825 9.599-1.487 9.647-1.494 3.966-.277 8.461 1.17 10.786 2.028a.344.344 0 0 1 .21.379 68.126 68.126 0 0 1-1.952 7.862c-2.258 7.354-4.963 11.052-9.661 13.202a8.237 8.237 0 0 1-3.342.838Zm-5.302-22.193c-.447 2.859-1.268 9.464-.203 14.48.752 3.542 1.993 5.773 3.695 6.625 1.322.676 2.928.541 4.915-.365 4.495-2.028 7.098-5.645 9.288-12.783a67.967 67.967 0 0 0 1.857-7.45c-2.332-.872-6.522-2.177-10.169-1.913-.061-.034-4.732.602-9.383 1.406ZM148.206 170.037a.312.312 0 0 1-.129 0 .337.337 0 0 1-.185-.181.319.319 0 0 1-.025-.129c0-.045.009-.088.027-.129.034-.081 3.39-8.416 3.39-10.688 0-1.595-.733-3.211-1.58-5.083a53 53 0 0 1-1.112-2.569c-1.173-3.015 1.492-7.727 1.858-8.349.163-1.223 1.986-14.797 3.749-17.332a.336.336 0 0 1 .348-.135.318.318 0 0 1 .12.054.337.337 0 0 1 .088.466c-1.709 2.461-3.627 16.961-3.641 17.103a.395.395 0 0 1-.047.128c0 .054-2.949 4.969-1.838 7.822.346.892.726 1.723 1.092 2.535.881 1.94 1.641 3.623 1.641 5.36 0 2.4-3.275 10.593-3.39 10.938a.327.327 0 0 1-.366.189Z" fill="#263238"/><path d="m132.104 153.137 2.543-2.704a27.83 27.83 0 0 0 5.254 2.197c6.868 2.278 10 3.718 10.339 7.774 0 0 4.576-2.873 9.152-2.366 4.576.507 8.644 2.366 10 2.535l1.356.169.339 2.366-2.542 13.351-19.831-2.028-13.559-11.83-3.051-9.464Z" fill="#fff"/><path d="M168.545 176.797h-.034l-19.831-2.028a.34.34 0 0 1-.189-.081l-13.559-11.83a.32.32 0 0 1-.102-.149l-3.051-9.464a.354.354 0 0 1 .081-.338l2.543-2.704a.34.34 0 0 1 .42-.054c1.65.895 3.388 1.62 5.186 2.163 6.78 2.251 9.939 3.698 10.509 7.544 1.288-.716 5.064-2.575 8.915-2.149 2.654.358 5.263.995 7.783 1.899.723.264 1.463.477 2.217.636l1.356.169a.348.348 0 0 1 .298.29l.339 2.366a.65.65 0 0 1 0 .108l-2.543 13.372a.33.33 0 0 1-.338.25Zm-19.661-2.704 19.41 1.981 2.474-12.993-.291-2.028-1.099-.142a15.4 15.4 0 0 1-2.345-.676 37.548 37.548 0 0 0-7.654-1.873c-4.407-.493-8.888 2.292-8.929 2.319a.345.345 0 0 1-.332 0 .334.334 0 0 1-.19-.27c-.319-3.84-3.329-5.233-10.108-7.484a32.156 32.156 0 0 1-5.085-2.089l-2.217 2.36 2.956 9.187 13.41 11.708Z" fill="#263238"/><path d="m131.257 152.63 16.101 13.689 1.695-2.704 23.051-.507-1.356 14.872-21.864-1.014-1.526 1.014-11.864-8.788-4.237-16.562Z" fill="#263238"/><path d="m170.748 178.318-21.756-1.014-1.43.953a.346.346 0 0 1-.393 0l-11.864-8.788a.319.319 0 0 1-.123-.189l-4.264-16.569a.332.332 0 0 1 .149-.371.325.325 0 0 1 .394.033l15.803 13.433 1.491-2.373a.339.339 0 0 1 .278-.156l23.051-.507a.356.356 0 0 1 .257.108.354.354 0 0 1 .088.257l-1.356 14.872a.345.345 0 0 1-.325.311Zm-21.864-1.69 21.539 1.001 1.294-14.196-22.487.493-1.6 2.549a.332.332 0 0 1-.374.147.347.347 0 0 1-.128-.066l-15.281-12.993 3.946 15.413 11.579 8.578 1.322-.885a.38.38 0 0 1 .19-.041Z" fill="#263238"/><path d="m187.358 148.067-.339 19.266s-10 5.577-15.593 7.098a36.888 36.888 0 0 1-9.491 1.521c-.509 0-2.712-3.549-3.899-4.732-1.186-1.183-2.142-1.203-4.311-2.285-3.024-1.507-4.333-1.771-4.163-1.095.169.676.339 1.352 1.864 2.197 1.526.845 2.543 1.521 2.543 1.521l.339.676s-3.729-.507-5.255-.845c-1.525-.338-5.423-3.042-5.423-3.042s-1.661-.101-.475 1.927c1.187 2.028 2.339 2.129 2.339 2.129a6.139 6.139 0 0 0 1.695 3.211 25.473 25.473 0 0 0 2.373 1.859s-3.22-.845-2.881 0c.339.845 2.372 1.183 4.915 2.366 2.542 1.183 8.305 1.352 11.525 1.859a81.169 81.169 0 0 0 17.627.338c6.779-.676 16.949-5.239 18.813-6.76 1.864-1.521.678-18.59.17-22.477-.509-3.887-1.526-11.154-2.204-14.534-.678-3.38-3.39-8.112-5.084-9.126-1.695-1.014-4.746 2.197-5.085 18.928Z" fill="#fff"/><path d="M173.629 182.699a75.417 75.417 0 0 1-10.555-.676c-.977-.156-2.204-.277-3.505-.406-2.949-.297-6.299-.635-8.136-1.48-.922-.426-1.762-.737-2.508-1.014-1.39-.521-2.305-.859-2.576-1.535a.52.52 0 0 1 .081-.581c.251-.291.915-.298 1.668-.19-.339-.27-.726-.588-1.153-.959a6.292 6.292 0 0 1-1.763-3.184c-.447-.149-1.396-.629-2.338-2.238-.495-.852-.604-1.48-.326-1.933a1.262 1.262 0 0 1 1.112-.501.293.293 0 0 1 .176.061c.034 0 3.858 2.67 5.302 2.988 1.112.25 3.457.588 4.59.751a43.174 43.174 0 0 0-2.441-1.461c-1.654-.912-1.858-1.71-2.034-2.406a.566.566 0 0 1 .176-.629c.224-.176.678-.547 4.461 1.352.739.372 1.356.615 1.858.825.951.31 1.82.83 2.542 1.521a24.58 24.58 0 0 1 1.966 2.481 13.862 13.862 0 0 0 1.763 2.163c3.164-.113 6.3-.624 9.335-1.521 5.092-1.352 14.007-6.233 15.343-6.97l.339-19.07c.223-10.91 1.701-17.92 4.067-19.218a1.482 1.482 0 0 1 1.539 0c1.824 1.088 4.57 5.982 5.241 9.349.671 3.366 1.708 10.762 2.21 14.554.224 1.724 1.952 20.956-.292 22.781-1.945 1.589-12.264 6.165-18.982 6.835-2.414.243-4.841.311-7.16.311Zm-26.569-5.253c.258.352 1.092.676 2.129 1.048.76.277 1.614.595 2.556 1.034 1.709.798 4.997 1.129 7.891 1.42 1.309.135 2.543.257 3.546.412a80.363 80.363 0 0 0 17.539.338c6.617-.676 16.732-5.137 18.63-6.685 1.593-1.298.678-17.184.048-22.173-.495-3.786-1.512-11.1-2.197-14.514-.685-3.414-3.39-7.984-4.929-8.896a.809.809 0 0 0-.861 0c-.786.439-3.39 3.069-3.708 18.644l-.339 19.266a.325.325 0 0 1-.176.284c-.095.061-10.095 5.617-15.668 7.132a37.74 37.74 0 0 1-9.579 1.534c-.4 0-.814-.493-2.238-2.433a25.511 25.511 0 0 0-1.898-2.4 6.1 6.1 0 0 0-2.325-1.352c-.536-.223-1.139-.467-1.905-.845-2.57-1.285-3.39-1.406-3.661-1.42.162.636.352 1.183 1.681 1.92 1.519.845 2.556 1.528 2.569 1.535a.418.418 0 0 1 .116.128l.339.676a.361.361 0 0 1 0 .352.337.337 0 0 1-.326.135c-.149 0-3.756-.514-5.281-.845-1.525-.332-4.841-2.616-5.424-3.036a.533.533 0 0 0-.226.047.528.528 0 0 0-.187.136c-.061.095-.143.412.332 1.23 1.064 1.819 2.074 1.967 2.081 1.967a.35.35 0 0 1 .299.278 5.862 5.862 0 0 0 1.586 3.015 24.367 24.367 0 0 0 2.339 1.832.34.34 0 0 1 .141.188.34.34 0 0 1-.419.42 8.312 8.312 0 0 0-2.481-.372h.006Z" fill="#263238"/><path d="M145.494 172.403s4.034 2.386 7.058 3.055l-7.058-3.055Z" fill="#fff"/><path d="M152.552 175.79h-.075c-3.037-.676-6.99-2.995-7.152-3.09a.343.343 0 0 1-.122-.466.334.334 0 0 1 .461-.115c.04 0 4.027 2.366 6.956 3.015a.34.34 0 0 1-.068.676v-.02Z" fill="#263238"/><path d="M149.562 177.473c1.281.478 2.627.757 3.993.825l-3.993-.825Z" fill="#fff"/><path d="M153.555 178.636a13.452 13.452 0 0 1-4.115-.852.339.339 0 0 1-.126-.545.319.319 0 0 1 .108-.077.33.33 0 0 1 .262-.007c1.242.463 2.547.735 3.871.805a.338.338 0 1 1 0 .676Z" fill="#263238"/><path d="M146.009 174.12a20.714 20.714 0 0 0 7.044 3.177l-7.044-3.177Z" fill="#fff"/><path d="M153.053 177.635h-.081a20.778 20.778 0 0 1-7.139-3.251.337.337 0 1 1 .414-.534 20.503 20.503 0 0 0 6.915 3.116c.043.01.084.028.121.054a.327.327 0 0 1 .129.352.34.34 0 0 1-.359.263Z" fill="#263238"/><path d="M182.768 181.739c6.624-1.224 15.105-5.091 16.793-6.463 1.864-1.521.678-18.59.17-22.477-.509-3.887-1.526-11.154-2.204-14.534-.678-3.38-3.39-8.112-5.084-9.126-1.695-1.014-4.746 2.197-5.085 18.928l-.339 19.266s-3.885 2.163-8.169 4.164c1.654 1.792 4.44 5.577 3.918 10.242Z" fill="#FF686B"/><path d="M182.768 182.077a.38.38 0 0 1-.23-.088.343.343 0 0 1-.102-.284c.502-4.523-2.19-8.193-3.837-9.978a.342.342 0 0 1-.082-.291.333.333 0 0 1 .19-.243c3.722-1.737 7.18-3.623 7.973-4.056l.339-19.07c.224-10.911 1.702-17.921 4.068-19.219a1.478 1.478 0 0 1 1.539 0c1.823 1.089 4.569 5.983 5.24 9.349.671 3.367 1.709 10.762 2.21 14.555.224 1.723 1.953 20.956-.291 22.781-1.804 1.474-10.393 5.327-16.949 6.537l-.068.007Zm-3.39-10.465c1.675 1.906 4.068 5.408 3.743 9.714 6.779-1.352 14.711-5.104 16.196-6.314 1.593-1.298.678-17.184.047-22.172-.494-3.786-1.511-11.1-2.196-14.514-.685-3.414-3.39-7.984-4.929-8.896a.809.809 0 0 0-.861 0c-.786.439-3.39 3.069-3.708 18.644l-.339 19.266a.325.325 0 0 1-.176.284c-.007.02-3.668 2.061-7.749 3.988h-.028Z" fill="#263238"/><path d="M165.412 120.202s-1.518 8.788-1.667 14.196c-.149 5.408 3.939 10.877 9.694 3.928 5.756-6.95 4.848-18.435 4.848-18.435a16.034 16.034 0 0 1-12.875.311Z" fill="#fff"/><path d="M168.294 141.956a3.539 3.539 0 0 1-1.288-.237c-2.183-.811-3.695-3.893-3.6-7.321.149-5.408 1.654-14.196 1.667-14.257a.383.383 0 0 1 .17-.236.348.348 0 0 1 .298 0 15.819 15.819 0 0 0 12.59-.291.343.343 0 0 1 .441.115c.03.047.049.1.054.156.04.473.854 11.701-4.922 18.677-2.197 2.637-4.034 3.394-5.41 3.394Zm-2.617-21.287c-.299 1.798-1.465 9.058-1.593 13.743-.089 3.15 1.24 5.955 3.159 6.679 1.735.676 3.79-.379 5.939-2.975 4.928-5.955 4.881-15.426 4.793-17.691a16.372 16.372 0 0 1-12.298.244Z" fill="#263238"/><path d="M165.711 131.572h-.054a.327.327 0 0 1-.221-.138.33.33 0 0 1-.057-.254c.44-2.501.149-7.125.149-7.172a.319.319 0 0 1 .015-.13.345.345 0 0 1 .065-.115.332.332 0 0 1 .232-.113.347.347 0 0 1 .359.317c0 .19.305 4.732-.156 7.328a.329.329 0 0 1-.332.277Z" fill="#263238"/><path d="M131.711 165.535a2.937 2.937 0 0 0-.113 1.186c.045.399.171.784.371 1.132.678 1.116 4.305 3.259 4.305 2.4 0-.858-1.81-2.028-1.898-2.656a5.089 5.089 0 0 0-.597-1.461s-1.295-1.629-2.068-.601Z" fill="#fff"/><path d="M136.044 170.787c-1.051 0-3.749-1.757-4.36-2.758a3.219 3.219 0 0 1-.291-2.602.4.4 0 0 1 .047-.095 1.081 1.081 0 0 1 .882-.473c.834 0 1.62.96 1.708 1.068.313.5.542 1.048.678 1.622.179.321.408.61.678.859.583.602 1.193 1.223 1.193 1.845a.515.515 0 0 1-.386.514.685.685 0 0 1-.149.02Zm-4.027-5.056a2.56 2.56 0 0 0 .244 1.981c.549.892 2.922 2.305 3.64 2.433a4.49 4.49 0 0 0-.962-1.23 2.817 2.817 0 0 1-.895-1.237 4.73 4.73 0 0 0-.556-1.352 2.13 2.13 0 0 0-1.16-.778.402.402 0 0 0-.311.183Z" fill="#263238"/><path d="M129.976 160.526s-.163 2.508.264 3.677c.427 1.17 4.963 4.293 6.102 3.698 1.139-.595-2.421-3.698-3.268-4.671a29.065 29.065 0 0 0-3.098-2.704Z" fill="#fff"/><path d="M135.996 168.313a3.434 3.434 0 0 1-1.193-.277c-1.715-.676-4.502-2.67-4.881-3.718-.448-1.224-.285-3.711-.278-3.813a.342.342 0 0 1 .196-.29.355.355 0 0 1 .346.04 29.976 29.976 0 0 1 3.173 2.772c.176.203.474.5.82.845 1.641 1.636 2.882 2.954 2.746 3.799a.676.676 0 0 1-.407.547 1.116 1.116 0 0 1-.522.095Zm-5.701-7.118c-.06.972.029 1.948.264 2.893.264.717 2.712 2.623 4.495 3.319.807.318 1.091.223 1.159.19.136-.622-1.654-2.407-2.508-3.266a22.294 22.294 0 0 1-.861-.878 24.272 24.272 0 0 0-2.549-2.258Z" fill="#263238"/><path d="M129.99 157.477s-.339 2.488 0 3.684c.339 1.197 4.644 4.631 5.85 4.117 1.207-.514-2.149-3.86-2.922-4.887a29.395 29.395 0 0 0-2.928-2.914Z" fill="#fff"/><path d="M135.549 165.67a3.149 3.149 0 0 1-1.275-.365c-1.668-.791-4.305-2.981-4.61-4.056-.359-1.251 0-3.718 0-3.826a.337.337 0 0 1 .217-.271.347.347 0 0 1 .339.061 30.21 30.21 0 0 1 2.976 2.968c.156.216.434.534.76.906 1.518 1.744 2.657 3.143 2.467 3.981a.712.712 0 0 1-.44.514 1.08 1.08 0 0 1-.434.088Zm-5.309-7.504a9.703 9.703 0 0 0 .061 2.907c.211.73 2.529 2.806 4.251 3.624.787.371 1.071.304 1.139.27.183-.615-1.471-2.515-2.271-3.434-.332-.385-.624-.717-.786-.94a23.849 23.849 0 0 0-2.394-2.427Z" fill="#263238"/><path d="M132.057 154.645s-2.583-1.352-3.01.344c-.427 1.697 1.545 3.516 3.356 4.976 1.81 1.46 2.576 1.196 2.576-.176 0-1.372-2.922-5.144-2.922-5.144Z" fill="#fff"/><path d="M134.267 161.283a3.784 3.784 0 0 1-2.081-1.055c-2.075-1.676-3.932-3.481-3.471-5.32a1.36 1.36 0 0 1 .779-.98c1.024-.453 2.549.331 2.712.419.045.02.083.053.108.095.312.392 2.997 3.907 2.997 5.347 0 .737-.21 1.203-.617 1.399a.942.942 0 0 1-.427.095Zm-4.068-6.821a1.196 1.196 0 0 0-.454.081.72.72 0 0 0-.4.527c-.366 1.481 1.431 3.171 3.241 4.631 1.254 1.007 1.688.926 1.796.879.109-.047.231-.358.231-.791 0-1.007-1.98-3.806-2.807-4.874a4.074 4.074 0 0 0-1.566-.453h-.041Z" fill="#263238"/><path d="M131.82 208.319s-3.39 1.805-9.715 2.028c-6.325.223-11.525-3.157-8.59-5.861a14.314 14.314 0 0 1 11.525-3.603c4.068.676 10.17 2.251 10.17 2.251l-3.39 5.185Z" fill="#fff"/><path d="M121.515 210.664c-4.237 0-8.135-1.575-9.003-3.704a2.377 2.377 0 0 1 .773-2.751 14.581 14.581 0 0 1 11.816-3.691c4.068.676 10.17 2.244 10.17 2.257a.355.355 0 0 1 .23.203.337.337 0 0 1-.034.311l-3.389 5.178a.336.336 0 0 1-.122.115c-.143.075-3.533 1.846-9.865 2.069l-.576.013Zm1.587-9.633a14.194 14.194 0 0 0-9.356 3.671 1.705 1.705 0 0 0-.604 2.028c.678 1.704 4.326 3.441 8.949 3.272 5.661-.203 8.97-1.697 9.492-1.954l3.078-4.732c-1.492-.372-6.312-1.568-9.682-2.129a11.568 11.568 0 0 0-1.877-.156Z" fill="#263238"/><path d="M132.728 202.654c.305.034.631.054.956.068-2.074-.514-5.837-1.406-8.644-1.873a14.306 14.306 0 0 0-11.525 3.603c-1.492 1.352-.875 2.934.922 4.097-.114-.949.09-1.91.581-2.732a4.341 4.341 0 0 1 2.131-1.811c3.823-1.771 11.735-1.771 15.579-1.352Z" fill="#fff"/><path d="M114.437 208.887a.36.36 0 0 1-.183-.055c-1.173-.757-1.83-1.642-1.912-2.555a2.53 2.53 0 0 1 .943-2.068 14.581 14.581 0 0 1 11.816-3.691c2.807.466 6.638 1.352 8.665 1.872a.344.344 0 0 1 .257.379.368.368 0 0 1-.352.29c-.332 0-.678-.033-.983-.074-4.068-.473-11.77-.385-15.41 1.352a3.98 3.98 0 0 0-2.502 4.205.338.338 0 0 1-.163.324.403.403 0 0 1-.176.021Zm8.664-7.856a14.193 14.193 0 0 0-9.355 3.671 1.861 1.861 0 0 0-.726 1.521 2.58 2.58 0 0 0 1.065 1.65 4.604 4.604 0 0 1 .824-2.519 4.63 4.63 0 0 1 2.077-1.652c3.146-1.481 8.624-1.738 12.563-1.609a97.579 97.579 0 0 0-4.563-.913 11.659 11.659 0 0 0-1.885-.149Z" fill="#263238"/><path d="M202.558 189.58s-6.78 10.14-13.559 14.196c-6.78 4.056-37.742 4.543-44.068 4.543H131.82v-4.732s20.793-2.961 32.318-9.464c11.525-6.503 17.627-13.743 26.664-16.677 9.037-2.934 16.949 2.028 16.725 14.196" fill="#263238"/><path d="M144.932 208.623H131.82a.34.34 0 0 1-.339-.338v-4.732a.342.342 0 0 1 .084-.22c.054-.06.127-.1.207-.111.211 0 20.861-3.002 32.197-9.424a118.404 118.404 0 0 0 12.25-8.213c4.929-3.637 9.186-6.76 14.481-8.491 4.543-1.473 8.78-1 11.939 1.352 3.478 2.569 5.336 7.254 5.227 13.189a.324.324 0 0 1-.346.331.34.34 0 0 1-.332-.345c.109-5.705-1.654-10.194-4.956-12.634-2.976-2.197-6.996-2.636-11.322-1.23-5.186 1.683-9.403 4.793-14.291 8.396a118.666 118.666 0 0 1-12.311 8.247c-10.712 6.084-29.573 9.079-32.149 9.464v4.103h12.773c.359 0 36.521-.047 43.89-4.461 6.638-3.969 13.383-13.987 13.451-14.088a.343.343 0 0 1 .214-.144.344.344 0 0 1 .349.141.326.326 0 0 1 0 .375c-.068.101-6.895 10.248-13.668 14.297-7.525 4.482-43.87 4.536-44.236 4.536Z" fill="#263238"/><path d="M178.233 207.427a.344.344 0 0 1-.249-.078.32.32 0 0 1-.083-.103.329.329 0 0 1-.024-.258.342.342 0 0 1 .295-.237 38.396 38.396 0 0 0 19.593-9.66.328.328 0 0 1 .24-.1.348.348 0 0 1 .241.1.335.335 0 0 1 .1.236.338.338 0 0 1-.1.237 39.028 39.028 0 0 1-19.939 9.836l-.074.027ZM200.537 194.955a.342.342 0 0 1-.335-.3.34.34 0 0 1 .071-.248 17.208 17.208 0 0 0 1.864-2.704.347.347 0 0 1 .455-.149.345.345 0 0 1 .172.194c.014.043.02.087.018.131a.352.352 0 0 1-.034.128 17.405 17.405 0 0 1-1.946 2.839.329.329 0 0 1-.265.109ZM157.359 197.246a.34.34 0 0 1-.339-.338.336.336 0 0 1 .339-.338 19.769 19.769 0 0 0 10.65-3.975.334.334 0 0 1 .475.034.343.343 0 0 1-.041.48 20.078 20.078 0 0 1-11.084 4.137Z" fill="#fff"/><path d="m127.82 179.967-.746-.074.746.074ZM127.82 180.305h-.034l-.739-.067a.35.35 0 0 1-.312-.365.351.351 0 0 1 .366-.311l.759.074a.34.34 0 0 1 .319.359.336.336 0 0 1-.359.317v-.007Z" fill="#263238"/><path d="M191.48 209.184a63.513 63.513 0 0 1 10.4-2.704c4.745-.676 8.582 0 9.938 2.934 1.356 2.934.455 6.53-4.291 7.436-4.746.906-13.336-.906-14.237-.906a6.667 6.667 0 0 1-2.258-.676l.448-6.084Z" fill="#fff"/><path d="M204.32 217.438a65.74 65.74 0 0 1-9.423-.933c-.8-.122-1.431-.223-1.607-.223a7.024 7.024 0 0 1-2.413-.676.334.334 0 0 1-.142-.134.324.324 0 0 1-.041-.19l.447-6.084a.354.354 0 0 1 .224-.298 64.232 64.232 0 0 1 10.467-2.704c5.424-.777 8.99.304 10.298 3.123a5.586 5.586 0 0 1 .062 4.915c-.55 1.075-1.797 2.46-4.604 2.994-1.08.169-2.174.24-3.268.21Zm-12.935-2.359a5.755 5.755 0 0 0 1.905.541c.573.047 1.143.124 1.709.229 2.874.447 8.854 1.352 12.467.676 2.034-.385 3.431-1.298 4.122-2.643a4.906 4.906 0 0 0-.074-4.319c-1.472-3.184-6.027-3.245-9.587-2.738a61.673 61.673 0 0 0-10.122 2.616l-.42 5.638Z" fill="#263238"/><path d="M206.347 206.291c1.444.554 4.17 2.075 3.668 5.584-.678 4.732-6.332 4.732-10.169 4.732a3.142 3.142 0 0 0-.841.121c2.847.332 6.162.555 8.522.109 4.745-.906 5.647-4.509 4.291-7.436-.901-1.92-2.868-2.867-5.471-3.11Z" fill="#fff"/><path d="M204.314 217.438a46.654 46.654 0 0 1-5.349-.365.338.338 0 0 1-.299-.311.357.357 0 0 1 .065-.219.362.362 0 0 1 .186-.133c.303-.081.615-.124.929-.128 3.878 0 9.193 0 9.83-4.441.461-3.211-1.966-4.651-3.45-5.226a.342.342 0 0 1-.177-.158.34.34 0 0 1-.034-.234.34.34 0 0 1 .36-.257c2.922.257 4.861 1.352 5.756 3.306.384.761.589 1.598.599 2.45a5.582 5.582 0 0 1-.538 2.464c-.55 1.075-1.797 2.461-4.604 2.995a17.522 17.522 0 0 1-3.274.257Zm-.068-.676a18.973 18.973 0 0 0 3.22-.243c2.034-.386 3.431-1.298 4.122-2.644a4.906 4.906 0 0 0-.074-4.319 4.8 4.8 0 0 0-3.187-2.549 4.986 4.986 0 0 1 1.733 2.17c.361.873.465 1.829.301 2.758-.488 3.313-3.2 4.442-6.115 4.827ZM125.271 174.938s-7.688-1.352-12.658 2.474c-4.969 3.826-4.291 7.889.455 13.75 4.745 5.861 16.949 16.224 43.389 20.956 26.44 4.732 34.576 3.15 34.576 3.15l.447-6.084a53.814 53.814 0 0 1-31.633-10.14c-14.8-10.816-21.397-17.921-32.027-19.077" fill="#263238"/><path d="M186.443 215.87c-4.902 0-14.156-.575-30.047-3.421-27.993-5.009-39.81-16.406-43.593-21.078-3.003-3.704-4.21-6.455-3.918-8.936.223-1.907 1.355-3.637 3.518-5.287 5.037-3.88 12.603-2.602 12.922-2.541a.31.31 0 0 1 .125.043.33.33 0 0 1 .153.342.336.336 0 0 1-.26.274.331.331 0 0 1-.133.003c-.075 0-7.593-1.278-12.387 2.413-1.993 1.535-3.064 3.117-3.267 4.834-.265 2.251.935 4.928 3.776 8.43 3.729 4.61 15.41 15.865 43.179 20.841 23.559 4.211 32.63 3.38 34.203 3.19l.4-5.441a54.958 54.958 0 0 1-31.471-10.215c-3.349-2.447-6.318-4.732-8.935-6.76-8.909-6.854-14.793-11.39-22.922-12.276a.344.344 0 0 1-.229-.125.337.337 0 0 1 .053-.478.339.339 0 0 1 .251-.073c8.318.906 14.237 5.482 23.26 12.411a473.51 473.51 0 0 0 8.922 6.76 53.968 53.968 0 0 0 31.423 10.073.347.347 0 0 1 .258.101.366.366 0 0 1 .075.122.363.363 0 0 1 .02.142l-.448 6.084a.342.342 0 0 1-.278.304 27.184 27.184 0 0 1-4.65.264Z" fill="#263238"/><path d="M122.444 180.684a.332.332 0 0 1-.332-.277.326.326 0 0 1 .052-.253.32.32 0 0 1 .219-.139 18.94 18.94 0 0 1 2.467-.297.346.346 0 0 1 .36.324.337.337 0 0 1-.326.352c-.798.043-1.593.138-2.379.283l-.061.007ZM188.205 209.414c-.156 0-15.904-.5-33.416-13.932-12.203-9.342-19.593-13.622-25.586-14.777a.351.351 0 0 1-.221-.145.344.344 0 0 1 .35-.531c6.101 1.176 13.6 5.495 25.864 14.905 17.342 13.297 32.867 13.784 33.023 13.791a.339.339 0 0 1 .24.101.343.343 0 0 1 .092.243.346.346 0 0 1-.346.345ZM188.056 110.806c-4.162 2.19-4.745-2.204-4.712-4.854a.236.236 0 0 0 .089-.115c.298-1.217 0-7.287-3.505-9.72-3.092-2.144-7.187-3.99-11.01-3.996-2.712 0-5.085 1.71-6.529 3.887-1.715 2.59-1.573 5.591-1.709 8.579-.135 2.987-.427 6.286.17 9.281.8 3.988 4.535 12.364 9.071 12.364 4.115 0 11.423-6.138 13.932-9.755a4.42 4.42 0 0 0 1.539-.885c.935-.798 2.8-2.123 2.664-4.786Z" fill="#fff"/><path d="M169.921 126.57c-4.888 0-8.658-8.916-9.404-12.641-.528-2.643-.379-5.448-.237-8.166l.061-1.19.041-1.189c.095-2.576.183-5.24 1.729-7.565 1.674-2.528 4.217-4.056 6.779-4.056 3.39 0 7.492 1.487 11.2 4.056 3.708 2.569 3.973 8.788 3.641 10.079a.604.604 0 0 1-.075.163c0 1.494.21 3.974 1.478 4.732.678.405 1.58.297 2.712-.311a.319.319 0 0 1 .325 0 .33.33 0 0 1 .17.277c.135 2.623-1.553 4.056-2.563 4.874l-.224.182a4.63 4.63 0 0 1-1.545.913c-2.373 3.461-9.648 9.842-14.088 9.842Zm-1.038-34.11c-2.352 0-4.684 1.399-6.237 3.731-1.437 2.17-1.518 4.624-1.613 7.22l-.041 1.196-.061 1.19c-.142 2.704-.292 5.408.224 8.004.847 4.218 4.596 12.093 8.739 12.093 3.857 0 11.023-5.813 13.654-9.612a.31.31 0 0 1 .176-.129 3.926 3.926 0 0 0 1.417-.818l.23-.189c.895-.744 2.21-1.845 2.319-3.799a3.089 3.089 0 0 1-2.909.054c-1.505-.913-1.81-3.468-1.803-5.449a.36.36 0 0 1 .115-.25c.278-1.129-.088-7.017-3.389-9.308-3.594-2.495-7.539-3.928-10.814-3.934h-.007Z" fill="#263238"/><path d="M168.884 115.166a1.422 1.422 0 0 1-.739-.156.614.614 0 0 1-.299-.412c-.135-.676 1.302-5.192 1.743-6.557a.342.342 0 0 1 .17-.194.335.335 0 0 1 .474.403c-.888 2.704-1.776 5.794-1.722 6.22a4.73 4.73 0 0 0 1.973-.264.344.344 0 0 1 .132-.014.337.337 0 0 1 .288.244c.012.042.016.087.012.131a.35.35 0 0 1-.125.227.35.35 0 0 1-.118.061 7.248 7.248 0 0 1-1.789.311ZM170.328 117.85a4.085 4.085 0 0 1-2.346-.676.337.337 0 0 1 .155-.605c.089-.013.18.01.252.064.094.067 2.332 1.649 5.999-1.061a.343.343 0 0 1 .252-.065.353.353 0 0 1 .125.044.358.358 0 0 1 .098.088.342.342 0 0 1-.075.473 7.511 7.511 0 0 1-4.46 1.738ZM177.379 112.165a3.842 3.842 0 0 1-3.499-1.879.336.336 0 0 1 .29-.48.33.33 0 0 1 .32.189c.055.108 1.282 2.488 5.18 1.027a.341.341 0 0 1 .428.457.351.351 0 0 1-.191.179 7.227 7.227 0 0 1-2.528.507ZM165.338 109.123c-2.936 0-3.607-2.184-3.614-2.211a.34.34 0 0 1 .034-.257.34.34 0 0 1 .204-.162.338.338 0 0 1 .413.23c0 .108.787 2.461 4.665 1.494a.347.347 0 1 1 .162.676 7.754 7.754 0 0 1-1.864.23ZM169.609 105.033a.351.351 0 0 1-.204-.072.338.338 0 0 1-.121-.178s-.678-2.251-2.387-2.975c-1.017-.419-2.237-.25-3.613.521a.346.346 0 0 1-.461-.135.34.34 0 0 1 .128-.46c1.573-.872 2.99-1.055 4.211-.548 2.033.852 2.745 3.313 2.779 3.421a.338.338 0 0 1-.237.412l-.095.014Z" fill="#263238"/><path d="M176.456 116.201a5.683 5.683 0 0 1-5.242-3.493 5.639 5.639 0 0 1 1.23-6.166 5.668 5.668 0 0 1 2.905-1.549 5.696 5.696 0 0 1 3.279.322 5.661 5.661 0 0 1 3.503 5.227 5.656 5.656 0 0 1-1.664 3.999 5.69 5.69 0 0 1-4.011 1.66Zm0-10.641a5.004 5.004 0 0 0-4.616 3.076 4.967 4.967 0 0 0 1.083 5.429 5 5 0 0 0 5.445 1.08 4.99 4.99 0 0 0 2.243-1.835 4.97 4.97 0 0 0 .842-2.768 4.984 4.984 0 0 0-1.468-3.516 5.01 5.01 0 0 0-3.529-1.459v-.007ZM164.185 113.807a5.682 5.682 0 0 1-3.152-.953 5.659 5.659 0 0 1-2.09-2.539 5.641 5.641 0 0 1 1.23-6.167 5.674 5.674 0 0 1 2.905-1.548 5.696 5.696 0 0 1 3.279.322 5.661 5.661 0 0 1 3.503 5.227 5.666 5.666 0 0 1-1.666 3.997 5.693 5.693 0 0 1-4.009 1.661Zm0-10.64a5.004 5.004 0 0 0-4.616 3.076 4.967 4.967 0 0 0 1.083 5.429 5.007 5.007 0 0 0 7.688-.755 4.97 4.97 0 0 0 .842-2.768 4.983 4.983 0 0 0-1.466-3.521 5.009 5.009 0 0 0-3.531-1.461Z" fill="#263238"/><path d="M181.521 111.942a.345.345 0 0 1-.215-.081.345.345 0 0 1-.118-.197.339.339 0 0 1 .272-.392l4.406-.797a.339.339 0 0 1 .394.27.34.34 0 0 1-.272.392l-4.406.798-.061.007ZM158.985 107.156a.347.347 0 0 1-.271-.135.337.337 0 0 1 .068-.474l1.6-1.196a.34.34 0 0 1 .475.067.345.345 0 0 1-.068.474l-1.6 1.196a.34.34 0 0 1-.204.068Z" fill="#263238"/><path d="M164.24 94.143s4.745-2.88 6.4-.15c1.654 2.732 9.254 20.876 17.416 16.813 8.163-4.063-.061-17.42-7.979-21.672-7.919-4.253-14.583-.609-15.837 5.009Z" fill="#263238"/><path d="M185.629 111.739c-6.264 0-11.735-10.708-14.237-15.616-.448-.879-.807-1.575-1.037-1.954a1.995 1.995 0 0 0-1.295-.932c-1.892-.46-4.61 1.183-4.637 1.196a.342.342 0 0 1-.493-.165.336.336 0 0 1-.016-.193 8.865 8.865 0 0 1 1.781-3.705 8.901 8.901 0 0 1 3.263-2.508c3.295-1.514 7.302-1.17 11.288.974 5.519 2.967 11.627 10.694 11.525 16.609a6.077 6.077 0 0 1-3.559 5.665c-.8.408-1.685.623-2.583.629Zm-17.295-19.26c.297-.002.593.03.882.095a2.678 2.678 0 0 1 1.708 1.244c.244.399.61 1.102 1.065 2.028 2.759 5.408 9.213 18.022 15.918 14.683a5.425 5.425 0 0 0 2.358-2.053 5.395 5.395 0 0 0 .828-3.011c.088-5.678-5.823-13.134-11.172-16.007-3.797-2.028-7.594-2.373-10.685-.954a8.273 8.273 0 0 0-4.468 4.996 8.746 8.746 0 0 1 3.566-1.02Z" fill="#263238"/><path d="M163.148 93.575a.34.34 0 0 1-.339-.338 3.377 3.377 0 0 1 1.709-2.603c1.742-1.162 4.501 1.136 4.616 1.23.07.058.113.14.121.23a.333.333 0 0 1-.077.247.336.336 0 0 1-.477.044c-.678-.581-2.712-1.92-3.811-1.19a2.75 2.75 0 0 0-1.403 2.028.326.326 0 0 1-.092.25.33.33 0 0 1-.247.102ZM190.314 107.25h-.089a7.467 7.467 0 0 1-2.033-.912.341.341 0 0 1-.167-.35.346.346 0 0 1 .049-.127.354.354 0 0 1 .222-.149.333.333 0 0 1 .262.058 6.778 6.778 0 0 0 1.871.825.335.335 0 0 1 .227.13.35.35 0 0 1 .068.251.343.343 0 0 1-.383.295l-.027-.021ZM185.528 103.627a.342.342 0 0 1-.272-.135 48.374 48.374 0 0 1-3.762-6.53 83.88 83.88 0 0 0-4.143-7.437c-1.749-2.704-3.606-4.157-5.518-4.306a5.054 5.054 0 0 0-3.776 1.508.33.33 0 0 1-.367.075.33.33 0 0 1-.108-.075.34.34 0 0 1-.1-.237.333.333 0 0 1 .1-.236 5.593 5.593 0 0 1 4.332-1.738c2.136.17 4.163 1.724 6.034 4.617a83.453 83.453 0 0 1 4.176 7.436 47.423 47.423 0 0 0 3.702 6.436.345.345 0 0 1-.068.473.333.333 0 0 1-.23.149ZM182.361 105.351a.336.336 0 0 1-.23-.095 5.716 5.716 0 0 0-6.542-1.007.346.346 0 0 1-.5-.269.341.341 0 0 1 .181-.333 6.52 6.52 0 0 1 7.329 1.122.338.338 0 0 1-.238.582Z" fill="#fff"/><path d="M182.022 162.351c-8.501 0-13.762-6.436-13.816-6.497a.341.341 0 0 1 .081-.445.347.347 0 0 1 .454.02c.048.06 5.112 6.246 13.281 6.246a.336.336 0 0 1 .339.338.338.338 0 0 1-.339.338ZM280.536 286.816H46.567a.337.337 0 0 1-.24-.577.341.341 0 0 1 .24-.099h233.969a.34.34 0 0 1 .24.577.338.338 0 0 1-.24.099Z" fill="#263238"/></svg>