<svg width="226" height="51" fill="none" xmlns="http://www.w3.org/2000/svg"><path d="M52.344 14.344c.448.021 1.035.043 1.76.064.725.021 1.44.032 2.144.032 1.003 0 1.963-.01 2.88-.032a96.936 96.936 0 0 1 1.952-.032c2.24 0 3.925.47 5.056 1.408 1.13.939 1.696 2.144 1.696 3.616 0 .747-.16 1.483-.48 2.208-.299.704-.81 1.355-1.536 1.952-.704.576-1.653 1.045-2.848 1.408v.064c1.685.213 2.997.619 3.936 1.216.96.576 1.632 1.259 2.016 2.048.384.79.576 1.621.576 2.496 0 1.216-.31 2.293-.928 3.232-.597.917-1.472 1.643-2.624 2.176-1.152.533-2.528.8-4.128.8-.47 0-1.173-.01-2.112-.032a76.288 76.288 0 0 0-3.392-.064c-.747 0-1.483.01-2.208.032-.725 0-1.312.021-1.76.064v-.64c.725-.043 1.27-.128 1.632-.256.384-.128.64-.384.768-.768s.192-.96.192-1.728V17.736c0-.79-.064-1.365-.192-1.728a1.154 1.154 0 0 0-.768-.768c-.363-.15-.907-.235-1.632-.256v-.64Zm7.936.64c-.981 0-1.621.181-1.92.544-.299.363-.448 1.099-.448 2.208v15.872c0 .747.064 1.312.192 1.696.128.384.363.64.704.768.341.128.843.192 1.504.192 2.09 0 3.605-.48 4.544-1.44.96-.981 1.44-2.368 1.44-4.16 0-1.643-.448-2.912-1.344-3.808-.875-.896-2.325-1.344-4.352-1.344h-3.296v-.544h2.752c1.259 0 2.23-.235 2.912-.704a3.727 3.727 0 0 0 1.408-1.92 8.56 8.56 0 0 0 .384-2.592c0-1.579-.352-2.763-1.056-3.552-.683-.81-1.824-1.216-3.424-1.216Zm19.425 5.088c1.366 0 2.593.299 3.68.896 1.088.597 1.953 1.536 2.593 2.816.66 1.28.992 2.944.992 4.992s-.331 3.712-.992 4.992c-.64 1.259-1.504 2.187-2.593 2.784-1.088.597-2.314.896-3.68.896-1.343 0-2.57-.299-3.68-.896-1.088-.597-1.962-1.525-2.624-2.784-.64-1.28-.96-2.944-.96-4.992s.32-3.712.96-4.992c.662-1.28 1.537-2.219 2.624-2.816 1.11-.597 2.337-.896 3.68-.896Zm0 .64c-1.215 0-2.218.63-3.007 1.888-.768 1.259-1.152 3.317-1.152 6.176s.383 4.917 1.151 6.176c.79 1.237 1.793 1.856 3.008 1.856 1.216 0 2.209-.619 2.977-1.856.789-1.259 1.183-3.317 1.183-6.176s-.394-4.917-1.183-6.176c-.769-1.259-1.76-1.888-2.977-1.888Zm17.532-.64c1.365 0 2.592.299 3.68.896s1.952 1.536 2.592 2.816c.661 1.28.992 2.944.992 4.992s-.331 3.712-.992 4.992c-.64 1.259-1.504 2.187-2.592 2.784s-2.315.896-3.68.896c-1.344 0-2.57-.299-3.68-.896-1.088-.597-1.963-1.525-2.624-2.784-.64-1.28-.96-2.944-.96-4.992s.32-3.712.96-4.992c.661-1.28 1.536-2.219 2.624-2.816 1.11-.597 2.336-.896 3.68-.896Zm0 .64c-1.216 0-2.219.63-3.008 1.888-.768 1.259-1.152 3.317-1.152 6.176s.384 4.917 1.152 6.176c.79 1.237 1.792 1.856 3.008 1.856s2.208-.619 2.976-1.856c.789-1.259 1.184-3.317 1.184-6.176s-.395-4.917-1.184-6.176c-.768-1.259-1.76-1.888-2.976-1.888Zm14.403-8.8v22.112c0 .896.16 1.504.48 1.824.32.32.864.48 1.632.48V37a54.132 54.132 0 0 0-1.536-.064 31.316 31.316 0 0 0-2.016-.064c-.726 0-1.462.021-2.208.064-.747.021-1.302.043-1.664.064v-.672c.874 0 1.493-.16 1.856-.48.384-.32.576-.928.576-1.824V15.752c0-.96-.171-1.664-.512-2.112-.342-.47-.982-.704-1.92-.704v-.672c.682.064 1.344.096 1.984.096.618 0 1.205-.032 1.76-.096a10.048 10.048 0 0 0 1.568-.352Zm10.176 8.608v.64a3.723 3.723 0 0 0-1.504.448c-.47.235-.928.587-1.376 1.056l-4.512 4.736.448-.896 5.952 8.16c.362.49.704.875 1.023 1.152.342.277.747.448 1.217.512V37a25.642 25.642 0 0 0-1.12-.064 16.988 16.988 0 0 0-1.472-.064c-.662 0-1.334.021-2.016.064-.683.021-1.195.043-1.536.064v-.672c.426 0 .725-.107.896-.32.17-.213.138-.47-.096-.768l-3.68-5.376c-.406-.576-.779-.95-1.12-1.12-.32-.17-.79-.267-1.408-.288v-.64c.682-.085 1.237-.224 1.664-.416a4.405 4.405 0 0 0 1.216-.928l2.368-2.464c.682-.704 1.024-1.259 1.024-1.664 0-.427-.224-.725-.672-.896-.427-.192-.992-.288-1.696-.288v-.64c.554.021 1.173.053 1.856.096.704.021 1.29.032 1.76.032h1.056c.341-.021.661-.043.96-.064.298-.021.554-.043.768-.064Zm18.777-6.176c-.085.81-.149 1.6-.192 2.368a66.358 66.358 0 0 0-.032 1.728c0 .512.011.992.032 1.44.022.448.043.843.064 1.184h-.736c-.149-1.493-.352-2.667-.608-3.52-.256-.875-.704-1.504-1.344-1.888-.64-.384-1.632-.576-2.976-.576h-2.016c-.725 0-1.28.064-1.664.192-.362.107-.608.352-.736.736-.128.363-.192.939-.192 1.728v15.872c0 .768.075 1.344.224 1.728.171.384.491.64.96.768.47.128 1.152.213 2.048.256V37a28.435 28.435 0 0 0-2.112-.064 103.84 103.84 0 0 0-2.592-.032c-.832 0-1.61.01-2.336.032-.725 0-1.312.021-1.76.064v-.64c.726-.043 1.27-.128 1.632-.256.384-.128.64-.384.768-.768s.192-.96.192-1.728V17.736c0-.79-.064-1.365-.192-1.728a1.154 1.154 0 0 0-.768-.768c-.362-.15-.906-.235-1.632-.256v-.64c.79.021 1.622.043 2.496.064.875 0 1.739.01 2.592.032h7.52a127.92 127.92 0 0 0 3.36-.096Zm-4.96 11.264v.64h-6.4v-.64h6.4Zm.608-4.224c-.085 1.216-.128 2.144-.128 2.784.022.64.032 1.227.032 1.76 0 .533.011 1.12.032 1.76.022.64.075 1.568.16 2.784h-.736a27.339 27.339 0 0 0-.32-1.984c-.106-.661-.362-1.195-.768-1.6-.384-.427-1.045-.64-1.984-.64v-.64c.704 0 1.238-.139 1.6-.416.384-.299.662-.672.832-1.12.171-.448.288-.907.352-1.376a37.8 37.8 0 0 1 .192-1.312h.736Zm9.835-8.864c.555 0 1.035.203 1.44.608.405.405.608.885.608 1.44a1.97 1.97 0 0 1-.608 1.44 1.967 1.967 0 0 1-1.44.608 1.967 1.967 0 0 1-1.44-.608 1.97 1.97 0 0 1-.608-1.44c0-.555.203-1.035.608-1.44a1.967 1.967 0 0 1 1.44-.608Zm1.664 7.648v13.856c0 .896.181 1.504.544 1.824.384.32 1.013.48 1.888.48V37a60.763 60.763 0 0 0-1.664-.064 37.552 37.552 0 0 0-4.416 0c-.747.021-1.301.043-1.664.064v-.672c.875 0 1.493-.16 1.856-.48.384-.32.576-.928.576-1.824V24.008c0-.96-.171-1.664-.512-2.112-.341-.47-.981-.704-1.92-.704v-.672a21.27 21.27 0 0 0 1.984.096c.619 0 1.205-.032 1.76-.096a10.022 10.022 0 0 0 1.568-.352Zm14.815-.096c.811 0 1.483.107 2.016.32a3.67 3.67 0 0 1 1.376.896c.405.427.693.96.864 1.6.171.64.256 1.504.256 2.592v8.544c0 .896.181 1.504.544 1.824.384.32 1.013.48 1.888.48V37a60.763 60.763 0 0 0-1.664-.064 38.14 38.14 0 0 0-2.176-.064c-.704 0-1.397.021-2.08.064-.661.021-1.163.043-1.504.064v-.672c.768 0 1.312-.16 1.632-.48.32-.32.48-.928.48-1.824v-9.248c0-.661-.053-1.27-.16-1.824-.107-.555-.352-1.003-.736-1.344-.363-.341-.928-.512-1.696-.512-.896 0-1.685.256-2.368.768-.661.512-1.184 1.216-1.568 2.112-.363.875-.544 1.856-.544 2.944v7.104c0 .896.16 1.504.48 1.824.32.32.864.48 1.632.48V37a53.797 53.797 0 0 0-1.536-.064 31.79 31.79 0 0 0-2.048-.064c-.704 0-1.429.021-2.176.064-.747.021-1.301.043-1.664.064v-.672c.875 0 1.493-.16 1.856-.48.384-.32.576-.928.576-1.824V24.008c0-.96-.171-1.664-.512-2.112-.341-.47-.981-.704-1.92-.704v-.672a21.27 21.27 0 0 0 1.984.096c.619 0 1.205-.032 1.76-.096a10.022 10.022 0 0 0 1.568-.352v3.776c.555-1.45 1.323-2.453 2.304-3.008 1.003-.576 2.048-.864 3.136-.864Zm22.902-8.16v21.6c0 .96.17 1.675.512 2.144.362.448 1.002.672 1.92.672V37a20.6 20.6 0 0 0-1.984-.096c-.619 0-1.216.032-1.792.096a6.735 6.735 0 0 0-1.536.352v-21.6c0-.96-.171-1.664-.512-2.112-.342-.47-.982-.704-1.92-.704v-.672c.682.064 1.344.096 1.984.096.618 0 1.205-.032 1.76-.096a10.048 10.048 0 0 0 1.568-.352Zm-6.72 8.16c.938 0 1.813.224 2.624.672.832.448 1.386 1.216 1.664 2.304l-.416.32c-.299-.896-.768-1.547-1.408-1.952-.619-.405-1.355-.608-2.208-.608-1.259 0-2.315.65-3.168 1.952-.832 1.301-1.238 3.307-1.216 6.016 0 1.728.16 3.168.48 4.32.341 1.13.832 1.984 1.472 2.56.661.555 1.461.832 2.4.832.896 0 1.706-.384 2.432-1.152.725-.768 1.162-1.899 1.312-3.392l.384.448c-.171 1.621-.694 2.87-1.568 3.744-.854.875-2.016 1.312-3.488 1.312-1.323 0-2.486-.32-3.488-.96-.982-.64-1.739-1.6-2.272-2.88-.512-1.28-.768-2.89-.768-4.832 0-1.941.33-3.552.992-4.832.682-1.301 1.568-2.272 2.656-2.912a7.051 7.051 0 0 1 3.584-.96Zm18.53 0c1.877 0 3.338.576 4.384 1.728 1.066 1.13 1.6 2.901 1.6 5.312h-11.296l-.032-.608h8.256c.042-1.045-.043-2.005-.256-2.88-.214-.896-.555-1.61-1.024-2.144-.448-.533-1.035-.8-1.76-.8-.982 0-1.856.49-2.624 1.472-.747.981-1.195 2.539-1.344 4.672l.095.128c-.042.32-.074.672-.095 1.056-.022.384-.032.768-.032 1.152 0 1.45.234 2.699.704 3.744.469 1.045 1.077 1.845 1.824 2.4.768.533 1.557.8 2.368.8a5.73 5.73 0 0 0 1.824-.288 4.647 4.647 0 0 0 1.6-1.024c.49-.47.917-1.099 1.28-1.888l.64.256c-.235.704-.619 1.387-1.152 2.048a6.364 6.364 0 0 1-2.016 1.632c-.811.405-1.75.608-2.816.608-1.536 0-2.859-.352-3.968-1.056-1.088-.704-1.931-1.675-2.528-2.912-.576-1.259-.864-2.699-.864-4.32 0-1.877.298-3.488.896-4.832.597-1.365 1.44-2.41 2.528-3.136 1.088-.747 2.357-1.12 3.808-1.12Zm18.363 0c.576 0 1.077.117 1.504.352.448.235.789.544 1.024.928.256.363.384.779.384 1.248 0 .533-.171 1.003-.512 1.408-.32.405-.757.608-1.312.608-.448 0-.843-.139-1.184-.416-.341-.299-.512-.715-.512-1.248 0-.405.107-.747.32-1.024.235-.299.491-.533.768-.704-.149-.213-.373-.32-.672-.32-.661 0-1.269.203-1.824.608a5.012 5.012 0 0 0-1.408 1.504A8.308 8.308 0 0 0 211.31 25c-.213.683-.32 1.323-.32 1.92v6.784c0 1.045.299 1.75.896 2.112.619.341 1.451.512 2.496.512V37c-.491-.021-1.184-.043-2.08-.064a59.95 59.95 0 0 0-2.848-.064c-.725 0-1.451.021-2.176.064-.704.021-1.237.043-1.6.064v-.672c.875 0 1.493-.16 1.856-.48.384-.32.576-.928.576-1.824V24.008c0-.96-.171-1.664-.512-2.112-.341-.47-.981-.704-1.92-.704v-.672a21.27 21.27 0 0 0 1.984.096c.619 0 1.205-.032 1.76-.096a10.022 10.022 0 0 0 1.568-.352v4a8.741 8.741 0 0 1 .992-1.856 6.33 6.33 0 0 1 1.6-1.6 3.529 3.529 0 0 1 2.048-.64Zm6.215 13.28a1.97 1.97 0 0 1 1.44.608c.405.405.608.885.608 1.44a1.97 1.97 0 0 1-.608 1.44 1.97 1.97 0 0 1-1.44.608 1.967 1.967 0 0 1-1.44-.608 1.965 1.965 0 0 1-.608-1.44c0-.555.202-1.035.608-1.44a1.967 1.967 0 0 1 1.44-.608Z" fill="url('#paint0_linear_11_7075')"/><path d="M6.375 40.375a19.125 19.125 0 0 1 19.125 0 19.125 19.125 0 0 1 19.125 0M6.375 12.75a19.125 19.125 0 0 1 19.125 0 19.125 19.125 0 0 1 19.125 0m-38.25 0v27.625V12.75Zm19.125 0v27.625V12.75Zm19.125 0v27.625V12.75Z" fill="url('#paint1_linear_11_7075')"/><path d="M25.5 40.375a19.125 19.125 0 0 0-19.125 0V12.75a19.125 19.125 0 0 1 19.125 0m0 27.625a19.125 19.125 0 0 1 19.125 0V12.75a19.125 19.125 0 0 0-19.125 0m0 27.625V12.75" stroke="#FF686B" stroke-width="2" stroke-linecap="round" stroke-linejoin="round"/><defs><linearGradient id="paint0_linear_11_7075" x1="138.5" y1="2" x2="138.5" y2="45" gradientUnits="userSpaceOnUse"><stop stop-color="#FF686B"/><stop offset="1" stop-color="#FB3464"/></linearGradient><linearGradient id="paint1_linear_11_7075" x1="25.5" y1="10.188" x2="25.5" y2="40.375" gradientUnits="userSpaceOnUse"><stop stop-color="#FF686B"/><stop offset="1" stop-color="#FB3464"/></linearGradient></defs></svg>