<svg width="226" height="51" viewBox="0 0 226 51" fill="none" xmlns="http://www.w3.org/2000/svg">
<path d="M52.344 14.344C52.792 14.3653 53.3787 14.3867 54.104 14.408C54.8293 14.4293 55.544 14.44 56.248 14.44C57.2507 14.44 58.2107 14.4293 59.128 14.408C60.0453 14.3867 60.696 14.376 61.08 14.376C63.32 14.376 65.0053 14.8453 66.136 15.784C67.2667 16.7227 67.832 17.928 67.832 19.4C67.832 20.1467 67.672 20.8827 67.352 21.608C67.0533 22.312 66.5413 22.9627 65.816 23.56C65.112 24.136 64.1627 24.6053 62.968 24.968V25.032C64.6533 25.2453 65.9653 25.6507 66.904 26.248C67.864 26.824 68.536 27.5067 68.92 28.296C69.304 29.0853 69.496 29.9173 69.496 30.792C69.496 32.008 69.1867 33.0853 68.568 34.024C67.9707 34.9413 67.096 35.6667 65.944 36.2C64.792 36.7333 63.416 37 61.816 37C61.3467 37 60.6427 36.9893 59.704 36.968C58.7653 36.9253 57.6347 36.904 56.312 36.904C55.5653 36.904 54.8293 36.9147 54.104 36.936C53.3787 36.936 52.792 36.9573 52.344 37V36.36C53.0693 36.3173 53.6133 36.232 53.976 36.104C54.36 35.976 54.616 35.72 54.744 35.336C54.872 34.952 54.936 34.376 54.936 33.608V17.736C54.936 16.9467 54.872 16.3707 54.744 16.008C54.616 15.624 54.36 15.368 53.976 15.24C53.6133 15.0907 53.0693 15.0053 52.344 14.984V14.344ZM60.28 14.984C59.2987 14.984 58.6587 15.1653 58.36 15.528C58.0613 15.8907 57.912 16.6267 57.912 17.736V33.608C57.912 34.3547 57.976 34.92 58.104 35.304C58.232 35.688 58.4667 35.944 58.808 36.072C59.1493 36.2 59.6507 36.264 60.312 36.264C62.4027 36.264 63.9173 35.784 64.856 34.824C65.816 33.8427 66.296 32.456 66.296 30.664C66.296 29.0213 65.848 27.752 64.952 26.856C64.0773 25.96 62.6267 25.512 60.6 25.512H57.304C57.304 25.512 57.304 25.4267 57.304 25.256C57.304 25.064 57.304 24.968 57.304 24.968H60.056C61.3147 24.968 62.2853 24.7333 62.968 24.264C63.6507 23.7733 64.12 23.1333 64.376 22.344C64.632 21.5333 64.76 20.6693 64.76 19.752C64.76 18.1733 64.408 16.9893 63.704 16.2C63.0213 15.3893 61.88 14.984 60.28 14.984ZM79.7055 20.072C81.0708 20.072 82.2975 20.3707 83.3855 20.968C84.4735 21.5653 85.3375 22.504 85.9775 23.784C86.6388 25.064 86.9695 26.728 86.9695 28.776C86.9695 30.824 86.6388 32.488 85.9775 33.768C85.3375 35.0267 84.4735 35.9547 83.3855 36.552C82.2975 37.1493 81.0708 37.448 79.7055 37.448C78.3615 37.448 77.1348 37.1493 76.0255 36.552C74.9375 35.9547 74.0628 35.0267 73.4015 33.768C72.7615 32.488 72.4415 30.824 72.4415 28.776C72.4415 26.728 72.7615 25.064 73.4015 23.784C74.0628 22.504 74.9375 21.5653 76.0255 20.968C77.1348 20.3707 78.3615 20.072 79.7055 20.072ZM79.7055 20.712C78.4895 20.712 77.4868 21.3413 76.6975 22.6C75.9295 23.8587 75.5455 25.9173 75.5455 28.776C75.5455 31.6347 75.9295 33.6933 76.6975 34.952C77.4868 36.1893 78.4895 36.808 79.7055 36.808C80.9215 36.808 81.9135 36.1893 82.6815 34.952C83.4708 33.6933 83.8655 31.6347 83.8655 28.776C83.8655 25.9173 83.4708 23.8587 82.6815 22.6C81.9135 21.3413 80.9215 20.712 79.7055 20.712ZM97.2368 20.072C98.6021 20.072 99.8288 20.3707 100.917 20.968C102.005 21.5653 102.869 22.504 103.509 23.784C104.17 25.064 104.501 26.728 104.501 28.776C104.501 30.824 104.17 32.488 103.509 33.768C102.869 35.0267 102.005 35.9547 100.917 36.552C99.8288 37.1493 98.6021 37.448 97.2368 37.448C95.8928 37.448 94.6661 37.1493 93.5568 36.552C92.4688 35.9547 91.5941 35.0267 90.9328 33.768C90.2928 32.488 89.9728 30.824 89.9728 28.776C89.9728 26.728 90.2928 25.064 90.9328 23.784C91.5941 22.504 92.4688 21.5653 93.5568 20.968C94.6661 20.3707 95.8928 20.072 97.2368 20.072ZM97.2368 20.712C96.0208 20.712 95.0181 21.3413 94.2288 22.6C93.4608 23.8587 93.0768 25.9173 93.0768 28.776C93.0768 31.6347 93.4608 33.6933 94.2288 34.952C95.0181 36.1893 96.0208 36.808 97.2368 36.808C98.4528 36.808 99.4448 36.1893 100.213 34.952C101.002 33.6933 101.397 31.6347 101.397 28.776C101.397 25.9173 101.002 23.8587 100.213 22.6C99.4448 21.3413 98.4528 20.712 97.2368 20.712ZM111.64 11.912V34.024C111.64 34.92 111.8 35.528 112.12 35.848C112.44 36.168 112.984 36.328 113.752 36.328V37C113.41 36.9787 112.898 36.9573 112.216 36.936C111.554 36.8933 110.882 36.872 110.2 36.872C109.474 36.872 108.738 36.8933 107.992 36.936C107.245 36.9573 106.69 36.9787 106.328 37V36.328C107.202 36.328 107.821 36.168 108.184 35.848C108.568 35.528 108.76 34.92 108.76 34.024V15.752C108.76 14.792 108.589 14.088 108.248 13.64C107.906 13.1707 107.266 12.936 106.328 12.936V12.264C107.01 12.328 107.672 12.36 108.312 12.36C108.93 12.36 109.517 12.328 110.072 12.264C110.648 12.1787 111.17 12.0613 111.64 11.912ZM121.816 20.52V21.16C121.282 21.2027 120.781 21.352 120.312 21.608C119.842 21.8427 119.384 22.1947 118.936 22.664L114.424 27.4L114.872 26.504L120.824 34.664C121.186 35.1547 121.528 35.5387 121.847 35.816C122.189 36.0933 122.594 36.264 123.064 36.328V37C122.829 36.9787 122.456 36.9573 121.944 36.936C121.453 36.8933 120.962 36.872 120.472 36.872C119.81 36.872 119.138 36.8933 118.456 36.936C117.773 36.9573 117.261 36.9787 116.92 37V36.328C117.346 36.328 117.645 36.2213 117.816 36.008C117.986 35.7947 117.954 35.5387 117.72 35.24L114.04 29.864C113.634 29.288 113.261 28.9147 112.92 28.744C112.6 28.5733 112.13 28.4773 111.512 28.456V27.816C112.194 27.7307 112.749 27.592 113.176 27.4C113.602 27.1867 114.008 26.8773 114.392 26.472L116.76 24.008C117.442 23.304 117.784 22.7493 117.784 22.344C117.784 21.9173 117.56 21.6187 117.112 21.448C116.685 21.256 116.12 21.16 115.416 21.16V20.52C115.97 20.5413 116.589 20.5733 117.272 20.616C117.976 20.6373 118.562 20.648 119.032 20.648C119.394 20.648 119.746 20.648 120.088 20.648C120.429 20.6267 120.749 20.6053 121.048 20.584C121.346 20.5627 121.602 20.5413 121.816 20.52ZM140.593 14.344C140.508 15.1547 140.444 15.944 140.401 16.712C140.38 17.4587 140.369 18.0347 140.369 18.44C140.369 18.952 140.38 19.432 140.401 19.88C140.423 20.328 140.444 20.7227 140.465 21.064H139.729C139.58 19.5707 139.377 18.3973 139.121 17.544C138.865 16.6693 138.417 16.04 137.777 15.656C137.137 15.272 136.145 15.08 134.801 15.08H132.785C132.06 15.08 131.505 15.144 131.121 15.272C130.759 15.3787 130.513 15.624 130.385 16.008C130.257 16.3707 130.193 16.9467 130.193 17.736V33.608C130.193 34.376 130.268 34.952 130.417 35.336C130.588 35.72 130.908 35.976 131.377 36.104C131.847 36.232 132.529 36.3173 133.425 36.36V37C132.871 36.9573 132.167 36.936 131.313 36.936C130.46 36.9147 129.596 36.904 128.721 36.904C127.889 36.904 127.111 36.9147 126.385 36.936C125.66 36.936 125.073 36.9573 124.625 37V36.36C125.351 36.3173 125.895 36.232 126.257 36.104C126.641 35.976 126.897 35.72 127.025 35.336C127.153 34.952 127.217 34.376 127.217 33.608V17.736C127.217 16.9467 127.153 16.3707 127.025 16.008C126.897 15.624 126.641 15.368 126.257 15.24C125.895 15.0907 125.351 15.0053 124.625 14.984V14.344C125.415 14.3653 126.247 14.3867 127.121 14.408C127.996 14.408 128.86 14.4187 129.713 14.44C130.567 14.44 131.356 14.44 132.081 14.44C132.828 14.44 133.436 14.44 133.905 14.44C134.887 14.44 135.996 14.44 137.233 14.44C138.492 14.4187 139.612 14.3867 140.593 14.344ZM135.633 25.608C135.633 25.608 135.633 25.7147 135.633 25.928C135.633 26.1413 135.633 26.248 135.633 26.248H129.233C129.233 26.248 129.233 26.1413 129.233 25.928C129.233 25.7147 129.233 25.608 129.233 25.608H135.633ZM136.241 21.384C136.156 22.6 136.113 23.528 136.113 24.168C136.135 24.808 136.145 25.3947 136.145 25.928C136.145 26.4613 136.156 27.048 136.177 27.688C136.199 28.328 136.252 29.256 136.337 30.472H135.601C135.516 29.7893 135.409 29.128 135.281 28.488C135.175 27.8267 134.919 27.2933 134.513 26.888C134.129 26.4613 133.468 26.248 132.529 26.248V25.608C133.233 25.608 133.767 25.4693 134.129 25.192C134.513 24.8933 134.791 24.52 134.961 24.072C135.132 23.624 135.249 23.1653 135.313 22.696C135.377 22.2053 135.441 21.768 135.505 21.384H136.241ZM146.076 12.52C146.631 12.52 147.111 12.7227 147.516 13.128C147.921 13.5333 148.124 14.0133 148.124 14.568C148.124 15.1227 147.921 15.6027 147.516 16.008C147.111 16.4133 146.631 16.616 146.076 16.616C145.521 16.616 145.041 16.4133 144.636 16.008C144.231 15.6027 144.028 15.1227 144.028 14.568C144.028 14.0133 144.231 13.5333 144.636 13.128C145.041 12.7227 145.521 12.52 146.076 12.52ZM147.74 20.168V34.024C147.74 34.92 147.921 35.528 148.284 35.848C148.668 36.168 149.297 36.328 150.172 36.328V37C149.809 36.9787 149.255 36.9573 148.508 36.936C147.783 36.8933 147.047 36.872 146.3 36.872C145.575 36.872 144.839 36.8933 144.092 36.936C143.345 36.9573 142.791 36.9787 142.428 37V36.328C143.303 36.328 143.921 36.168 144.284 35.848C144.668 35.528 144.86 34.92 144.86 34.024V24.008C144.86 23.048 144.689 22.344 144.348 21.896C144.007 21.4267 143.367 21.192 142.428 21.192V20.52C143.111 20.584 143.772 20.616 144.412 20.616C145.031 20.616 145.617 20.584 146.172 20.52C146.748 20.4347 147.271 20.3173 147.74 20.168ZM162.555 20.072C163.366 20.072 164.038 20.1787 164.571 20.392C165.126 20.6053 165.584 20.904 165.947 21.288C166.352 21.7147 166.64 22.248 166.811 22.888C166.982 23.528 167.067 24.392 167.067 25.48V34.024C167.067 34.92 167.248 35.528 167.611 35.848C167.995 36.168 168.624 36.328 169.499 36.328V37C169.136 36.9787 168.582 36.9573 167.835 36.936C167.088 36.8933 166.363 36.872 165.659 36.872C164.955 36.872 164.262 36.8933 163.579 36.936C162.918 36.9573 162.416 36.9787 162.075 37V36.328C162.843 36.328 163.387 36.168 163.707 35.848C164.027 35.528 164.187 34.92 164.187 34.024V24.776C164.187 24.1147 164.134 23.5067 164.027 22.952C163.92 22.3973 163.675 21.9493 163.291 21.608C162.928 21.2667 162.363 21.096 161.595 21.096C160.699 21.096 159.91 21.352 159.227 21.864C158.566 22.376 158.043 23.08 157.659 23.976C157.296 24.8507 157.115 25.832 157.115 26.92V34.024C157.115 34.92 157.275 35.528 157.595 35.848C157.915 36.168 158.459 36.328 159.227 36.328V37C158.886 36.9787 158.374 36.9573 157.691 36.936C157.03 36.8933 156.347 36.872 155.643 36.872C154.939 36.872 154.214 36.8933 153.467 36.936C152.72 36.9573 152.166 36.9787 151.803 37V36.328C152.678 36.328 153.296 36.168 153.659 35.848C154.043 35.528 154.235 34.92 154.235 34.024V24.008C154.235 23.048 154.064 22.344 153.723 21.896C153.382 21.4267 152.742 21.192 151.803 21.192V20.52C152.486 20.584 153.147 20.616 153.787 20.616C154.406 20.616 154.992 20.584 155.547 20.52C156.123 20.4347 156.646 20.3173 157.115 20.168V23.944C157.67 22.4933 158.438 21.4907 159.419 20.936C160.422 20.36 161.467 20.072 162.555 20.072ZM185.457 11.912V33.512C185.457 34.472 185.627 35.1867 185.969 35.656C186.331 36.104 186.971 36.328 187.889 36.328V37C187.227 36.936 186.566 36.904 185.905 36.904C185.286 36.904 184.689 36.936 184.113 37C183.558 37.064 183.046 37.1813 182.577 37.352V15.752C182.577 14.792 182.406 14.088 182.065 13.64C181.723 13.1707 181.083 12.936 180.145 12.936V12.264C180.827 12.328 181.489 12.36 182.129 12.36C182.747 12.36 183.334 12.328 183.889 12.264C184.465 12.1787 184.987 12.0613 185.457 11.912ZM178.737 20.072C179.675 20.072 180.55 20.296 181.361 20.744C182.193 21.192 182.747 21.96 183.025 23.048L182.609 23.368C182.31 22.472 181.841 21.8213 181.201 21.416C180.582 21.0107 179.846 20.808 178.993 20.808C177.734 20.808 176.678 21.4587 175.825 22.76C174.993 24.0613 174.587 26.0667 174.609 28.776C174.609 30.504 174.769 31.944 175.089 33.096C175.43 34.2267 175.921 35.08 176.561 35.656C177.222 36.2107 178.022 36.488 178.961 36.488C179.857 36.488 180.667 36.104 181.393 35.336C182.118 34.568 182.555 33.4373 182.705 31.944L183.089 32.392C182.918 34.0133 182.395 35.2613 181.521 36.136C180.667 37.0107 179.505 37.448 178.033 37.448C176.71 37.448 175.547 37.128 174.545 36.488C173.563 35.848 172.806 34.888 172.273 33.608C171.761 32.328 171.505 30.7173 171.505 28.776C171.505 26.8347 171.835 25.224 172.497 23.944C173.179 22.6427 174.065 21.672 175.153 21.032C176.262 20.392 177.457 20.072 178.737 20.072ZM197.267 20.072C199.144 20.072 200.605 20.648 201.651 21.8C202.717 22.9307 203.251 24.7013 203.251 27.112H191.955L191.923 26.504H200.179C200.221 25.4587 200.136 24.4987 199.923 23.624C199.709 22.728 199.368 22.0133 198.899 21.48C198.451 20.9467 197.864 20.68 197.139 20.68C196.157 20.68 195.283 21.1707 194.515 22.152C193.768 23.1333 193.32 24.6907 193.171 26.824L193.266 26.952C193.224 27.272 193.192 27.624 193.171 28.008C193.149 28.392 193.139 28.776 193.139 29.16C193.139 30.6107 193.373 31.8587 193.843 32.904C194.312 33.9493 194.92 34.7493 195.667 35.304C196.435 35.8373 197.224 36.104 198.035 36.104C198.675 36.104 199.283 36.008 199.859 35.816C200.435 35.6027 200.968 35.2613 201.459 34.792C201.949 34.3227 202.376 33.6933 202.739 32.904L203.379 33.16C203.144 33.864 202.76 34.5467 202.227 35.208C201.693 35.8693 201.021 36.4133 200.211 36.84C199.4 37.2453 198.461 37.448 197.395 37.448C195.859 37.448 194.536 37.096 193.427 36.392C192.339 35.688 191.496 34.7173 190.899 33.48C190.323 32.2213 190.035 30.7813 190.035 29.16C190.035 27.2827 190.333 25.672 190.931 24.328C191.528 22.9627 192.371 21.9173 193.459 21.192C194.547 20.4453 195.816 20.072 197.267 20.072ZM215.63 20.072C216.206 20.072 216.707 20.1893 217.134 20.424C217.582 20.6587 217.923 20.968 218.158 21.352C218.414 21.7147 218.542 22.1307 218.542 22.6C218.542 23.1333 218.371 23.6027 218.03 24.008C217.71 24.4133 217.273 24.616 216.718 24.616C216.27 24.616 215.875 24.4773 215.534 24.2C215.193 23.9013 215.022 23.4853 215.022 22.952C215.022 22.5467 215.129 22.2053 215.342 21.928C215.577 21.6293 215.833 21.3947 216.11 21.224C215.961 21.0107 215.737 20.904 215.438 20.904C214.777 20.904 214.169 21.1067 213.614 21.512C213.059 21.896 212.59 22.3973 212.206 23.016C211.822 23.6347 211.523 24.296 211.31 25C211.097 25.6827 210.99 26.3227 210.99 26.92V33.704C210.99 34.7493 211.289 35.4533 211.886 35.816C212.505 36.1573 213.337 36.328 214.382 36.328V37C213.891 36.9787 213.198 36.9573 212.302 36.936C211.406 36.8933 210.457 36.872 209.454 36.872C208.729 36.872 208.003 36.8933 207.278 36.936C206.574 36.9573 206.041 36.9787 205.678 37V36.328C206.553 36.328 207.171 36.168 207.534 35.848C207.918 35.528 208.11 34.92 208.11 34.024V24.008C208.11 23.048 207.939 22.344 207.598 21.896C207.257 21.4267 206.617 21.192 205.678 21.192V20.52C206.361 20.584 207.022 20.616 207.662 20.616C208.281 20.616 208.867 20.584 209.422 20.52C209.998 20.4347 210.521 20.3173 210.99 20.168V24.168C211.225 23.5493 211.555 22.9307 211.982 22.312C212.43 21.672 212.963 21.1387 213.582 20.712C214.201 20.2853 214.883 20.072 215.63 20.072ZM221.845 33.352C222.399 33.352 222.879 33.5547 223.285 33.96C223.69 34.3653 223.893 34.8453 223.893 35.4C223.893 35.9547 223.69 36.4347 223.285 36.84C222.879 37.2453 222.399 37.448 221.845 37.448C221.29 37.448 220.81 37.2453 220.405 36.84C219.999 36.4347 219.797 35.9547 219.797 35.4C219.797 34.8453 219.999 34.3653 220.405 33.96C220.81 33.5547 221.29 33.352 221.845 33.352Z" fill="url('#paint0_linear_11_7075')"></path>
<path d="M6.375 40.375C9.28237 38.6964 12.5804 37.8127 15.9375 37.8127C19.2946 37.8127 22.5926 38.6964 25.5 40.375C28.4074 38.6964 31.7054 37.8127 35.0625 37.8127C38.4196 37.8127 41.7176 38.6964 44.625 40.375M6.375 12.75C9.28237 11.0714 12.5804 10.1877 15.9375 10.1877C19.2946 10.1877 22.5926 11.0714 25.5 12.75C28.4074 11.0714 31.7054 10.1877 35.0625 10.1877C38.4196 10.1877 41.7176 11.0714 44.625 12.75M6.375 12.75V40.375V12.75ZM25.5 12.75V40.375V12.75ZM44.625 12.75V40.375V12.75Z" fill="url('#paint1_linear_11_7075')"></path>
<path d="M25.5 40.375C22.5926 38.6964 19.2946 37.8127 15.9375 37.8127C12.5804 37.8127 9.28237 38.6964 6.375 40.375V12.75C9.28237 11.0714 12.5804 10.1877 15.9375 10.1877C19.2946 10.1877 22.5926 11.0714 25.5 12.75M25.5 40.375C28.4074 38.6964 31.7054 37.8127 35.0625 37.8127C38.4196 37.8127 41.7176 38.6964 44.625 40.375V12.75C41.7176 11.0714 38.4196 10.1877 35.0625 10.1877C31.7054 10.1877 28.4074 11.0714 25.5 12.75M25.5 40.375V12.75" stroke="#FF686B" stroke-width="2" stroke-linecap="round" stroke-linejoin="round"></path>
<defs>
<linearGradient id="paint0_linear_11_7075" x1="138.5" y1="2" x2="138.5" y2="45" gradientUnits="userSpaceOnUse">
<stop stop-color="#FF686B"></stop>
<stop offset="1" stop-color="#FB3464"></stop>
</linearGradient>
<linearGradient id="paint1_linear_11_7075" x1="25.5" y1="10.1877" x2="25.5" y2="40.375" gradientUnits="userSpaceOnUse">
<stop stop-color="#FF686B"></stop>
<stop offset="1" stop-color="#FB3464"></stop>
</linearGradient>
</defs>
</svg>
